<svg width="560" height="280" viewBox="0 0 96 20" fill="none" xmlns="http://www.w3.org/2000/svg">
<g clip-path="url(#clip0_2249_377)">
<path d="M16.5486 7.46403C12.2432 7.37468 10.3066 5.79546 10.3066 5.38195C10.3066 4.96845 12.2432 3.41001 16.5486 3.30195C16.7647 3.30195 16.9434 3.12325 16.9434 2.88845V0.594423C16.9434 0.361695 16.746 0.180916 16.5133 0.180916C14.9341 0.253643 9.50032 0.719098 8.56733 3.96481C8.54863 4.03754 8.44266 4.03754 8.42396 3.96481C7.49097 0.719098 2.0385 0.253643 0.477981 0.180916C0.245254 0.162215 0.0478516 0.359617 0.0478516 0.594423V2.90715C0.0478516 3.12325 0.226553 3.30195 0.442657 3.32066C4.74811 3.41001 6.68473 4.97053 6.68473 5.38403C6.68473 5.79754 4.74811 7.46403 0.442657 7.46403C0.0478519 7.46403 0.0478516 7.85884 0.0478516 7.85884V10.209C0.0478516 10.5851 0.442657 10.6038 0.442657 10.6038C4.74811 10.6931 6.68473 12.2723 6.68473 12.6838C6.68473 13.0973 4.74811 14.6557 0.442657 14.7638C0.226553 14.7638 0.0478516 14.9425 0.0478516 15.1773V17.49C0.0478516 17.7227 0.245254 17.9035 0.477981 17.9035C2.0572 17.8308 7.49097 17.3653 8.42396 14.1196C8.44266 14.0469 8.54863 14.0469 8.56733 14.1196C9.50032 17.3653 14.9528 17.8329 16.5133 17.9035C16.746 17.9222 16.9434 17.7248 16.9434 17.49V15.1586C16.9434 14.9425 16.7647 14.7638 16.5486 14.7451C12.2432 14.6557 10.3066 13.0952 10.3066 12.6817C10.3066 12.2682 12.2432 10.691 16.5486 10.6017C16.5486 10.6017 16.9434 10.6204 16.9434 10.2069V7.85884C16.9434 7.46403 16.5486 7.46403 16.5486 7.46403ZM9.98448 9.57936C9.58967 10.9965 8.53201 11.1399 7.88577 10.9071C7.22292 10.6744 6.52266 9.92014 7.13149 8.5404C7.43694 7.84014 8.44058 6.8178 9.26551 7.12325C10.1632 7.44533 10.1985 8.84377 9.98448 9.57936Z" fill="#061A34"/>
<path d="M76.2889 3.01732V5.27187C76.2889 5.6646 75.8796 5.80174 75.6053 5.49421L74.29 4.04174C73.7435 3.41005 73.145 3.30615 72.4115 3.30615H70.157C69.8162 3.30615 69.6271 3.49317 69.6271 3.83602V7.81732H71.3185C71.7279 7.81732 72.0188 7.68018 72.2411 7.3394L73.2157 6.0407C73.49 5.64797 73.9679 5.78512 73.9679 6.26304V10.6017C73.9679 11.0464 73.49 11.2002 73.2157 10.8241L72.2411 9.52537C72.0022 9.1846 71.7279 9.03083 71.3185 9.03083H69.6271V13.6604C69.6271 14.155 69.8827 14.3773 70.344 14.3773H72.2058C73.0598 14.3773 73.7269 14.3773 74.3253 13.5919L75.5388 12.021C75.7944 11.6802 76.2224 11.782 76.2224 12.208V14.583C76.2224 15.2999 75.8131 15.5742 75.198 15.5742H66.0926C65.8702 15.5742 65.7165 15.4204 65.7165 15.2501C65.7165 14.6516 66.691 14.6017 66.691 13.8495V3.8194C66.691 2.99862 65.7165 2.982 65.7165 2.41888C65.7165 2.24849 65.8702 2.09473 66.0926 2.09473H75.2998C76.05 2.09473 76.2889 2.35031 76.2889 3.01732ZM95.8671 16.4449C95.8671 18.3586 93.9367 19.6386 90.6058 19.6386C88.0936 19.6386 86.6432 18.7493 86.6432 17.4859C86.6432 16.6651 87.3269 15.9482 88.557 15.5202C87.4287 15.3498 86.9175 14.6828 86.9175 13.9991C86.9175 13.2137 87.5658 12.4968 88.6256 12.1539C87.5824 11.5721 86.9009 10.6516 86.9009 9.5233C86.9009 7.62616 88.7461 6.32953 91.1211 6.32953H94.2484C95.0006 6.32953 95.3248 6.09057 95.6489 6.09057C95.8193 6.09057 95.9565 6.21109 95.9565 6.41473C95.9565 6.80745 95.4432 7.16693 94.8282 7.54304C94.6744 7.62823 94.6411 7.76538 94.7596 7.91914C95.0837 8.36382 95.2728 8.89369 95.2728 9.49005C95.2728 11.3352 93.4276 12.7025 91.0879 12.7025C90.7118 12.7025 90.3357 12.6506 89.9949 12.6007C89.2427 12.4802 89.1056 13.3862 89.943 13.4381L92.7793 13.6771C94.8427 13.8475 95.8339 15.0111 95.8671 16.4449ZM90.3315 11.5077C91.0152 11.7633 92.1601 11.5929 92.5861 10.0719C92.8084 9.28641 92.7565 7.76538 91.8006 7.4246C90.9113 7.10044 89.8349 8.19343 89.5107 8.94564C88.8458 10.448 89.6146 11.2355 90.3315 11.5077ZM93.492 16.9415C93.492 16.3784 93.2011 15.8817 91.9544 15.7467L89.6313 15.5597C89.0162 15.9191 88.8458 16.449 88.8458 17.0454C88.8458 18.0012 89.5814 18.583 91.117 18.583C92.6546 18.581 93.492 17.8454 93.492 16.9415ZM36.2785 11.8838C36.2785 14.2423 34.211 15.6428 30.1113 15.6428H25.4484C25.2095 15.6428 25.0557 15.489 25.0557 15.3186C25.0557 14.7721 26.0302 14.6869 26.0302 13.9181L26.0136 3.89005C26.0136 3.12122 25.0391 3.08797 25.0391 2.48953C25.0391 2.31914 25.1928 2.16538 25.4318 2.16538H29.8224C33.7518 2.14875 35.6302 3.44745 35.6302 5.46304C35.6302 6.74512 34.93 7.80278 32.8978 8.3846C35.3393 8.75654 36.2619 10.1404 36.2785 11.8838ZM28.9331 7.88589H29.8557C31.6489 7.88589 32.6401 7.13369 32.6401 5.69992C32.6235 4.19758 31.9232 3.36018 29.9409 3.36018H29.463C29.1222 3.36018 28.9331 3.56589 28.9331 3.90667V7.88589V7.88589ZM33.1346 11.9524C33.1346 10.1924 32.2121 9.11603 30.0593 9.11603H28.9497V13.7456C28.9497 14.2069 29.2053 14.4293 29.6666 14.4293H30.504C32.4344 14.4293 33.1346 13.4049 33.1346 11.9524ZM45.5731 13.7623C45.0266 14.9924 43.7113 15.863 41.8328 15.863C38.9798 15.863 37.0495 13.8121 37.0495 10.9945C37.0495 8.12486 38.9798 6.14252 41.731 6.14252C44.3617 6.14252 45.6084 8.00434 45.6084 9.71239C45.6084 10.448 45.3695 10.635 44.7378 10.635H39.5783C39.6469 12.7025 40.9954 13.7955 42.8074 13.7955C44.4469 13.7955 44.9435 12.8729 45.4214 12.8729C45.7102 12.875 45.864 13.1825 45.5731 13.7623ZM39.6095 9.5607H42.583C43.0775 9.5607 43.2146 9.39031 43.2146 9.04745C43.2146 8.00434 42.7014 7.18564 41.5918 7.18564C40.4656 7.18564 39.6448 8.02304 39.6095 9.5607ZM50.5954 9.73109C49.0058 9.04745 48.6131 8.62148 48.6131 8.10823C48.6131 7.52641 49.0744 7.18564 49.7061 7.18564C51.2957 7.18564 51.4141 9.32174 52.7295 9.32174C53.3113 9.32174 53.6521 8.89369 53.6521 8.24538C53.6521 6.74304 51.7383 6.12797 50.0635 6.1446C47.9627 6.1446 46.5435 7.08382 46.5435 8.86044C46.5435 10.261 47.4141 11.0984 49.6188 12.1228C51.1045 12.823 51.5845 13.2324 51.5845 13.8662C51.5845 14.4293 51.1565 14.8054 50.4063 14.8054C48.6463 14.8054 48.8001 12.7212 47.5533 12.7212C46.9549 12.7212 46.4936 13.1825 46.4936 13.8308C46.4936 15.248 48.6463 15.863 50.1674 15.863C52.3035 15.863 53.7726 14.8386 53.7726 13.0952C53.7892 11.7467 52.9019 10.7389 50.5954 9.73109ZM60.8292 6.33161H58.4043V4.2994C58.4043 4.02512 58.2671 3.93992 58.1134 3.9233C57.8744 3.87135 57.6521 4.00849 57.6001 4.24745C57.0869 6.502 54.6266 6.502 54.6266 6.502C54.2858 6.502 54.0967 6.67239 54.0967 6.97992C54.0967 7.27083 54.2837 7.44122 54.6432 7.44122H55.1565H54.6432H55.1565C55.4474 7.44122 55.703 7.68018 55.703 7.97109V13.2324C55.703 15.0942 56.7627 15.8298 58.317 15.8298C59.9565 15.8298 61.3237 15.0443 61.3237 14.3254C61.3237 14.1197 61.1866 14.0012 61.0162 14.0012C60.6921 14.0012 60.3679 14.3088 59.6157 14.3088C58.8302 14.3088 58.4188 13.968 58.4188 13.1472V7.56174H60.8437C61.1845 7.56174 61.3736 7.39135 61.3736 7.08382V6.80953C61.3757 6.502 61.17 6.33161 60.8292 6.33161ZM85.9762 16.4615C85.9762 18.3752 84.0458 19.6552 80.7149 19.6552C78.2027 19.6552 76.7523 18.7659 76.7523 17.5025C76.7523 16.6817 77.4359 15.9649 78.6661 15.5368C77.5378 15.3664 77.0266 14.6994 77.0266 14.0158C77.0266 13.2303 77.6749 12.5134 78.7346 12.1706C77.6915 11.5888 77.01 10.6682 77.01 9.53992C77.01 7.64278 78.8552 6.34615 81.2302 6.34615H84.3575C85.1097 6.34615 85.4339 6.10719 85.758 6.10719C85.9284 6.10719 86.0656 6.22771 86.0656 6.43135C86.0656 6.82408 85.5523 7.18356 84.9372 7.55966C84.7835 7.64486 84.7502 7.782 84.8687 7.93577C85.1928 8.38044 85.3819 8.91031 85.3819 9.50667C85.3819 11.3519 83.5367 12.7191 81.197 12.7191C80.8209 12.7191 80.4448 12.6672 80.104 12.6173C79.3518 12.4968 79.2146 13.4028 80.052 13.4547L82.8884 13.6937C84.9331 13.8662 85.9409 15.0111 85.9762 16.4615ZM80.4406 11.5243C81.1243 11.7799 82.2692 11.6095 82.6952 10.0885C82.9175 9.30304 82.8656 7.782 81.9097 7.44122C81.0204 7.11706 79.9461 8.21005 79.6198 8.96226C78.9549 10.448 79.7237 11.2521 80.4406 11.5243ZM83.6011 16.9581C83.6011 16.395 83.3102 15.8984 82.0635 15.7612L79.7404 15.5742C79.1253 15.9337 78.9549 16.4636 78.9549 17.0599C78.9549 18.0158 79.6905 18.5976 81.2261 18.5976C82.7637 18.5976 83.6011 17.8641 83.6011 16.9581Z" fill="#061A34"/>
</g>
<defs>
<clipPath id="clip0_2249_377">
<rect width="477.99" height="66.14" fill="white"/>
</clipPath>
</defs>
</svg>
