<?xml version="1.0" encoding="UTF-8" standalone="no"?>
<!-- Generator: Adobe Illustrator 27.4.0, SVG Export Plug-In . SVG Version: 6.00 Build 0)  -->

<svg
   version="1.1"
   id="Vertical_Lockup_Small"
   x="0px"
   y="0px"
   viewBox="0 0 435 195"
   xml:space="preserve"
   sodipodi:docname="logo-full-vertical.svg"
   width="435"
   height="195"
   inkscape:version="1.2.1 (9c6d41e4, 2022-07-14)"
   xmlns:inkscape="http://www.inkscape.org/namespaces/inkscape"
   xmlns:sodipodi="http://sodipodi.sourceforge.net/DTD/sodipodi-0.dtd"
   xmlns:xlink="http://www.w3.org/1999/xlink"
   xmlns="http://www.w3.org/2000/svg"
   xmlns:svg="http://www.w3.org/2000/svg"><defs
   id="defs9165" /><sodipodi:namedview
   id="namedview9163"
   pagecolor="#505050"
   bordercolor="#eeeeee"
   borderopacity="1"
   inkscape:showpageshadow="0"
   inkscape:pageopacity="0"
   inkscape:pagecheckerboard="0"
   inkscape:deskcolor="#505050"
   showgrid="false"
   inkscape:zoom="1.9844657"
   inkscape:cx="214.41539"
   inkscape:cy="123.71088"
   inkscape:window-width="1680"
   inkscape:window-height="925"
   inkscape:window-x="0"
   inkscape:window-y="25"
   inkscape:window-maximized="1"
   inkscape:current-layer="Vertical_Lockup_Small" />
<style
   type="text/css"
   id="style9079">
	.st0{clip-path:url(#SVGID_00000045599713317694509180000013516127963759614634_);}
	
		.st1{clip-path:url(#SVGID_00000053503983417907525600000013201285424874064039_);fill-rule:evenodd;clip-rule:evenodd;fill:#046A38;}
	.st2{clip-path:url(#SVGID_00000053503983417907525600000013201285424874064039_);fill:#046A38;}
	.st3{clip-path:url(#SVGID_00000053503983417907525600000013201285424874064039_);fill:#43B02A;}
</style>
<g
   id="Lockup_x5F_SM_x5F_Verti_x5F_RGB"
   transform="matrix(1.0042015,0,0,1.0042015,-17.483151,-10.94372)">
	<g
   id="g9159">
		<defs
   id="defs9082">
			<rect
   id="SVGID_1_"
   x="19.9"
   y="13.5"
   width="428.20001"
   height="189" />
		</defs>
		<clipPath
   id="SVGID_00000130628856370624479050000009284463870897420965_">
			<use
   xlink:href="#SVGID_1_"
   style="overflow:visible"
   id="use9084" />
		</clipPath>
		<g
   clip-path="url(#SVGID_00000130628856370624479050000009284463870897420965_)"
   id="g9157">
			<defs
   id="defs9088">
				<rect
   id="SVGID_00000156583611262504234650000004358255314180088233_"
   x="19.9"
   y="13.5"
   width="428.20001"
   height="189" />
			</defs>
			<clipPath
   id="SVGID_00000049917698884121551000000013099094966939529654_">
				<use
   xlink:href="#SVGID_00000156583611262504234650000004358255314180088233_"
   style="overflow:visible"
   id="use9090" />
			</clipPath>
			
				<path
   style="clip-rule:evenodd;fill:#046a38;fill-rule:evenodd"
   d="m 111.27,107.53 c -5.05,0.41 -6.07,1.23 -6.07,6.48 v 29.82 c 0,4.85 0.96,5.87 6.07,6.28 v 1.3 H 92.23 v -1.3 c 5.32,-0.34 6,-1.43 6,-7.16 V 129.91 H 77.55 v 13.79 c 0,4.98 0.89,6.14 5.94,6.41 l 0.07,1.3 H 64.52 v -1.3 c 5.32,-0.34 6.07,-1.16 6.07,-7.03 v -29.07 c 0,-5.32 -0.82,-6.07 -6.07,-6.48 v -1.3 h 19.11 v 1.3 c -4.98,0.41 -6.07,1.16 -6.07,6.48 v 12.9 h 20.68 v -12.9 c 0,-5.39 -0.89,-6.07 -6.07,-6.48 v -1.3 h 19.11 v 1.3 z"
   clip-path="url(#SVGID_00000049917698884121551000000013099094966939529654_)"
   id="path9093" />
			
				<path
   style="clip-rule:evenodd;fill:#046a38;fill-rule:evenodd"
   d="m 160.42,128.48 c -3.96,0.34 -4.78,1.02 -4.78,5.46 v 13.65 c -3.75,3.07 -10.31,4.78 -17.34,4.78 -6.96,0 -13.92,-2.59 -18.42,-7.3 -3.82,-4.03 -5.67,-9.28 -5.67,-15.97 0,-7.51 2.73,-13.79 7.3,-17.95 4.09,-3.75 9.69,-5.87 16.31,-5.87 3.69,0 6,0.55 9.08,1.57 1.29,0.48 2.32,0.69 3,0.69 1.43,0 2.66,-0.96 3.07,-2.25 h 1.5 l 0.54,14.4 h -1.57 c -1.71,-4.16 -2.8,-5.94 -4.85,-7.92 -2.6,-2.46 -6.14,-3.75 -9.96,-3.75 -4.71,0 -8.46,1.71 -11.4,4.71 -3.62,3.62 -5.25,9.83 -5.25,16.58 0,12.69 7.23,20.34 17.95,20.34 5.25,0 9.07,-1.91 9.07,-4.16 v -10.71 c 0,-5.32 -0.68,-5.87 -6.07,-6.28 v -1.23 h 17.47 v 1.21 z"
   clip-path="url(#SVGID_00000049917698884121551000000013099094966939529654_)"
   id="path9095" />
			
				<path
   style="clip-rule:evenodd;fill:#046a38;fill-rule:evenodd"
   d="m 55.86,131.41 c -1.98,-1.78 -3.82,-3 -8.33,-3.75 v -0.07 c 3.55,-0.89 4.91,-1.43 6.55,-2.87 1.71,-1.5 2.8,-4.3 2.8,-7.1 0,-7.23 -6.07,-11.4 -17.88,-11.4 H 19.9 v 1.3 c 5.53,0.34 6.55,0.96 6.55,6.34 v 29.82 c 0,5.19 -1.16,6.28 -6.55,6.42 v 1.3 h 23 c 9.9,0 16.31,-4.58 16.31,-12.15 0,-2.99 -1.16,-5.86 -3.35,-7.84 M 33.41,110.94 c 0,-1.57 0.48,-2.18 1.64,-2.18 h 2.8 c 8.12,0 12.08,3.48 12.08,9.21 0,5.66 -3.34,8.46 -10.23,8.46 h -6.28 v -15.49 z m 15.36,35.01 c -3,2.66 -5.39,2.93 -11.12,2.93 -3.14,0 -4.23,-0.75 -4.23,-3.07 v -16.65 c 8.05,0.27 10.65,0 14.74,2.73 2.25,1.5 3.2,4.03 3.2,7.3 0,2.94 -0.89,5.26 -2.59,6.76"
   clip-path="url(#SVGID_00000049917698884121551000000013099094966939529654_)"
   id="path9097" />
			<path
   style="fill:#046a38"
   d="m 54.2,190.31 v 0.99 c 0,3.12 -1.67,5.11 -5.34,5.11 h -2.77 v 5.52 c 0,0.18 -0.07,0.28 -0.3,0.28 h -1.55 c -0.23,0 -0.32,-0.09 -0.32,-0.28 v -16.39 c 0,-0.14 0.11,-0.25 0.25,-0.25 h 4.69 c 3.67,0 5.34,1.97 5.34,5.02 m -8.12,-3.03 v 7.14 h 2.61 c 2.45,0 3.33,-1.16 3.33,-3.26 v -0.7 c 0,-2.08 -0.88,-3.19 -3.33,-3.19 h -2.61 z"
   clip-path="url(#SVGID_00000049917698884121551000000013099094966939529654_)"
   id="path9099" />
			<path
   style="fill:#046a38"
   d="m 72.3,190.96 v 5.55 c 0,3.7 -2.27,5.97 -6.13,5.97 -3.84,0 -6.1,-2.17 -6.1,-5.92 V 191 c 0,-3.79 2.27,-5.96 6.1,-5.96 3.86,0 6.13,2.26 6.13,5.92 m -10.06,0.07 v 5.45 c 0,2.66 1.43,3.96 3.93,3.96 2.52,0 3.95,-1.3 3.95,-3.96 v -5.45 c 0,-2.66 -1.43,-3.95 -3.95,-3.95 -2.5,0 -3.93,1.29 -3.93,3.95"
   clip-path="url(#SVGID_00000049917698884121551000000013099094966939529654_)"
   id="path9101" />
			<path
   style="fill:#046a38"
   d="m 95.92,185.62 -3.28,16.27 c -0.05,0.21 -0.16,0.32 -0.42,0.32 h -1.97 c -0.23,0 -0.35,-0.12 -0.39,-0.32 l -2.31,-9.78 c -0.3,-1.27 -0.6,-2.73 -0.88,-4.03 h -0.05 c -0.28,1.29 -0.58,2.73 -0.9,4 l -2.34,9.8 c -0.05,0.21 -0.16,0.32 -0.42,0.32 h -1.94 c -0.25,0 -0.37,-0.12 -0.42,-0.32 l -3.35,-16.27 c -0.02,-0.18 0.05,-0.32 0.25,-0.32 h 1.59 c 0.19,0 0.28,0.07 0.35,0.25 l 1.92,10.08 c 0.23,1.32 0.51,3.03 0.72,4.35 h 0.07 c 0.25,-1.32 0.6,-3.05 0.88,-4.37 l 2.33,-9.99 c 0.07,-0.21 0.19,-0.32 0.42,-0.32 h 1.73 c 0.23,0 0.35,0.12 0.42,0.32 l 2.33,10.06 c 0.3,1.27 0.63,3 0.88,4.3 h 0.07 c 0.21,-1.3 0.46,-3.03 0.72,-4.3 l 1.89,-10.13 c 0.02,-0.18 0.18,-0.25 0.35,-0.25 h 1.53 c 0.2,0 0.29,0.14 0.22,0.33"
   clip-path="url(#SVGID_00000049917698884121551000000013099094966939529654_)"
   id="path9103" />
			<path
   style="fill:#046a38"
   d="m 111.91,185.59 v 1.39 c 0,0.23 -0.12,0.3 -0.28,0.3 h -6.96 v 5.37 h 6.29 c 0.18,0 0.28,0.07 0.28,0.3 v 1.32 c 0,0.23 -0.09,0.3 -0.28,0.3 h -6.29 v 5.66 h 6.96 c 0.19,0 0.28,0.1 0.28,0.3 v 1.39 c 0,0.23 -0.09,0.3 -0.28,0.3 h -8.81 c -0.23,0 -0.32,-0.09 -0.32,-0.28 v -16.37 c 0,-0.18 0.09,-0.28 0.32,-0.28 h 8.81 c 0.17,0 0.28,0.1 0.28,0.3"
   clip-path="url(#SVGID_00000049917698884121551000000013099094966939529654_)"
   id="path9105" />
			<path
   style="fill:#046a38"
   d="m 130.05,202.22 h -1.78 c -0.23,0 -0.3,-0.07 -0.4,-0.25 l -3.68,-6.5 h -2.84 v 6.47 c 0,0.18 -0.07,0.28 -0.3,0.28 h -1.55 c -0.23,0 -0.32,-0.09 -0.32,-0.28 v -16.37 c 0,-0.18 0.09,-0.28 0.32,-0.28 h 5.06 c 3.63,0 5.27,1.99 5.27,4.81 v 0.49 c 0,2.36 -1.13,4.07 -3.42,4.64 l 3.84,6.64 c 0.1,0.14 0.06,0.35 -0.2,0.35 m -8.69,-8.67 h 3.05 c 2.36,0 3.26,-1.06 3.26,-2.98 v -0.35 c 0,-1.83 -0.9,-2.94 -3.26,-2.94 h -3.05 z"
   clip-path="url(#SVGID_00000049917698884121551000000013099094966939529654_)"
   id="path9107" />
			<path
   style="fill:#046a38"
   d="m 145.81,185.59 v 1.39 c 0,0.23 -0.12,0.3 -0.28,0.3 h -6.96 v 5.37 h 6.29 c 0.18,0 0.28,0.07 0.28,0.3 v 1.32 c 0,0.23 -0.09,0.3 -0.28,0.3 h -6.29 v 5.66 h 6.96 c 0.19,0 0.28,0.1 0.28,0.3 v 1.39 c 0,0.23 -0.09,0.3 -0.28,0.3 h -8.81 c -0.23,0 -0.32,-0.09 -0.32,-0.28 v -16.37 c 0,-0.18 0.09,-0.28 0.32,-0.28 h 8.81 c 0.17,0 0.28,0.1 0.28,0.3"
   clip-path="url(#SVGID_00000049917698884121551000000013099094966939529654_)"
   id="path9109" />
			<path
   style="fill:#046a38"
   d="m 163.74,191.19 v 5.11 c 0,3.68 -2.27,5.92 -6.31,5.92 h -4.97 c -0.21,0 -0.3,-0.09 -0.3,-0.28 v -16.36 c 0,-0.19 0.09,-0.28 0.32,-0.28 h 4.94 c 4.06,-0.01 6.32,2.24 6.32,5.89 m -9.41,-3.86 v 12.85 h 3.03 c 2.73,0 4.21,-1.25 4.21,-4.02 v -4.81 c 0,-2.77 -1.48,-4.02 -4.21,-4.02 z"
   clip-path="url(#SVGID_00000049917698884121551000000013099094966939529654_)"
   id="path9111" />
			<path
   style="fill:#046a38"
   d="m 188.61,189.48 v 0.37 c 0,1.87 -0.99,3.12 -2.4,3.58 1.62,0.28 2.89,1.71 2.89,3.84 v 0.49 c 0,2.82 -1.82,4.46 -4.97,4.46 h -5.64 c -0.23,0 -0.32,-0.09 -0.32,-0.28 v -16.37 c 0,-0.19 0.09,-0.28 0.32,-0.28 h 5.57 c 2.98,0 4.55,1.65 4.55,4.19 m -8.27,-2.25 v 5.34 h 3.33 c 2.13,0 2.82,-1.23 2.82,-2.54 v -0.25 c 0,-1.43 -0.69,-2.55 -2.8,-2.55 z m 0,7.29 v 5.75 h 3.47 c 1.82,0 3.12,-0.72 3.12,-2.68 v -0.35 c 0,-1.76 -1.06,-2.73 -3.14,-2.73 h -3.45 z"
   clip-path="url(#SVGID_00000049917698884121551000000013099094966939529654_)"
   id="path9113" />
			<path
   style="fill:#046a38"
   d="m 206.11,185.69 -5.29,9.43 v 6.8 c 0,0.21 -0.07,0.3 -0.28,0.3 h -1.62 c -0.18,0 -0.28,-0.09 -0.28,-0.3 v -6.75 l -5.32,-9.48 c -0.12,-0.18 -0.02,-0.39 0.21,-0.39 h 1.78 c 0.21,0 0.3,0.07 0.4,0.25 l 4.07,7.56 4.04,-7.56 c 0.09,-0.18 0.19,-0.25 0.4,-0.25 h 1.69 c 0.24,-0.01 0.31,0.2 0.2,0.39"
   clip-path="url(#SVGID_00000049917698884121551000000013099094966939529654_)"
   id="path9115" />
			<path
   style="fill:#046a38"
   d="m 229.91,189.48 v 0.37 c 0,1.87 -0.99,3.12 -2.4,3.58 1.62,0.28 2.89,1.71 2.89,3.84 v 0.49 c 0,2.82 -1.82,4.46 -4.97,4.46 h -5.64 c -0.23,0 -0.32,-0.09 -0.32,-0.28 v -16.37 c 0,-0.19 0.09,-0.28 0.32,-0.28 h 5.57 c 2.98,0 4.55,1.65 4.55,4.19 m -8.27,-2.25 v 5.34 h 3.33 c 2.13,0 2.82,-1.23 2.82,-2.54 v -0.25 c 0,-1.43 -0.69,-2.55 -2.8,-2.55 z m 0,7.29 v 5.75 h 3.47 c 1.82,0 3.12,-0.72 3.12,-2.68 v -0.35 c 0,-1.76 -1.06,-2.73 -3.14,-2.73 h -3.45 z"
   clip-path="url(#SVGID_00000049917698884121551000000013099094966939529654_)"
   id="path9117" />
			<path
   style="fill:#046a38"
   d="m 248.47,185.59 v 16.34 c 0,0.18 -0.09,0.28 -0.32,0.28 h -1.55 c -0.23,0 -0.3,-0.09 -0.3,-0.28 v -7.24 h -7.45 v 7.24 c 0,0.18 -0.07,0.28 -0.3,0.28 h -1.57 c -0.21,0 -0.3,-0.09 -0.3,-0.28 v -16.34 c 0,-0.21 0.09,-0.3 0.32,-0.3 h 1.55 c 0.23,0 0.3,0.1 0.3,0.3 v 7.07 h 7.45 v -7.07 c 0,-0.21 0.07,-0.3 0.3,-0.3 h 1.55 c 0.23,0 0.32,0.1 0.32,0.3"
   clip-path="url(#SVGID_00000049917698884121551000000013099094966939529654_)"
   id="path9119" />
			<path
   style="fill:#046a38"
   d="m 266.71,188.9 c 0.09,0.23 0,0.37 -0.18,0.44 l -1.39,0.44 c -0.23,0.09 -0.35,0.02 -0.44,-0.19 -0.55,-1.66 -1.66,-2.52 -3.56,-2.52 -2.52,0 -3.93,1.27 -3.93,4.04 v 5.27 c 0,2.75 1.41,4.05 3.93,4.05 2.24,0 3.73,-1.04 3.73,-3.35 v -1.92 h -3.26 c -0.18,0 -0.28,-0.07 -0.28,-0.3 v -1.34 c 0,-0.21 0.09,-0.3 0.28,-0.3 h 5.04 c 0.21,0 0.32,0.12 0.32,0.3 v 3.65 c 0,3.19 -2.34,5.29 -5.83,5.29 -3.84,0 -6.1,-2.17 -6.1,-5.92 v -5.59 c 0,-3.77 2.26,-5.92 6.1,-5.92 3.07,0.01 4.81,1.58 5.57,3.87"
   clip-path="url(#SVGID_00000049917698884121551000000013099094966939529654_)"
   id="path9121" />
			<path
   style="fill:#046a38"
   d="m 290.4,185.59 v 1.39 c 0,0.23 -0.12,0.3 -0.28,0.3 h -6.75 v 5.8 h 6.06 c 0.19,0 0.28,0.09 0.28,0.3 v 1.34 c 0,0.21 -0.09,0.3 -0.28,0.3 h -6.06 v 6.91 c 0,0.18 -0.07,0.28 -0.3,0.28 h -1.57 c -0.21,0 -0.3,-0.09 -0.3,-0.28 v -16.37 c 0,-0.18 0.09,-0.28 0.32,-0.28 h 8.6 c 0.16,0.01 0.28,0.11 0.28,0.31"
   clip-path="url(#SVGID_00000049917698884121551000000013099094966939529654_)"
   id="path9123" />
			<path
   style="fill:#046a38"
   d="m 298.64,185.57 v 16.37 c 0,0.18 -0.07,0.28 -0.3,0.28 h -1.55 c -0.23,0 -0.32,-0.09 -0.32,-0.28 v -16.37 c 0,-0.18 0.09,-0.28 0.32,-0.28 h 1.55 c 0.23,0 0.3,0.1 0.3,0.28"
   clip-path="url(#SVGID_00000049917698884121551000000013099094966939529654_)"
   id="path9125" />
			<path
   style="fill:#046a38"
   d="m 317.56,185.57 v 16.3 c 0,0.23 -0.12,0.35 -0.37,0.35 h -2.15 c -0.21,0 -0.35,-0.12 -0.46,-0.33 l -4.87,-9.57 c -0.81,-1.57 -1.53,-3.28 -2.15,-4.72 h -0.05 c 0.07,1.46 0.12,2.87 0.12,4.39 v 9.92 c 0,0.21 -0.07,0.3 -0.28,0.3 h -1.51 c -0.23,0 -0.32,-0.09 -0.32,-0.3 v -16.27 c 0,-0.23 0.12,-0.35 0.37,-0.35 h 2.33 c 0.23,0 0.37,0.12 0.46,0.35 l 4.79,9.55 c 0.79,1.57 1.48,3.19 2.1,4.62 h 0.05 c -0.12,-1.46 -0.16,-2.89 -0.16,-4.44 v -9.8 c 0,-0.18 0.07,-0.28 0.3,-0.28 h 1.51 c 0.2,0 0.29,0.1 0.29,0.28"
   clip-path="url(#SVGID_00000049917698884121551000000013099094966939529654_)"
   id="path9127" />
			<path
   style="fill:#046a38"
   d="m 336.58,202.21 h -1.69 c -0.18,0 -0.28,-0.07 -0.32,-0.25 l -1.43,-4.48 h -6.13 l -1.43,4.48 c -0.05,0.18 -0.19,0.25 -0.37,0.25 h -1.55 c -0.18,0 -0.28,-0.14 -0.21,-0.32 l 5.2,-16.32 c 0.05,-0.21 0.16,-0.28 0.37,-0.28 h 2.1 c 0.23,0 0.32,0.07 0.39,0.28 l 5.25,16.32 c 0.08,0.19 -0.02,0.32 -0.18,0.32 m -4.07,-6.72 -0.97,-3.08 c -0.48,-1.57 -1.04,-3.35 -1.43,-4.85 h -0.05 c -0.42,1.5 -0.95,3.3 -1.46,4.9 l -0.97,3.03 z"
   clip-path="url(#SVGID_00000049917698884121551000000013099094966939529654_)"
   id="path9129" />
			<path
   style="fill:#046a38"
   d="m 354.68,185.57 v 16.3 c 0,0.23 -0.12,0.35 -0.37,0.35 h -2.15 c -0.21,0 -0.35,-0.12 -0.46,-0.33 l -4.87,-9.57 c -0.81,-1.57 -1.53,-3.28 -2.15,-4.72 h -0.05 c 0.07,1.46 0.12,2.87 0.12,4.39 v 9.92 c 0,0.21 -0.07,0.3 -0.28,0.3 h -1.51 c -0.23,0 -0.32,-0.09 -0.32,-0.3 v -16.27 c 0,-0.23 0.12,-0.35 0.37,-0.35 h 2.33 c 0.23,0 0.37,0.12 0.46,0.35 l 4.79,9.55 c 0.79,1.57 1.48,3.19 2.1,4.62 h 0.05 c -0.12,-1.46 -0.16,-2.89 -0.16,-4.44 v -9.8 c 0,-0.18 0.07,-0.28 0.3,-0.28 h 1.51 c 0.2,0 0.29,0.1 0.29,0.28"
   clip-path="url(#SVGID_00000049917698884121551000000013099094966939529654_)"
   id="path9131" />
			<path
   style="fill:#046a38"
   d="m 372.39,188.95 c 0.07,0.25 0,0.39 -0.18,0.46 l -1.36,0.42 c -0.23,0.09 -0.37,0.02 -0.44,-0.19 -0.55,-1.62 -1.48,-2.57 -3.4,-2.57 -2.22,0 -3.58,1.27 -3.58,4.04 v 5.27 c 0,2.78 1.41,4.05 3.58,4.05 2.01,0 3.05,-1.09 3.51,-2.73 0.07,-0.26 0.21,-0.3 0.44,-0.21 l 1.36,0.44 c 0.18,0.09 0.28,0.21 0.21,0.46 -0.71,2.47 -2.5,4.07 -5.55,4.07 -3.47,0 -5.73,-2.18 -5.73,-5.92 v -5.59 c 0,-3.75 2.27,-5.92 5.73,-5.92 2.96,0.01 4.65,1.49 5.41,3.92"
   clip-path="url(#SVGID_00000049917698884121551000000013099094966939529654_)"
   id="path9133" />
			<path
   style="fill:#046a38"
   d="m 380.76,185.57 v 16.37 c 0,0.18 -0.07,0.28 -0.3,0.28 h -1.55 c -0.23,0 -0.32,-0.09 -0.32,-0.28 v -16.37 c 0,-0.18 0.09,-0.28 0.32,-0.28 h 1.55 c 0.23,0 0.3,0.1 0.3,0.28"
   clip-path="url(#SVGID_00000049917698884121551000000013099094966939529654_)"
   id="path9135" />
			<path
   style="fill:#046a38"
   d="m 399.77,202.21 h -1.69 c -0.18,0 -0.28,-0.07 -0.32,-0.25 l -1.43,-4.48 h -6.13 l -1.43,4.48 c -0.05,0.18 -0.19,0.25 -0.37,0.25 h -1.55 c -0.18,0 -0.28,-0.14 -0.21,-0.32 l 5.2,-16.32 c 0.05,-0.21 0.16,-0.28 0.37,-0.28 h 2.1 c 0.23,0 0.32,0.07 0.39,0.28 l 5.25,16.32 c 0.07,0.19 -0.02,0.32 -0.18,0.32 m -4.07,-6.72 -0.97,-3.08 c -0.48,-1.57 -1.04,-3.35 -1.43,-4.85 h -0.05 c -0.42,1.5 -0.95,3.3 -1.46,4.9 l -0.97,3.03 z"
   clip-path="url(#SVGID_00000049917698884121551000000013099094966939529654_)"
   id="path9137" />
			<path
   style="fill:#046a38"
   d="m 408.01,185.57 v 14.61 h 6.89 c 0.21,0 0.28,0.12 0.28,0.3 v 1.46 c 0,0.16 -0.09,0.28 -0.28,0.28 h -8.76 c -0.21,0 -0.3,-0.09 -0.3,-0.28 v -16.37 c 0,-0.18 0.09,-0.28 0.32,-0.28 h 1.55 c 0.23,0 0.3,0.1 0.3,0.28"
   clip-path="url(#SVGID_00000049917698884121551000000013099094966939529654_)"
   id="path9139" />
			<path
   style="fill:#43b02a"
   d="m 221.69,66.93 c -0.96,-1.67 -0.02,-3.15 -0.02,-3.15 l 28.1,-48.7 c 1.22,-2.11 4.27,-2.11 5.49,0 l 7.5,12.99 c 0.56,0.98 0.57,2.18 0.01,3.16 l -28,48.47 c -1.23,2.11 -4.29,2.09 -5.49,-0.03 -0.01,0 -6.97,-11.67 -7.59,-12.74"
   clip-path="url(#SVGID_00000049917698884121551000000013099094966939529654_)"
   id="path9141" />
			<path
   style="fill:#43b02a"
   d="m 190.55,64.39 h 14.74 c 1.18,0.01 2.27,-0.62 2.85,-1.64 l 18.32,-31.72 c 0.58,-1 0.57,-2.24 -0.01,-3.25 L 218.8,15.2 c -1.25,-2.17 -4.38,-2.17 -5.64,-0.01 l -25.41,44.2 c -1.25,2.17 0.3,4.99 2.8,5"
   clip-path="url(#SVGID_00000049917698884121551000000013099094966939529654_)"
   id="path9143" />
			<path
   style="fill:#43b02a"
   d="m 259.88,59.2 7.18,-12.4 c 1.34,-2.31 4.67,-2.3 5.99,0.02 l 7.08,12.35 c 1.32,2.3 -0.34,5.16 -2.99,5.17 h -14.26 c -2.66,0.01 -4.34,-2.83 -3,-5.14"
   clip-path="url(#SVGID_00000049917698884121551000000013099094966939529654_)"
   id="path9145" />
			<path
   style="fill:#43b02a"
   d="m 247.43,118.12 v 33.29 h -9.23 v -33.56 c 0,-5.25 -2.17,-7.96 -6.69,-7.96 -4.43,0 -10.58,3.17 -14.84,7.24 v 0.72 33.56 h -9.23 v -33.56 c 0,-5.25 -2.17,-7.96 -6.69,-7.96 -4.61,0 -10.68,3.26 -14.84,7.33 v 34.19 h -9.23 v -45.23 h 9.23 v 6.87 c 3.71,-3.44 10.04,-7.96 17.64,-7.96 6.79,0 11.03,2.71 12.57,8.05 3.8,-3.53 10.68,-8.05 18.18,-8.05 8.52,0.01 13.13,4.62 13.13,13.03"
   clip-path="url(#SVGID_00000049917698884121551000000013099094966939529654_)"
   id="path9147" />
			<path
   style="fill:#43b02a"
   d="m 254.81,128.8 c 0,-15.19 9.86,-23.7 23.33,-23.7 13.48,0 23.25,8.5 23.25,23.7 0,15.2 -9.77,23.7 -23.25,23.7 -13.47,0 -23.33,-8.5 -23.33,-23.7 m 37.09,4.7 V 124 c 0,-10.76 -5.79,-15.11 -13.75,-15.11 -7.96,0 -13.75,4.34 -13.75,15.11 v 9.59 c 0,10.68 5.79,15.02 13.75,15.02 7.96,0 13.75,-4.44 13.75,-15.11"
   clip-path="url(#SVGID_00000049917698884121551000000013099094966939529654_)"
   id="path9149" />
			<path
   style="fill:#43b02a"
   d="m 349.56,117.85 v 33.56 h -9.23 v -33.56 c 0,-5.25 -2.26,-7.96 -6.97,-7.96 -4.79,0 -11.12,3.26 -15.46,7.42 v 34.1 h -9.23 v -45.22 h 9.23 v 6.96 c 3.8,-3.53 10.4,-8.05 18.18,-8.05 8.78,0 13.48,4.34 13.48,12.75"
   clip-path="url(#SVGID_00000049917698884121551000000013099094966939529654_)"
   id="path9151" />
			<path
   style="fill:#43b02a"
   d="m 366.39,129.43 v 4.16 c 0,9.86 5.34,15.02 15.83,15.02 6.06,0 12.57,-2.44 16.19,-6.51 l 0.53,-0.59 2.64,3.4 c -5.43,5.07 -11.85,7.6 -19.81,7.6 -15.29,0 -24.97,-8.59 -24.97,-23.7 0,-15.19 9.95,-23.7 23.34,-23.7 13.39,0 22.97,8.5 22.97,23.25 v 1.08 h -36.72 z m 0,-4.97 v 1.08 h 27.41 v -1.08 c 0,-10.76 -5.7,-15.56 -13.57,-15.56 -7.96,0 -13.84,4.79 -13.84,15.56"
   clip-path="url(#SVGID_00000049917698884121551000000013099094966939529654_)"
   id="path9153" />
			<path
   style="fill:#43b02a"
   d="m 448.1,106.18 -21.35,48.48 c -3.53,8.05 -7.51,13.21 -16.1,13.21 l -1.7,-4.46 0.89,0.02 c 6.69,0 10.4,-3.35 13.48,-10.85 l 0.45,-1.09 -20.26,-45.32 h 9.95 l 15.2,34.19 15.02,-34.19 h 4.42 z"
   clip-path="url(#SVGID_00000049917698884121551000000013099094966939529654_)"
   id="path9155" />
		</g>
	</g>
</g>
</svg>
