<svg width="81" height="75" viewBox="0 0 81 75" fill="none" xmlns="http://www.w3.org/2000/svg">
<path d="M80.0989 50.4683C79.4537 46.9254 75.6011 45.2948 72.5777 47.2979C68.1671 50.2211 63.7503 53.1411 59.4208 56.1833C58.0182 57.166 56.6498 57.6449 54.9698 57.4007C54.3651 57.3131 54.0814 57.2161 54.0347 56.515C53.8902 54.8527 53.1648 53.2952 51.9869 52.1182C50.8089 50.9411 49.2543 50.2203 47.5981 50.0834C43.2094 49.6984 38.8238 49.2414 34.4288 48.9754C31.8103 48.8444 29.2606 48.088 26.9917 46.7689C25.9818 46.1826 24.9594 45.6203 23.9246 45.082C23.2771 44.701 22.5931 44.3864 21.8829 44.1431C19.9566 43.5891 18.0054 43.1227 15.9419 42.5782V40.2308C15.9419 38.0901 14.8666 36.9915 12.7533 36.9884C9.74848 36.9884 6.74163 36.9884 3.73269 36.9884C1.61314 36.9884 0.537785 38.0838 0.534668 40.2183V58.9656C0.534668 62.6087 0.534668 66.2549 0.534668 69.901C0.534668 71.491 1.63184 72.7178 3.14982 72.7178C6.54734 72.7575 9.94382 72.7575 13.3393 72.7178C14.0222 72.6934 14.6703 72.4086 15.1515 71.9213C15.6327 71.4341 15.9109 70.781 15.9295 70.0951C15.9295 69.8134 15.9295 69.5317 15.9295 69.1562C16.3253 69.3001 16.6402 69.4065 16.9487 69.5255L25.4488 72.7491C26.3096 73.0318 27.1555 73.3588 27.9829 73.7288C30.5419 75.0182 33.1789 74.9807 35.9374 74.5581C42.666 73.5024 49.407 72.5227 56.1605 71.6193C59.3055 71.1968 62.0204 70.0544 64.3114 67.8197C66.0226 66.1516 67.8492 64.6055 69.6103 63.003C72.559 60.3406 75.5066 57.6762 78.4532 55.0096C79.8091 53.789 80.4294 52.2742 80.0989 50.4683ZM76.9383 53.2319C74.6972 55.285 72.4343 57.3006 70.1807 59.3506C67.6341 61.6478 65.0501 63.9013 62.5596 66.2611C60.6894 68.0357 58.5076 68.9308 55.9797 69.2813C48.4989 70.3142 41.0555 71.4252 33.5935 72.5019C32.5451 72.6738 31.4702 72.5659 30.4765 72.1889C25.8592 70.4154 21.2346 68.6606 16.6027 66.9246C16.3832 66.8729 16.1913 66.7395 16.0658 66.5513C15.9402 66.3631 15.8904 66.1342 15.9264 65.9106C15.9482 61.9014 15.9264 57.8921 15.9264 53.8798C15.9383 53.646 15.9331 53.4117 15.9108 53.1787C15.8895 52.8893 15.761 52.6185 15.5508 52.4195C15.3405 52.2204 15.0637 52.1077 14.7747 52.1033C14.4858 52.099 14.2057 52.2035 13.9897 52.3961C13.7736 52.5888 13.6372 52.8557 13.6073 53.1443C13.5808 53.377 13.5746 53.6115 13.5886 53.8453V69.3909C13.5886 70.3987 13.5699 70.4206 12.6099 70.4206C9.67991 70.4206 6.74994 70.4018 3.81997 70.4362C3.07812 70.4362 2.84124 70.2109 2.84124 69.4535C2.8641 59.7408 2.8641 50.0291 2.84124 40.3185C2.84124 39.5392 3.11865 39.3326 3.83867 39.3389C6.76864 39.3681 9.69862 39.3681 12.6286 39.3389C13.3735 39.3389 13.6198 39.583 13.6042 40.3404C13.5606 42.6564 13.5886 44.9756 13.5886 47.2916C13.5886 47.4763 13.5886 47.6578 13.5886 47.8393C13.6167 48.6311 14.0593 49.1319 14.7357 49.1413C15.4121 49.1507 15.9045 48.6437 15.9201 47.8018C15.9357 46.9598 15.9201 46.143 15.9201 45.2228C18.2215 45.3151 20.4739 45.918 22.5157 46.988C23.6409 47.5795 24.7568 48.1867 25.854 48.8221C28.4646 50.3314 31.3976 51.19 34.407 51.3259C38.7521 51.5669 43.0847 52.0363 47.4204 52.4244C48.6242 52.5275 49.7414 53.0944 50.5381 54.0063C51.3347 54.9183 51.7489 56.1045 51.6938 57.3162C50.8709 57.3788 50.0325 57.4508 49.2002 57.5009C42.9133 57.889 36.6232 58.2646 30.3393 58.6652C29.9008 58.7121 29.4575 58.6572 29.0435 58.5047C28.6295 58.3522 28.2559 58.1062 27.9517 57.7857C27.4 57.2224 26.7049 57.1942 26.2249 57.6511C25.7449 58.1081 25.7542 58.853 26.3246 59.4476C27.3034 60.4679 28.491 61.0782 29.9216 61.0125C34.8901 60.7475 39.8586 60.4638 44.8271 60.1612C49.0163 59.9108 53.1931 59.4038 57.4041 59.8482C57.9144 59.8395 58.4088 59.6686 58.8162 59.36C63.741 56.08 68.6409 52.7687 73.5626 49.4856C74.0024 49.1712 74.5023 48.9516 75.0307 48.8408C75.5603 48.7515 76.1043 48.8433 76.5757 49.1016C77.0471 49.3598 77.4185 49.7695 77.6303 50.2649C77.8561 50.767 77.9107 51.3298 77.7856 51.8663C77.6605 52.4027 77.3627 52.8827 76.9383 53.2319Z" fill="#05C8E8"/>
<path d="M60.5178 10.6389C57.0673 8.98954 55.088 6.25725 54.5425 2.45772C54.2994 0.758251 53.5233 0.0697021 51.7902 0.0697021H40.2823V0.213671C36.3674 0.213671 32.4555 0.213671 28.5406 0.213671C27.1255 0.213671 26.1904 0.971076 26.047 2.26993C25.6013 6.3668 23.5347 9.27748 19.813 11.0333C18.5662 11.6217 18.0488 12.6608 18.1984 14.0285C18.5599 17.3652 19.31 20.6478 20.4333 23.809C23.8963 33.5739 29.9838 41.0384 39.3908 45.5953C40.1576 45.9678 40.8558 46.0272 41.6039 45.5953C42.6387 45.0069 43.7203 44.4968 44.7209 43.8552C55.6303 36.8883 60.8575 26.5069 62.4347 13.9627C62.6654 12.232 62.1012 11.3963 60.5178 10.6389ZM60.1344 13.8031C58.5292 26.028 53.3737 36.0401 42.4642 42.4906C40.5285 43.6361 40.5223 43.6236 38.5835 42.5344C29.8279 37.6207 24.5571 30.0153 21.8702 20.4914C21.2655 18.3507 20.957 16.1098 20.5705 13.9189C20.5668 13.7549 20.6035 13.5924 20.6775 13.4461C20.7515 13.2997 20.8603 13.174 20.9944 13.0801C25.2459 11.002 27.6678 7.61557 28.3224 2.92718C28.338 2.82703 28.366 2.73001 28.4128 2.52344H52.1611C52.2453 2.95535 52.3232 3.46237 52.4386 3.96313C53.3737 8.00053 55.7052 10.9143 59.4206 12.7014C59.9193 12.9456 60.231 13.1772 60.1344 13.8031Z" fill="#05C8E8"/>
<path d="M8.06541 60.0486C7.52083 60.0373 6.9795 60.1356 6.47331 60.3375C5.96712 60.5395 5.5063 60.8411 5.11796 61.2246C4.72963 61.6082 4.42163 62.0658 4.21212 62.5706C4.0026 63.0755 3.89579 63.6173 3.89798 64.1642C3.89368 65.2537 4.31619 66.3011 5.07429 67.0805C5.8324 67.8598 6.8653 68.3086 7.95007 68.33C9.05031 68.3325 10.1071 67.8991 10.8909 67.1238C11.6747 66.3485 12.1222 65.294 12.1362 64.1893C12.1371 63.1 11.7102 62.0543 10.9481 61.2791C10.186 60.5039 9.15015 60.0618 8.06541 60.0486ZM8.02176 65.9952C7.55267 65.9944 7.10278 65.808 6.76962 65.4764C6.43646 65.1448 6.24688 64.6947 6.24196 64.2237C6.23363 63.9907 6.27184 63.7584 6.35433 63.5405C6.43683 63.3226 6.56194 63.1235 6.7223 62.9549C6.88265 62.7863 7.07501 62.6516 7.28801 62.5588C7.50102 62.4661 7.73037 62.4171 7.96254 62.4147C8.2015 62.4072 8.43954 62.4479 8.66254 62.5344C8.88554 62.621 9.08897 62.7516 9.26077 62.9185C9.43256 63.0855 9.56922 63.2854 9.66265 63.5063C9.75608 63.7273 9.80438 63.9649 9.80468 64.2049C9.78737 64.6721 9.59332 65.1151 9.26205 65.4437C8.93079 65.7722 8.48724 65.9616 8.02176 65.9732V65.9952Z" fill="#05C8E8"/>
<path d="M57.8002 15.9783C57.5415 17.0643 57.367 18.1691 57.1114 19.2583C56.9275 20.047 56.3633 20.4445 55.7243 20.3162C55.0261 20.1784 54.6708 19.5869 54.8329 18.7513C55.0043 17.8593 55.2505 16.9798 55.3846 16.0816C55.3973 15.9302 55.3759 15.7778 55.322 15.6358C55.268 15.4939 55.1829 15.3659 55.0729 15.2616C52.2537 13.3131 50.0966 10.5442 48.8919 7.32761C48.8198 7.19439 48.7166 7.08067 48.5913 6.99619C48.4659 6.91171 48.322 6.85898 48.1719 6.8425C42.9104 6.8425 37.6458 6.90197 32.3843 6.92075C32.2201 6.90597 32.0564 6.95428 31.9262 7.05593C31.7961 7.15757 31.7091 7.30499 31.683 7.46845C30.5431 10.6809 28.4419 13.4609 25.6672 15.4275C25.5497 15.5409 25.4591 15.6794 25.4019 15.8327C25.3447 15.9859 25.3225 16.1501 25.3368 16.3132C25.4677 17.1864 25.7171 18.0408 25.901 18.9046C26.0849 19.7684 25.742 20.3349 25.0625 20.4914C24.4391 20.6291 23.8375 20.2223 23.6505 19.4617C23.3388 18.2255 23.0739 16.9798 22.837 15.7279C22.7657 15.3916 22.8017 15.0413 22.9399 14.7267C23.0781 14.4121 23.3115 14.1492 23.6069 13.9752C26.5831 12.1073 28.7794 9.21438 29.7847 5.83785C30.0559 4.96464 30.6949 4.58594 31.7266 4.58594C34.5787 4.58594 37.4307 4.58594 40.2828 4.58594V4.47327C43.0818 4.47327 45.8871 4.47327 48.6986 4.47327C50.0202 4.47327 50.5408 4.83632 50.9522 6.06006C51.9492 9.1344 53.9844 11.7625 56.7062 13.4901C57.6382 14.1098 58.0683 14.8422 57.8002 15.9783Z" fill="#05C8E8"/>
<path d="M55.2596 24.8355C54.0478 27.7971 52.4278 30.5732 50.447 33.0824C48.0375 36.1255 45.0683 38.6755 41.7007 40.5939C41.314 40.7887 40.9165 40.9611 40.5101 41.1103C40.126 40.9825 39.7502 40.8309 39.3848 40.6565C32.9607 37.0729 28.4754 31.7585 25.5672 25.0327C25.2181 24.2283 25.4051 23.6118 26.0535 23.3019C26.7018 22.9921 27.3532 23.2769 27.7117 24.1063C29.4666 28.175 31.8417 31.8055 35.1675 34.7475C36.6201 36.0244 38.2845 37.0635 39.843 38.2309C40.3075 38.5814 40.6784 38.5439 41.1646 38.2309C46.4729 34.9415 50.2569 30.3501 52.7879 24.6821C52.9032 24.4192 53.0061 24.1532 53.1276 23.8966C53.4767 23.1673 54.0627 22.8919 54.6861 23.1548C55.3095 23.4177 55.5838 24.0562 55.2596 24.8355Z" fill="#05C8E8"/>
<path d="M48.3244 16.285C46.8262 18.5634 45.3248 20.8409 43.8203 23.1173C42.879 24.5465 41.9356 25.9768 40.9901 27.4082C40.3106 28.4285 39.6405 28.513 38.7646 27.6867C37.2373 26.2408 35.7131 24.7948 34.2013 23.3332C33.6434 22.7949 33.6185 22.0813 34.0798 21.5993C34.5411 21.1173 35.2019 21.1142 35.8097 21.6431C36.0029 21.8121 36.1868 21.9968 36.377 22.1752L39.6093 25.2518L45.5004 16.3257C45.7872 15.8938 46.0708 15.4587 46.3607 15.0268C46.956 14.1317 47.5576 13.9032 48.2028 14.3226C48.8481 14.742 48.9042 15.4024 48.3244 16.285Z" fill="#05C8E8"/>
</svg>
