<svg width="80" height="80" viewBox="0 0 80 80" fill="none" xmlns="http://www.w3.org/2000/svg">
<g clip-path="url(#clip0_116_2770)">
<path d="M79.5193 3.98045C79.5193 2.95104 79.1111 1.96361 78.3843 1.23455C77.6574 0.50549 76.6711 0.0942669 75.6416 0.0909963C73.8433 0.0631925 72.042 0.0601032 70.2437 0.0909963C69.5567 0.0847433 68.8814 0.269486 68.2932 0.62461C67.7051 0.979734 67.2272 1.49127 66.9129 2.10214C66.8264 2.30754 66.6751 2.47906 66.4821 2.5906C66.2892 2.70213 66.065 2.74757 65.8438 2.72C57.1553 2.72 48.4637 2.72 39.7752 2.70147C37.7363 2.67883 35.7343 3.24523 34.0096 4.33263C30.7808 6.34068 27.521 8.29622 24.2767 10.2734C20.6328 12.4915 16.992 14.7096 13.3543 16.9278C11.3367 18.1635 10.5735 20.3754 11.3861 22.4453C12.2482 24.6109 14.581 25.7107 16.9107 24.9878C18.0817 24.6325 19.2342 24.2216 20.6184 23.7521C17.748 27.4345 15.9837 31.3611 15.3132 35.7664C14.6434 40.1547 15.1477 44.6421 16.7747 48.7724C15.8045 48.7724 14.9208 48.7446 14.0619 48.7724C13.888 48.795 13.7115 48.7578 13.5616 48.6669C13.4117 48.5759 13.2972 48.4366 13.2369 48.272C12.9364 47.6396 12.4629 47.1052 11.8712 46.7307C11.2796 46.3562 10.594 46.1569 9.89373 46.1558C8.03985 46.1156 6.18597 46.1095 4.33209 46.1558C3.82707 46.163 3.32844 46.2699 2.8648 46.4702C2.40117 46.6705 1.98164 46.9604 1.63028 47.3232C1.27893 47.686 1.00266 48.1145 0.817306 48.5843C0.631957 49.054 0.541179 49.5558 0.550177 50.0607C0.539878 58.4142 0.534728 66.7677 0.534728 75.1212C0.531866 75.6371 0.631286 76.1485 0.827242 76.6258C1.0232 77.1031 1.31181 77.5368 1.67639 77.9019C2.04097 78.267 2.47431 78.5562 2.95135 78.7529C3.42839 78.9496 3.93968 79.0498 4.45568 79.0477C6.22923 79.0755 8.00277 79.0786 9.77632 79.0477C10.4636 79.0601 11.1408 78.8811 11.7322 78.5309C12.3237 78.1807 12.8061 77.6729 13.1257 77.0644C13.2194 76.8498 13.3796 76.6709 13.5826 76.5541C13.7856 76.4373 14.0208 76.3888 14.2534 76.4156C22.9049 76.4342 31.581 76.4156 40.2448 76.4373C42.3097 76.4611 44.3375 75.8883 46.0846 74.7876C49.6656 72.5695 53.2745 70.4038 56.871 68.2104C60.1668 66.2065 63.4554 64.1995 66.7368 62.1893C68.3496 61.2008 69.1715 59.7395 68.946 57.8643C68.603 54.9727 65.9056 53.2983 63.1155 54.1757C61.9569 54.5371 60.8074 54.9325 59.5159 55.3589C65.266 47.6109 66.502 39.3346 63.3318 30.3694C64.2309 30.3694 65.0961 30.3941 65.9581 30.3694C66.1442 30.3454 66.3329 30.3848 66.4938 30.4812C66.6547 30.5776 66.7784 30.7254 66.8449 30.9007C67.1416 31.5198 67.6062 32.0432 68.1858 32.4113C68.7653 32.7794 69.4366 32.9775 70.1232 32.9829C71.9987 33.0262 73.8773 33.0324 75.7528 32.9829C76.7652 32.9659 77.7297 32.5488 78.4354 31.8229C79.1412 31.097 79.5309 30.1212 79.5193 29.1089C79.5419 20.7369 79.5419 12.3607 79.5193 3.98045ZM11.0586 62.5477C11.0586 66.5782 11.0586 70.6108 11.0586 74.6455C11.0586 76.0202 10.6507 76.4218 9.26341 76.4249C7.77104 76.4249 6.28176 76.4249 4.79247 76.4249C3.66778 76.4249 3.17651 75.9461 3.17651 74.8401C3.17651 66.6967 3.17651 58.5532 3.17651 50.4098C3.17651 49.2729 3.6338 48.8126 4.75539 48.8033C6.24777 48.8033 7.73705 48.8033 9.22633 48.8033C10.7156 48.8033 11.0586 49.1679 11.0617 50.6075L11.0586 62.5477ZM63.5852 56.7861C63.9735 56.64 64.3884 56.5779 64.8026 56.6039C65.1531 56.6302 65.4858 56.7689 65.7513 56.9993C66.0168 57.2297 66.201 57.5395 66.2764 57.8828C66.3881 58.2296 66.3837 58.6032 66.2638 58.9472C66.1439 59.2912 65.9151 59.5867 65.6121 59.7889C65.1115 60.1504 64.5708 60.4501 64.0456 60.7714C57.5529 64.7298 51.0643 68.6872 44.5798 72.6436C43.3068 73.4295 41.8367 73.8377 40.3406 73.8206C31.7819 73.8041 23.2221 73.8041 14.6613 73.8206H13.7405V51.4941C16.2587 51.2068 18.5792 51.6239 20.6864 53.0172C21.8204 53.7679 22.9389 54.5618 24.0852 55.2631C25.647 56.2275 27.453 56.7229 29.2884 56.6904C31.3462 56.6904 33.4009 56.6626 35.468 56.6904C36.2436 56.6935 37.0066 56.8863 37.6906 57.252C38.3745 57.6176 38.9587 58.1449 39.392 58.788C39.6639 59.1316 39.8456 59.5376 39.9206 59.9692C39.9956 60.4008 39.9616 60.8444 39.8215 61.2595C39.7761 61.4707 39.6532 61.6573 39.4771 61.7825C39.301 61.9077 39.0843 61.9625 38.8699 61.936C35.9655 61.9082 33.058 61.9144 30.1535 61.936C27.5651 61.9234 25.0408 62.7409 22.9512 64.2685C22.1417 64.8523 21.9501 65.5629 22.4074 66.2364C22.8647 66.9098 23.6711 66.9901 24.4961 66.3939C26.198 65.1679 28.2509 64.5253 30.3482 64.5619C32.6625 64.5619 34.9829 64.494 37.2879 64.5836C39.3148 64.6353 41.3334 64.3062 43.2388 63.6135C50.0086 61.2996 56.8062 59.0506 63.5975 56.7861H63.5852ZM54.0068 57.024C53.8135 57.1902 53.5943 57.3238 53.3579 57.4194C49.8562 58.5996 46.3544 59.7704 42.8526 60.932C42.8036 60.9411 42.7533 60.9411 42.7043 60.932C42.2903 57.1692 40.1305 54.7225 36.5834 54.1602C35.4526 53.981 34.2784 54.0737 33.1228 54.0583C31.6058 54.0366 30.0887 54.0892 28.5747 54.0057C26.9649 53.9192 25.593 53.1407 24.2675 52.2757C22.942 51.4107 21.6597 50.6446 20.3651 49.8043C20.1605 49.6607 19.9949 49.4686 19.8831 49.2451C15.2823 40.2058 18.0292 28.2594 26.1028 22.0807C26.2558 21.9449 26.4288 21.8334 26.6157 21.7502C30.1875 20.5484 33.7624 19.3591 37.4053 18.145C37.4053 20.4681 38.4249 22.229 40.1861 23.5822C41.3854 24.5304 42.8655 25.0541 44.3944 25.0712C46.3719 25.0959 48.3525 25.1175 50.3299 25.0712C52.1395 25.0311 53.9161 25.5594 55.4096 26.5819C56.8432 27.5303 58.3171 28.4108 59.76 29.3437C59.9619 29.4912 60.1225 29.688 60.2266 29.9153C64.7655 39.0627 62.0866 50.7342 54.0037 57.024H54.0068ZM66.3289 27.6539C64.302 27.8423 62.3122 27.7311 60.5077 26.7271C59.4514 26.1457 58.4319 25.4998 57.455 24.7932C55.1902 23.1558 52.7214 22.2908 49.8943 22.4298C48.1238 22.5194 46.3472 22.4731 44.5736 22.4298C43.8236 22.4327 43.0843 22.251 42.421 21.9008C41.7577 21.5507 41.1908 21.0427 40.7701 20.4218C40.4126 19.8954 40.1928 19.2879 40.1305 18.6547C40.0255 17.592 40.4827 17.1904 41.5364 17.1904C44.3388 17.1904 47.1413 17.1904 49.9406 17.1904C52.5311 17.2031 55.0567 16.3809 57.1429 14.8456C57.9556 14.2555 58.1502 13.5419 57.696 12.8777C57.2418 12.2135 56.4447 12.1115 55.6104 12.7109C53.8884 13.9527 51.8102 14.6031 49.6873 14.5644C46.7828 14.5644 43.8754 14.5366 40.974 14.5799C40.1806 14.5893 39.3931 14.7185 38.6381 14.963C31.2226 17.4097 23.838 19.9059 16.441 22.3773C15.2051 22.7913 14.238 22.4422 13.8549 21.4505C13.5088 20.5639 13.8549 19.7143 14.8158 19.1181C18.1898 17.0586 21.567 14.999 24.9472 12.9395C28.5005 10.7769 32.0527 8.61442 35.604 6.4519C36.7601 5.7235 38.0996 5.33885 39.4662 5.34283H65.6059C65.8315 5.34283 66.057 5.36446 66.3258 5.37991L66.3289 27.6539ZM76.896 28.8C76.896 29.838 76.4171 30.323 75.3944 30.3447C73.7795 30.357 72.1614 30.357 70.5403 30.3447C69.4558 30.3447 69.0171 29.8844 69.014 28.7784C69.014 24.719 69.014 20.6597 69.014 16.6003C69.014 12.5409 69.014 8.50835 69.014 4.50254C69.014 3.12162 69.4187 2.72309 70.806 2.72C72.2984 2.72 73.7877 2.72 75.277 2.72C76.4048 2.72 76.896 3.19576 76.896 4.30173C76.9022 12.4719 76.9022 20.638 76.896 28.8Z" fill="#05C8E8"/>
<path d="M45.93 40.2463C45.0247 39.5388 43.8753 39.131 42.8093 38.646C42.3488 38.4831 41.874 38.3642 41.3911 38.2907V31.8897C43.5539 32.0627 44.864 33.1872 45.3182 35.186C45.3783 35.5051 45.5519 35.7916 45.8069 35.9927C46.062 36.1937 46.3812 36.2956 46.7055 36.2796C47.0424 36.255 47.3565 36.1004 47.5813 35.8484C47.8062 35.5965 47.9243 35.267 47.9106 34.9296C47.9181 34.5957 47.8817 34.2623 47.8024 33.9379C47.1845 31.519 45.4171 30.2091 43.1677 29.5603C42.0214 29.2298 41.0667 29.0506 41.2799 27.4905C41.3664 26.851 40.6619 26.4123 40.0038 26.437C39.7041 26.4254 39.4109 26.5265 39.1821 26.7203C38.9533 26.9142 38.8055 27.1868 38.7678 27.4843C38.7087 27.7895 38.6931 28.1015 38.7215 28.4111C38.7709 28.9425 38.601 29.1711 38.0325 29.2638C36.5768 29.4857 35.2105 30.1046 34.0837 31.0525C31.4852 33.2582 31.4975 36.7523 34.1208 38.9302C35.1865 39.8326 36.4799 40.4247 37.8594 40.6417C38.5886 40.7529 38.7524 41.0526 38.7308 41.7384C38.6782 43.3047 38.7308 44.8741 38.7308 46.4404V47.2652C36.5401 47.0891 35.2269 45.9677 34.7696 43.9658C34.7102 43.6464 34.5367 43.3595 34.2816 43.1583C34.0264 42.9571 33.7068 42.8555 33.3823 42.8722C33.0455 42.8968 32.7314 43.0514 32.5065 43.3033C32.2816 43.5553 32.1636 43.8848 32.1773 44.2222C32.1687 44.556 32.2041 44.8894 32.2824 45.2139C32.9003 47.6328 34.6708 48.9211 36.9171 49.5915C38.0541 49.922 39.0305 50.0857 38.8049 51.6613C38.7153 52.2946 39.4229 52.7426 40.0779 52.7148C40.3773 52.725 40.6697 52.6234 40.8982 52.4298C41.1267 52.2362 41.2748 51.9644 41.3138 51.6675C41.3724 51.3914 41.3881 51.108 41.3602 50.8272C41.2984 50.234 41.4838 49.9838 42.1265 49.8819C43.5833 49.6587 44.9466 49.0254 46.0567 48.0561C48.5903 45.8318 48.5872 42.3254 45.93 40.2463ZM38.6597 38.0838C37.2168 37.8459 35.9932 37.3423 35.159 36.1591C34.8834 35.7816 34.7459 35.3208 34.7695 34.8541C34.7931 34.3873 34.9764 33.9428 35.2887 33.595C36.1384 32.5384 37.3095 32.0905 38.6597 31.831V38.0838ZM44.8795 45.3684C44.1132 46.6041 42.834 47.0459 41.4065 47.3239V41.1885C42.8155 41.0186 44.9073 42.2976 45.1792 43.626C45.2867 44.222 45.1806 44.8367 44.8795 45.3622V45.3684Z" fill="#05C8E8"/>
<path d="M59.8219 39.582C59.7986 43.6563 58.5226 47.6249 56.1669 50.9496C53.8112 54.2742 50.4898 56.7941 46.6532 58.1673C45.683 58.5102 44.9384 58.2569 44.6665 57.4908C44.3946 56.7246 44.7622 56.0759 45.751 55.6928C51.9306 53.2769 55.7032 48.8191 56.9113 42.2759C57.4244 39.3238 57.1199 36.2875 56.0307 33.496C55.9504 33.2798 55.8454 33.0697 55.7867 32.8504C55.7271 32.6865 55.7011 32.5122 55.7102 32.3381C55.7193 32.1639 55.7634 31.9934 55.8398 31.8366C55.9162 31.6798 56.0233 31.54 56.1549 31.4254C56.2864 31.3109 56.4396 31.2239 56.6054 31.1698C56.7622 31.1064 56.9306 31.0764 57.0996 31.0818C57.2687 31.0872 57.4347 31.1278 57.5871 31.2011C57.7396 31.2744 57.875 31.3787 57.9847 31.5074C58.0945 31.6361 58.1762 31.7862 58.2245 31.9483C58.7467 33.6567 59.2071 35.3898 59.6056 37.1322C59.7371 37.9425 59.8094 38.7612 59.8219 39.582Z" fill="#05C8E8"/>
<path d="M34.2818 23.4743C32.1348 24.2423 30.1631 25.4318 28.4828 26.973C26.8025 28.5141 25.4474 30.3758 24.4973 32.4483C23.5472 34.5209 23.0214 36.7625 22.9506 39.0413C22.8799 41.32 23.2658 43.5899 24.0855 45.7174C24.1504 45.8842 24.2276 46.048 24.2801 46.2179C24.5273 47.0273 24.2091 47.7193 23.483 47.9757C22.7569 48.2321 22.1451 47.9047 21.8206 47.1354C20.7979 44.7165 20.3159 42.1925 20.3066 40.6478C20.3066 31.2347 25.6458 23.6844 33.4661 20.9658C34.4641 20.6167 35.2304 20.9287 35.4497 21.7659C35.6351 22.5445 35.2613 23.1252 34.2818 23.4743Z" fill="#05C8E8"/>
</g>
<defs>
<clipPath id="clip0_116_2770">
<rect width="79" height="79" fill="white" transform="translate(0.534668 0.0697021)"/>
</clipPath>
</defs>
</svg>
