<svg width="81" height="81" viewBox="0 0 81 81" fill="none" xmlns="http://www.w3.org/2000/svg">
<path d="M77.6833 66.513C71.3412 60.1157 64.9805 53.7258 58.6011 47.3431C58.492 47.2336 58.386 47.1178 58.2675 47.0302C57.4976 46.3604 56.709 46.3447 55.9797 47.0302C55.6594 47.3763 55.3636 47.7444 55.0944 48.1318L51.4195 44.4356C54.3677 40.2489 56.12 35.3327 56.487 30.2184C56.854 25.1042 55.8218 19.9865 53.5018 15.4186C51.1819 10.8508 47.6625 7.00661 43.3243 4.30172C38.986 1.59683 33.9939 0.13414 28.8877 0.0717828C23.7815 0.0094257 18.7555 1.34978 14.353 3.94793C9.95052 6.54607 6.3391 10.3032 3.90921 14.813C1.47931 19.3228 0.32339 24.4138 0.566414 29.5355C0.809437 34.6572 2.44216 39.6148 5.28806 43.8722C13.3704 56.0783 31.1591 60.8481 44.6993 51.2147L48.2215 54.7669C48.103 54.8953 47.9503 55.0799 47.7882 55.2333C46.4261 56.6135 46.4292 57.2175 47.8038 58.6009C54.0565 64.8792 60.3133 71.1513 66.5743 77.4171C67.349 78.1792 68.2338 78.8197 69.1988 79.3168C73.1013 81.3355 78.4126 79.0258 79.7155 74.8162C80.7099 71.6301 80.0148 68.8572 77.6833 66.513ZM28.4535 53.1833C14.8229 53.1833 3.63605 41.9161 3.63294 28.189C3.63296 23.2425 5.09469 18.4072 7.83307 14.2954C10.5715 10.1836 14.4633 6.98003 19.016 5.0904C23.5686 3.20077 28.5773 2.71002 33.4079 3.68028C38.2385 4.65055 42.6737 7.03818 46.1521 10.5409C49.6305 14.0436 51.9956 18.5039 52.9479 23.3571C53.9003 28.2102 53.3971 33.238 51.502 37.8039C49.607 42.3697 46.4054 46.2683 42.3024 49.006C38.1995 51.7438 33.3798 53.1975 28.4535 53.1833ZM47.4329 49.1146L49.3436 47.1741L52.5603 50.3978L50.5779 52.2944L47.4329 49.1146ZM54.9137 61.1704L50.74 56.9797C52.8783 54.8358 55.0477 52.6575 57.1672 50.5261L61.3378 54.72C59.2151 56.8388 57.0363 59.0234 54.9043 61.1642L54.9137 61.1704ZM75.8692 75.3639C75.0964 76.2399 74.023 76.7909 72.8633 76.9069C71.7037 77.023 70.5431 76.6955 69.6134 75.9899C69.4451 75.8667 69.2848 75.7329 69.1334 75.5893C65.1592 71.5926 61.185 67.5896 57.2608 63.6367L63.8064 57.0172C63.8786 57.0735 63.9473 57.1341 64.0122 57.1988C67.8273 61.0275 71.6405 64.8584 75.4515 68.6913C77.4526 70.71 77.596 73.3546 75.8598 75.3577L75.8692 75.3639Z" fill="#05C8E8"/>
<path d="M28.5222 6.31507C24.2125 6.31321 19.999 7.59478 16.4147 9.99767C12.8304 12.4006 10.0364 15.8168 8.38599 19.8144C6.73558 23.8119 6.30296 28.2111 7.14284 32.4555C7.98272 36.7 10.0574 40.599 13.1044 43.6594C16.1514 46.7197 20.0339 48.804 24.2608 49.6485C28.4876 50.4931 32.869 50.0599 36.8507 48.4039C40.8324 46.7479 44.2355 43.9434 46.6296 40.3451C49.0237 36.7468 50.3012 32.5164 50.3006 28.189C50.2875 22.3928 47.9889 16.8377 43.9077 12.7386C39.8265 8.63949 34.2947 6.32994 28.5222 6.31507ZM28.5222 46.9363C24.828 46.9407 21.2156 45.8445 18.1421 43.7866C15.0685 41.7287 12.6721 38.8016 11.2559 35.3756C9.83981 31.9496 9.46768 28.1788 10.1866 24.5404C10.9056 20.902 12.6833 17.5596 15.2949 14.936C17.9064 12.3124 21.2343 10.5258 24.8575 9.80202C28.4807 9.07829 32.2363 9.45005 35.649 10.8703C39.0617 12.2905 41.9781 14.6953 44.0291 17.7804C46.0802 20.8655 47.1736 24.4922 47.1712 28.2015C47.158 33.1613 45.1912 37.9145 41.7002 41.4234C38.2091 44.9323 33.4773 46.9119 28.5378 46.9301L28.5222 46.9363Z" fill="#05C8E8"/>
<path d="M30.0713 14.1394C30.0635 14.5207 29.9173 14.8859 29.6602 15.1666C29.403 15.4473 29.0527 15.624 28.6749 15.6636C28.0858 15.7449 27.4873 15.7418 26.8982 15.8295C22.1853 16.5399 18.9219 19.147 17.0111 23.5036C16.8958 23.7665 16.8023 24.0388 16.6683 24.2892C16.2412 25.0779 15.4682 25.3815 14.7108 25.0685C14.5187 25.0027 14.3425 24.8971 14.1936 24.7585C14.0447 24.62 13.9265 24.4516 13.8466 24.2642C13.7666 24.0768 13.7268 23.8747 13.7296 23.6709C13.7325 23.4671 13.7779 23.2662 13.863 23.0811C14.6111 21.5162 15.303 19.8825 16.3566 18.5304C19.2647 14.7747 23.1921 12.8437 27.9268 12.5839C28.1851 12.5635 28.4447 12.5635 28.703 12.5839C29.0809 12.6305 29.4288 12.8145 29.6809 13.1011C29.933 13.3877 30.0719 13.757 30.0713 14.1394Z" fill="#05C8E8"/>
<path d="M16.1851 29.8164C16.1843 30.221 16.0302 30.6102 15.7541 30.9049C15.478 31.1996 15.1005 31.3778 14.6983 31.4032C14.2963 31.4121 13.9065 31.2647 13.6102 30.9917C13.314 30.7187 13.1343 30.3414 13.1086 29.9385C13.0964 29.7317 13.1261 29.5246 13.1961 29.3297C13.266 29.1349 13.3747 28.9563 13.5155 28.805C13.6564 28.6536 13.8264 28.5326 14.0152 28.4493C14.2041 28.366 14.4079 28.3221 14.6142 28.3204C15.018 28.3167 15.4075 28.4707 15.7006 28.7498C15.9937 29.0288 16.1674 29.4112 16.1851 29.8164Z" fill="#05C8E8"/>
</svg>
