<svg xmlns="http://www.w3.org/2000/svg" xmlns:xlink="http://www.w3.org/1999/xlink" viewBox="0 0 430 430" width="430" height="430" preserveAspectRatio="xMidYMid meet" style="width: 100%; height: 100%; transform: translate3d(0px, 0px, 0px); content-visibility: visible;"><defs><clipPath id="__lottie_element_10"><rect width="430" height="430" x="0" y="0"/></clipPath><clipPath id="__lottie_element_12"><path d="M0,0 L430,0 L430,430 L0,430z"/></clipPath><filter id="__lottie_element_18" x="-100%" y="-100%" width="300%" height="300%"><feGaussianBlur result="filter_result_0" stdDeviation="52.5 52.5" edgeMode="wrap"/></filter><g id="__lottie_element_19"><g clip-path="url(#__lottie_element_20)" transform="matrix(1,0,0,1,0,0)" opacity="1" style="display: block;"><g transform="matrix(1,0,0,1,204.6619873046875,235.8050079345703)" opacity="1" style="display: block;"><g opacity="1" transform="matrix(1,0,0,1,0,0)"><path stroke-linecap="round" stroke-linejoin="round" fill-opacity="0" class="primary" stroke="rgb(18,19,49)" stroke-opacity="1" stroke-width="12" d=" M-65.5979995727539,-64.29399871826172 C-58.4109992980957,-71.48100280761719 -23.506999969482422,-48.23099899291992 12.362000465393066,-12.362000465393066 C48.23099899291992,23.506999969482422 71.48100280761719,58.4109992980957 64.29399871826172,65.5979995727539"/></g></g><g transform="matrix(1,0,0,1,94.36499786376953,124.04100036621094)" opacity="1" style="display: block;"><g opacity="1" transform="matrix(1,0,0,1,0,0)"><path stroke-linecap="round" stroke-linejoin="round" fill-opacity="0" class="secondary" stroke="rgb(8,168,138)" stroke-opacity="1" stroke-width="12" d=" M85.82099914550781,109.15699768066406 C110.58499908447266,59.676998138427734 78.71800231933594,-63.327999114990234 -11.373000144958496,-38.49300003051758 C-11.79699993133545,-38.375999450683594 -12.220000267028809,-38.262001037597656 -12.642000198364258,-38.14899826049805"/></g></g><g transform="matrix(1,0,0,1,271.5820007324219,320.23699951171875)" opacity="1" style="display: block;"><g opacity="1" transform="matrix(1,0,0,1,0,0)"><path stroke-linecap="round" stroke-linejoin="round" fill-opacity="0" class="secondary" stroke="rgb(8,168,138)" stroke-opacity="1" stroke-width="12" d=" M-63.72999954223633,-55.86899948120117 C-62.62699890136719,-56.70600128173828 -61.534000396728516,-57.52199935913086 -60.452999114990234,-58.31399917602539 C-29.29199981689453,-81.14700317382812 49.85200119018555,-80.23999786376953 59.220001220703125,-17.28499984741211"/></g></g><g transform="matrix(1,0,0,1,242.86199951171875,114.02100372314453)" opacity="1" style="display: block;"><g opacity="1" transform="matrix(1,0,0,1,0,0)"><path stroke-linecap="round" stroke-linejoin="round" fill-opacity="0" class="secondary" stroke="rgb(8,168,138)" stroke-opacity="1" stroke-width="12" d=" M10.545999526977539,-42.88399887084961 C9.946000099182129,-29.229999542236328 -13.520999908447266,-28.038999557495117 -12.99899959564209,-13.77400016784668 C-12.46500015258789,0.8339999914169312 12.149999618530273,-0.06599999964237213 12.684000015258789,14.541999816894531 C13.218000411987305,29.149999618530273 -11.39799976348877,30.048999786376953 -10.86400032043457,44.65700149536133 C-10.86400032043457,44.65700149536133 -10.86400032043457,44.65700149536133 -10.86400032043457,44.65700149536133 C-10.845999717712402,45.14500045776367 -10.800999641418457,45.61399841308594 -10.730999946594238,46.06700134277344"/></g></g><g transform="matrix(0.7193397879600525,0.6946583986282349,-0.6946583986282349,0.7193397879600525,297.86199951171875,175.02099609375)" opacity="1" style="display: block;"><g opacity="1" transform="matrix(1,0,0,1,0,0)"><path stroke-linecap="round" stroke-linejoin="round" fill-opacity="0" class="secondary" stroke="rgb(8,168,138)" stroke-opacity="1" stroke-width="12" d=" M10.545999526977539,-42.88399887084961 C9.946000099182129,-29.229999542236328 -13.520999908447266,-28.038999557495117 -12.99899959564209,-13.77400016784668 C-12.46500015258789,0.8339999914169312 12.149999618530273,-0.06599999964237213 12.684000015258789,14.541999816894531 C13.218000411987305,29.149999618530273 -11.39799976348877,30.048999786376953 -10.86400032043457,44.65700149536133 C-10.86400032043457,44.65700149536133 -10.86400032043457,44.65700149536133 -10.86400032043457,44.65700149536133 C-10.845999717712402,45.14500045776367 -10.800999641418457,45.61399841308594 -10.730999946594238,46.06700134277344"/></g></g><g transform="matrix(1,0,0,1,167.15199279785156,273.31500244140625)" opacity="1" style="display: block;"><g opacity="1" transform="matrix(1,0,0,1,0,0)"><path stroke-linecap="round" stroke-linejoin="round" fill-opacity="0" class="primary" stroke="rgb(18,19,49)" stroke-opacity="1" stroke-width="12" d=" M101.80400085449219,28.08799934387207 C94.61699676513672,35.275001525878906 59.7140007019043,12.02400016784668 23.844999313354492,-23.844999313354492 C-12.02400016784668,-59.7140007019043 -35.275001525878906,-94.61699676513672 -28.08799934387207,-101.80400085449219 C-28.08799934387207,-101.80400085449219 -29.37700080871582,-98.3740005493164 -29.37700080871582,-98.3740005493164 C-29.37700080871582,-98.3740005493164 -101.33699798583984,92.31099700927734 -101.33699798583984,92.31099700927734 C-103.46499633789062,97.94999694824219 -97.94999694824219,103.46499633789062 -92.31099700927734,101.33699798583984 C-92.31099700927734,101.33699798583984 98.3740005493164,29.37700080871582 98.3740005493164,29.37700080871582 C98.3740005493164,29.37700080871582 101.80400085449219,28.08799934387207 101.80400085449219,28.08799934387207z"/></g></g><g transform="matrix(1,0,0,1,189.8249969482422,66.6989974975586)" opacity="1" style="display: block;"><g opacity="1" transform="matrix(1,0,0,1,0,0)"><path stroke-linecap="round" stroke-linejoin="round" fill-opacity="0" class="primary" stroke="rgb(18,19,49)" stroke-opacity="1" stroke-width="12" d=" M-3.6389999389648438,6.11899995803833 C-3.6389999389648438,6.11899995803833 3.6389999389648438,-6.11899995803833 3.6389999389648438,-6.11899995803833"/></g></g><g transform="matrix(1,0,0,1,321.3389892578125,360.9360046386719)" opacity="1" style="display: block;"><g opacity="1" transform="matrix(1,0,0,1,0,0)"><path stroke-linecap="round" stroke-linejoin="round" fill-opacity="0" class="primary" stroke="rgb(18,19,49)" stroke-opacity="1" stroke-width="12" d=" M7.6479997634887695,-4.640999794006348 C7.6479997634887695,-4.640999794006348 -7.6479997634887695,4.640999794006348 -7.6479997634887695,4.640999794006348"/></g></g><g transform="matrix(1,0,0,1,377.4809875488281,289.4729919433594)" opacity="1" style="display: block;"><g opacity="1" transform="matrix(1,0,0,1,0,0)"><path stroke-linecap="round" stroke-linejoin="round" fill-opacity="0" class="secondary" stroke="rgb(8,168,138)" stroke-opacity="1" stroke-width="12" d=" M-3.6389999389648438,6.11899995803833 C-3.6389999389648438,6.11899995803833 3.6389999389648438,-6.11899995803833 3.6389999389648438,-6.11899995803833"/></g></g><g transform="matrix(1,0,0,1,69.91600036621094,228.92300415039062)" opacity="1" style="display: block;"><g opacity="1" transform="matrix(1,0,0,1,0,0)"><path stroke-linecap="round" stroke-linejoin="round" fill-opacity="0" class="secondary" stroke="rgb(8,168,138)" stroke-opacity="1" stroke-width="12" d=" M-5.033999919891357,5.033999919891357 C-5.033999919891357,5.033999919891357 5.033999919891357,-5.033999919891357 5.033999919891357,-5.033999919891357"/></g></g><g transform="matrix(1,0,0,1,341.0799865722656,81.30000305175781)" opacity="1" style="display: block;"><g opacity="1" transform="matrix(1,0,0,1,0,0)"><path stroke-linecap="round" stroke-linejoin="round" fill-opacity="0" class="primary" stroke="rgb(18,19,49)" stroke-opacity="1" stroke-width="12" d=" M5.033999919891357,5.033999919891357 C5.033999919891357,5.033999919891357 -5.033999919891357,-5.033999919891357 -5.033999919891357,-5.033999919891357"/></g></g><g transform="matrix(1,0,0,1,219.3560028076172,358.97100830078125)" opacity="1" style="display: block;"><g opacity="1" transform="matrix(1,0,0,1,0,0)"><path stroke-linecap="round" stroke-linejoin="round" fill-opacity="0" class="secondary" stroke="rgb(8,168,138)" stroke-opacity="1" stroke-width="12" d=" M2.569000005722046,6.638999938964844 C2.569000005722046,6.638999938964844 -2.569000005722046,-6.638999938964844 -2.569000005722046,-6.638999938964844"/></g></g><g transform="matrix(1,0,0,1,98.08899688720703,142.6699981689453)" opacity="1" style="display: block;"><g opacity="1" transform="matrix(1,0,0,1,0,0)"><path stroke-linecap="round" stroke-linejoin="round" fill-opacity="0" class="primary" stroke="rgb(18,19,49)" stroke-opacity="1" stroke-width="12" d=" M-5.395999908447266,-4.64300012588501 C-5.395999908447266,-4.64300012588501 5.395999908447266,4.64300012588501 5.395999908447266,4.64300012588501"/></g></g><g transform="matrix(1,0,0,1,355.8169860839844,208.18600463867188)" opacity="1" style="display: block;"><g opacity="1" transform="matrix(1,0,0,1,0,0)"><path stroke-linecap="round" stroke-linejoin="round" fill-opacity="0" class="primary" stroke="rgb(18,19,49)" stroke-opacity="1" stroke-width="12" d=" M1.9290000200271606,6.8520002365112305 C1.9290000200271606,6.8520002365112305 -1.9290000200271606,-6.8520002365112305 -1.9290000200271606,-6.8520002365112305"/></g></g><g style="display: none;" transform="matrix(1,0,0,1,189.8249969482422,66.69900512695312)" opacity="1"><g opacity="1" transform="matrix(1,0,0,1,0,0)"><path stroke-linecap="round" stroke-linejoin="round" fill-opacity="0" class="primary" stroke="rgb(18,19,49)" stroke-opacity="1" stroke-width="12" d=" M-3.6389999389648438,6.11899995803833 C-3.6389999389648438,6.11899995803833 3.6389999389648438,-6.11899995803833 3.6389999389648438,-6.11899995803833"/></g></g><g style="display: none;" transform="matrix(1,0,0,1,321.3389892578125,360.9360046386719)" opacity="1"><g opacity="1" transform="matrix(1,0,0,1,0,0)"><path stroke-linecap="round" stroke-linejoin="round" fill-opacity="0" class="primary" stroke="rgb(18,19,49)" stroke-opacity="1" stroke-width="12" d=" M7.6479997634887695,-4.640999794006348 C7.6479997634887695,-4.640999794006348 -7.6479997634887695,4.640999794006348 -7.6479997634887695,4.640999794006348"/></g></g><g style="display: none;" transform="matrix(1,0,0,1,377.4809875488281,289.4729919433594)" opacity="1"><g opacity="1" transform="matrix(1,0,0,1,0,0)"><path stroke-linecap="round" stroke-linejoin="round" fill-opacity="0" class="secondary" stroke="rgb(8,168,138)" stroke-opacity="1" stroke-width="12" d=" M-3.6389999389648438,6.11899995803833 C-3.6389999389648438,6.11899995803833 3.6389999389648438,-6.11899995803833 3.6389999389648438,-6.11899995803833"/></g></g><g style="display: none;" transform="matrix(1,0,0,1,69.91600036621094,228.92300415039062)" opacity="1"><g opacity="1" transform="matrix(1,0,0,1,0,0)"><path stroke-linecap="round" stroke-linejoin="round" fill-opacity="0" class="secondary" stroke="rgb(8,168,138)" stroke-opacity="1" stroke-width="12" d=" M-5.033999919891357,5.033999919891357 C-5.033999919891357,5.033999919891357 5.033999919891357,-5.033999919891357 5.033999919891357,-5.033999919891357"/></g></g><g style="display: none;" transform="matrix(1,0,0,1,341.0799865722656,81.30000305175781)" opacity="1"><g opacity="1" transform="matrix(1,0,0,1,0,0)"><path stroke-linecap="round" stroke-linejoin="round" fill-opacity="0" class="primary" stroke="rgb(18,19,49)" stroke-opacity="1" stroke-width="12" d=" M5.033999919891357,5.033999919891357 C5.033999919891357,5.033999919891357 -5.033999919891357,-5.033999919891357 -5.033999919891357,-5.033999919891357"/></g></g><g style="display: none;" transform="matrix(1,0,0,1,219.3560028076172,358.97100830078125)" opacity="1"><g opacity="1" transform="matrix(1,0,0,1,0,0)"><path stroke-linecap="round" stroke-linejoin="round" fill-opacity="0" class="secondary" stroke="rgb(8,168,138)" stroke-opacity="1" stroke-width="12" d=" M2.569000005722046,6.638999938964844 C2.569000005722046,6.638999938964844 -2.569000005722046,-6.638999938964844 -2.569000005722046,-6.638999938964844"/></g></g><g style="display: none;" transform="matrix(1,0,0,1,98.08900451660156,142.6699981689453)" opacity="1"><g opacity="1" transform="matrix(1,0,0,1,0,0)"><path stroke-linecap="round" stroke-linejoin="round" fill-opacity="0" class="primary" stroke="rgb(18,19,49)" stroke-opacity="1" stroke-width="12" d=" M-5.395999908447266,-4.64300012588501 C-5.395999908447266,-4.64300012588501 5.395999908447266,4.64300012588501 5.395999908447266,4.64300012588501"/></g></g><g style="display: none;" transform="matrix(1,0,0,1,355.8169860839844,208.18600463867188)" opacity="1"><g opacity="1" transform="matrix(1,0,0,1,0,0)"><path stroke-linecap="round" stroke-linejoin="round" fill-opacity="0" class="primary" stroke="rgb(18,19,49)" stroke-opacity="1" stroke-width="12" d=" M1.9290000200271606,6.8520002365112305 C1.9290000200271606,6.8520002365112305 -1.9290000200271606,-6.8520002365112305 -1.9290000200271606,-6.8520002365112305"/></g></g></g></g><clipPath id="__lottie_element_20"><path d="M0,0 L430,0 L430,430 L0,430z"/></clipPath><mask id="__lottie_element_19_1" mask-type="alpha"><use xmlns:ns1="http://www.w3.org/1999/xlink" ns1:href="#__lottie_element_19"/></mask></defs><g clip-path="url(#__lottie_element_10)"><g clip-path="url(#__lottie_element_12)" transform="matrix(1,0,0,1,0,0)" opacity="1" style="display: block;"><g mask="url(#__lottie_element_19_1)" style="display: block;"><g filter="url(#__lottie_element_18)" transform="matrix(-0.1674155443906784,-2.3941538333892822,2.3941538333892822,-0.1674155443906784,271.9410095214844,220.4600067138672)" opacity="1"><g class="design" opacity="1" transform="matrix(1,0,0,1,0,0)"><path class="primary" fill="rgb(75,225,236)" fill-opacity="1" d=" M0,-250 C137.97500610351562,-250 250,-137.97500610351562 250,0 C250,137.97500610351562 137.97500610351562,250 0,250 C-137.97500610351562,250 -250,137.97500610351562 -250,0 C-250,-137.97500610351562 -137.97500610351562,-250 0,-250z"/></g><g class="design" opacity="1" transform="matrix(1,0,0,1,113.24199676513672,-118.88400268554688)"><path class="secondary" fill="rgb(203,94,238)" fill-opacity="1" d=" M0,-176.5 C97.47799682617188,-176.5 176.5,-97.47799682617188 176.5,0 C176.5,97.47799682617188 97.47799682617188,176.5 0,176.5 C-43.948001861572266,176.5 -74.39600372314453,142.4429931640625 -105.29000091552734,115.86900329589844 C-142.92100524902344,83.5 -176.5,53.53099822998047 -176.5,0 C-176.5,-97.47799682617188 -97.47799682617188,-176.5 0,-176.5z"/></g></g></g></g></g></svg>