<svg width="174" height="27" viewBox="0 0 174 27" fill="none" xmlns="http://www.w3.org/2000/svg">
<path d="M8.98107 9.17711C9.57027 8.55568 10.2871 8.07521 11.0801 7.77024C11.9392 7.43599 12.8525 7.2703 13.7719 7.28187C14.8394 7.26755 15.8943 7.51818 16.8457 8.01219C17.8252 8.54131 18.6935 9.26132 19.4014 10.1315L23.696 6.17071C22.5517 4.676 21.0586 3.4976 19.3531 2.74315C17.4819 1.94055 15.4676 1.54384 13.4381 1.57823C11.6557 1.55824 9.88473 1.87105 8.21261 2.50121C6.6717 3.08256 5.25849 3.96873 4.05414 5.10885C2.86832 6.2421 1.92754 7.61557 1.29207 9.14127C-0.0250902 12.4169 -0.0250902 16.09 1.29207 19.3657C1.92686 20.8918 2.86773 22.2654 4.05414 23.3981C5.2623 24.5222 6.67525 25.393 8.21261 25.961C9.88059 26.5895 11.647 26.9023 13.425 26.8839C15.4566 26.9178 17.4723 26.5132 19.3399 25.6966C21.0462 24.9372 22.5392 23.7543 23.6828 22.2556L19.3882 18.2904C18.6898 19.1807 17.82 19.9157 16.8325 20.45C15.8801 20.9411 14.8259 21.1916 13.7587 21.1803C12.8395 21.1897 11.9266 21.0241 11.0669 20.6919C10.2731 20.3865 9.55609 19.9043 8.9679 19.2806C8.37461 18.6457 7.91178 17.8962 7.60662 17.0762C6.94497 15.2349 6.94497 13.2138 7.60662 11.3725C7.91715 10.5548 8.38442 9.8084 8.98107 9.17711Z" fill="#1A4048"/>
<path d="M31.9385 0.60498H25.4614V26.408H31.9385V0.60498Z" fill="#1A4048"/>
<path d="M85.7883 9.83028V7.52284H79.5879V26.408H86.0605V17.7473C86.0605 16.1029 86.4733 14.9156 87.2901 14.1853C88.1861 13.4257 89.3275 13.0343 90.4913 13.0876C90.7196 13.0876 90.9304 13.0876 91.1763 13.0876C91.4222 13.0876 91.6637 13.1279 91.9579 13.1727V7.21369C90.4081 7.16519 88.8734 7.53619 87.5096 8.289C86.8457 8.68743 86.2617 9.21038 85.7883 9.83028Z" fill="#1A4048"/>
<path d="M112.566 3.55847C110.404 2.52364 108.038 2.01154 105.65 2.06199H94.3691V26.4089H105.65C108.038 26.4593 110.404 25.9472 112.566 24.9124C114.491 23.9867 116.117 22.5212 117.256 20.6873C118.415 18.7357 119.001 16.4854 118.942 14.2041C119 11.9383 118.415 9.70389 117.256 7.77011C116.115 5.94197 114.488 4.4816 112.566 3.55847ZM111.275 17.7974C110.724 18.7881 109.899 19.5919 108.904 20.1093C107.786 20.6666 106.552 20.9402 105.308 20.9069H101.118V7.55505H105.308C106.552 7.52309 107.786 7.79823 108.904 8.35706C109.892 8.8682 110.715 9.65825 111.275 10.6331C111.836 11.7413 112.129 12.9704 112.129 14.2175C112.129 15.4647 111.836 16.6937 111.275 17.8019V17.7974Z" fill="#05C8E8"/>
<path d="M133.63 8.37492C132.092 7.58868 130.392 7.19071 128.672 7.21448C126.852 7.18844 125.054 7.62578 123.442 8.48693C121.949 9.28001 120.699 10.4766 119.828 11.9459C118.937 13.4745 118.481 15.2261 118.511 17.0043C118.483 18.7653 118.951 20.4974 119.859 21.9956C120.777 23.4913 122.086 24.6955 123.64 25.4724C126.889 26.9812 130.582 27.1561 133.955 25.9608C135.191 25.4838 136.299 24.7163 137.191 23.7205L133.801 20.0421C133.234 20.5572 132.589 20.9749 131.891 21.2787C131.14 21.5642 130.342 21.6995 129.541 21.6774C128.67 21.7008 127.806 21.5168 127.016 21.1398C126.337 20.8037 125.773 20.2646 125.4 19.594C125.239 19.2972 125.113 18.9812 125.027 18.6531H138.455C138.455 18.3977 138.499 18.1199 138.521 17.8198C138.543 17.5196 138.556 17.2507 138.556 17.0177C138.613 15.1558 138.145 13.3163 137.208 11.7174C136.337 10.2906 135.099 9.13463 133.63 8.37492ZM126.661 12.4611C127.296 12.1035 128.013 11.9242 128.738 11.9414C129.442 11.9239 130.138 12.1036 130.749 12.4611C131.324 12.8164 131.791 13.3284 132.097 13.9397C132.292 14.3276 132.424 14.7452 132.488 15.1763H124.939C125.007 14.7483 125.132 14.332 125.313 13.9397C125.605 13.3191 126.075 12.8035 126.661 12.4611Z" fill="#05C8E8"/>
<path d="M154.611 8.40996C153.22 7.61004 151.646 7.19749 150.049 7.21368C148.637 7.17078 147.242 7.53744 146.026 8.27107C145.614 8.54326 145.236 8.86685 144.902 9.23437V0.60498H138.403V26.408H144.608V24.5352C144.974 24.9809 145.405 25.3663 145.886 25.6777C147.15 26.4181 148.593 26.7799 150.049 26.7217C151.647 26.7337 153.221 26.3165 154.611 25.5119C155.983 24.7124 157.114 23.5458 157.883 22.1381C158.679 20.5318 159.095 18.7568 159.095 16.9565C159.095 15.1561 158.679 13.3811 157.883 11.7748C157.113 10.3704 155.981 9.20701 154.611 8.40996ZM152.02 19.4006C151.708 20.0407 151.224 20.5769 150.624 20.9463C150.026 21.2902 149.35 21.4708 148.663 21.4708C147.976 21.4708 147.301 21.2902 146.703 20.9463C146.103 20.5769 145.618 20.0407 145.306 19.4006C144.943 18.6552 144.762 17.8312 144.779 16.999C144.748 16.1439 144.929 15.2947 145.306 14.5303C145.632 13.9114 146.117 13.3943 146.708 13.0338C147.299 12.6733 147.975 12.4829 148.663 12.4829C149.352 12.4829 150.028 12.6733 150.619 13.0338C151.21 13.3943 151.694 13.9114 152.02 14.5303C152.397 15.2947 152.579 16.1439 152.547 16.999C152.564 17.8312 152.384 18.6552 152.02 19.4006Z" fill="#05C8E8"/>
<path d="M169.489 21.6098C169.228 21.6218 168.967 21.5782 168.724 21.4818C168.48 21.3854 168.259 21.2382 168.075 21.0498C167.886 20.8266 167.742 20.5677 167.652 20.2879C167.562 20.008 167.526 19.7127 167.548 19.4189V13.191H171.772V8.2625H167.548V3.33398H161.071V8.2625H158.392V13.191H161.084V19.5219C161.084 21.9324 161.744 23.7351 163.064 24.9299C164.382 26.1217 166.222 26.7221 168.584 26.7221C169.414 26.7248 170.241 26.6362 171.052 26.4577C171.786 26.3079 172.486 26.0192 173.116 25.6064L171.469 21.0318C170.882 21.426 170.191 21.6276 169.489 21.6098Z" fill="#05C8E8"/>
<path d="M75.3982 9.33744C72.1707 6.57747 67.6872 6.59539 63.7615 7.89473C62.888 8.14557 62.0396 8.48011 61.2278 8.89388C61.7389 8.64969 62.2622 8.43284 62.7954 8.24421C61.9125 8.58925 61.0566 9.00266 60.2354 9.48082C55.5456 12.2094 53.6969 18.1729 48.7436 20.5969C48.1009 20.9129 47.4305 21.1664 46.7412 21.3541C46.0709 21.5773 45.3692 21.6863 44.6642 21.6767C43.7919 21.697 42.9266 21.5131 42.1348 21.139C41.4579 20.7998 40.8976 20.2593 40.5276 19.5888C40.36 19.2959 40.233 18.9808 40.15 18.6523H48.8051C50.8206 18.3074 52.5112 16.0895 53.4202 14.6199C53.2285 13.5884 52.8535 12.6014 52.3136 11.7076C51.4432 10.2812 50.2051 9.12644 48.7348 8.36967C47.1984 7.58429 45.4998 7.18634 43.7815 7.20922C41.9626 7.18113 40.1649 7.61045 38.5472 8.45927C37.0534 9.25318 35.8041 10.4534 34.9376 11.9272C34.0442 13.4547 33.5878 15.207 33.6203 16.9856C33.6027 18.7497 34.0812 20.4818 34.9991 21.9769C35.9226 23.4697 37.2326 24.673 38.7843 25.4537C40.5708 26.3382 42.5385 26.7744 44.5236 26.7262C45.3984 26.7351 46.272 26.657 47.132 26.4932H47.1803C49.0158 26.3229 53.328 25.149 57.1967 19.5395C58.8302 17.1693 60.4022 14.9694 62.8086 13.7149C64.4861 12.8501 68.2713 11.1296 70.4932 13.1234C70.7789 13.3987 71.0073 13.7297 71.165 14.0969C71.3227 14.464 71.4063 14.8598 71.411 15.2606H67.7487C66.1701 15.2156 64.5957 15.4474 63.094 15.9461C62.0178 16.297 61.0773 16.9853 60.4066 17.9131C59.8134 18.8037 59.5064 19.8607 59.5284 20.9374C59.5197 21.9691 59.7984 22.9822 60.332 23.8587C60.8947 24.7736 61.7044 25.5032 62.6637 25.96C63.8367 26.495 65.1117 26.7568 66.3962 26.7262C67.7651 26.7886 69.1221 26.4414 70.3 25.727C70.9649 25.2823 71.5004 24.6633 71.8501 23.9348V26.408H77.888V15.9417C77.8924 12.9666 77.0625 10.7488 75.3982 9.33744ZM40.431 13.9434C40.7237 13.3203 41.1955 12.803 41.7835 12.4603C42.4184 12.1018 43.135 11.9209 43.8606 11.9361C44.5623 11.9223 45.2544 12.1035 45.863 12.4603C46.4411 12.817 46.9108 13.3304 47.2198 13.9434C47.4084 14.3316 47.5373 14.7472 47.6019 15.1755H40.0578C40.1276 14.7496 40.2531 14.3352 40.431 13.9434ZM71.411 20.3549C71.2056 21.0421 70.7624 21.6297 70.1639 22.0082C69.5753 22.3725 68.8981 22.5604 68.2098 22.5504C67.5805 22.5821 66.9599 22.3905 66.4533 22.0082C66.25 21.8457 66.0863 21.6373 65.9751 21.3995C65.8638 21.1616 65.8081 20.9007 65.8122 20.6372C65.797 20.3698 65.8467 20.1026 65.9571 19.8595C66.0674 19.6165 66.2348 19.4049 66.4445 19.2438C66.8573 18.9212 67.5906 18.7599 68.6401 18.7599H71.4373L71.411 20.3549Z" fill="#1A4048"/>
</svg>
