<svg width="129" height="117" viewBox="0 0 129 117" fill="none" xmlns="http://www.w3.org/2000/svg">
<g clip-path="url(#clip0_537_203)">
<path d="M106.45 25.9058C106.425 24.8759 106.294 23.8513 106.06 22.8477C104.04 13.6003 96.4402 7.44483 86.9167 7.2984C85.3775 7.2984 83.8384 7.2984 82.2257 7.2984C82.1521 6.03125 82.1804 4.91053 82.0107 3.81797C81.8437 2.71216 81.2661 1.70891 80.3919 1.0065C79.5176 0.304095 78.4105 -0.0463593 77.2892 0.0244061C76.1679 0.0951716 75.1141 0.582008 74.336 1.38869C73.5579 2.19538 73.1122 3.26321 73.087 4.38114C73.0474 5.30475 73.087 6.22836 73.087 7.19703H33.386C33.386 6.29031 33.386 5.5075 33.386 4.70779C33.3237 1.97075 31.513 0.0390486 28.9835 -0.000373745C26.3523 -0.0397961 24.4114 1.85811 24.3321 4.58952C24.3321 5.45681 24.3321 6.3241 24.3321 7.4054C21.7122 7.4054 19.2733 7.10692 16.9363 7.45609C6.75076 9.01046 0 16.9681 0 27.2518C0 46.8315 0 66.4113 0 85.9911C0 97.3617 8.53889 105.911 19.9354 105.922C32.3618 105.922 44.7862 105.922 57.2088 105.922C57.8666 105.932 58.5235 105.868 59.1667 105.73C60.1188 105.489 60.9652 104.944 61.5762 104.178C62.1872 103.412 62.5292 102.468 62.5497 101.491C62.5703 100.513 62.2683 99.5557 61.69 98.7652C61.1117 97.9747 60.2889 97.3946 59.3478 97.1139C58.5197 96.9461 57.674 96.8799 56.8297 96.9167C44.5901 96.9167 32.3561 96.9167 20.1165 96.9167C13.4845 96.8661 9.05382 92.4564 9.05382 85.8897C9.05382 70.714 9.05382 55.5383 9.05382 40.3625V38.7856H97.4304V41.7479C97.4304 43.2009 97.4304 44.6483 97.4304 46.1013C97.4259 47.2962 97.8986 48.444 98.7443 49.292C99.5901 50.1401 100.74 50.6191 101.94 50.6236C103.141 50.6281 104.294 50.1577 105.146 49.3159C105.999 48.4742 106.48 47.33 106.484 46.1351C106.501 39.3882 106.484 32.6639 106.45 25.9058ZM97.3286 29.6171H9.21792C7.62219 20.8372 13.8241 15.3462 24.3321 16.4275C24.3321 17.2216 24.3321 18.0494 24.3321 18.8717C24.4001 21.5749 26.3806 23.6193 28.8987 23.6136C31.4168 23.608 33.3294 21.5749 33.386 18.8379C33.386 18.0551 33.386 17.2666 33.386 16.3993H73.0926C73.0926 17.2497 73.0926 18.0889 73.0926 18.9731C73.1719 21.5637 74.9939 23.4785 77.4328 23.608C78.6208 23.6218 79.7685 23.1804 80.6386 22.3753C81.5086 21.5702 82.0343 20.463 82.1069 19.2828C82.1974 18.3648 82.1069 17.4243 82.1069 16.4275C87.1996 16.0445 92.0547 15.977 95.4216 20.6344C97.3625 23.3095 97.5946 26.3281 97.3286 29.6171Z" fill="#05C8E8"/>
<path d="M127.693 58.4405C125.842 56.5707 123.098 56.6496 121.044 58.6714C119.606 60.0849 118.214 61.5492 116.743 63.0585C103.162 50.7982 84.2286 52.4708 72.9623 63.6724C67.5139 69.0943 64.2596 76.3211 63.819 83.9767C63.3784 91.6322 65.7823 99.1816 70.5729 105.187C75.3635 111.193 82.2062 115.235 89.7978 116.544C97.3894 117.853 105.2 116.337 111.741 112.286C124.852 104.199 131.399 86.3402 122.311 70.0813C124.009 68.4256 125.706 66.7642 127.404 65.0691C129.43 63.0191 129.537 60.2989 127.693 58.4405ZM107.322 104.413C102.517 107.525 96.6936 108.678 91.058 107.634C85.4224 106.589 80.4064 103.427 77.0494 98.8025C73.6924 94.1778 72.2516 88.4451 73.0256 82.7921C73.7996 77.139 76.729 71.999 81.2069 68.4369C90.5323 60.9973 103.134 62.5854 110.236 69.6308L94.0011 85.6025C91.6584 83.2653 89.4742 80.9788 87.1541 78.788C86.5956 78.2162 85.8946 77.8022 85.1227 77.5883C84.3508 77.3744 83.5357 77.3681 82.7607 77.5703C81.9856 77.7725 81.2783 78.1757 80.711 78.739C80.1438 79.3022 79.7369 80.0051 79.5319 80.7761C79.3063 81.4982 79.2852 82.2682 79.4709 83.0015C79.6566 83.7348 80.0419 84.4029 80.5845 84.9323C84.0136 88.4071 87.4484 91.8706 90.9737 95.2497C92.8863 97.0857 95.4497 96.8435 97.5038 94.8048C103.098 89.2519 108.687 83.6896 114.27 78.1179C114.632 77.7574 114.955 77.3519 115.402 76.8338C119.68 85.3153 117.422 97.8685 107.293 104.413H107.322Z" fill="#05C8E8"/>
</g>
<defs>
<clipPath id="clip0_537_203">
<rect width="129" height="117" fill="white"/>
</clipPath>
</defs>
</svg>
