<svg width="136" height="84" viewBox="0 0 136 84" fill="none" xmlns="http://www.w3.org/2000/svg">
<g clip-path="url(#clip0_289_351)">
<path d="M133.426 19.6508C131.095 19.6508 128.761 19.6508 126.24 19.6508C126.24 17.8403 126.222 16.1794 126.24 14.4971C126.299 9.91481 126.403 9.7626 121.546 9.85606C119.949 9.88543 118.365 9.85606 116.547 9.85606V5.48743C116.547 4.60089 116.497 3.709 116.561 2.81712C116.662 1.3885 116.138 0.413837 114.738 -0.0107422H0V63.3531C0.668023 64.2263 1.53299 64.5227 2.64016 64.488C4.93432 64.4159 7.23115 64.4666 9.74889 64.4666C9.74889 65.7751 9.74889 67.0007 9.74889 68.2237C9.74889 74.8354 9.08618 74.2613 15.8356 74.256H19.4286C19.4286 76.6459 19.4286 78.9344 19.4286 81.2228C19.4286 83.4392 19.9609 83.9973 22.1566 83.9973H133.299C135.428 83.9973 135.989 83.4472 135.992 81.343V22.2623C136 20.1982 135.468 19.6561 133.426 19.6508ZM3.81386 60.6534V3.9253H112.744V60.6534H3.81386ZM13.5734 70.4241V64.4666H113.431C116.196 64.4666 116.574 64.0901 116.574 61.337V13.6586H122.427V70.4241H13.5734ZM132.229 80.1974H23.2531V74.256H123.225C125.807 74.256 126.238 73.8287 126.24 71.2652V23.4666H132.205L132.229 80.1974Z" fill="#05C8E8"/>
<path d="M106.405 7.40479H9.9911C7.76879 7.40479 7.22852 7.93885 7.22852 10.1205C7.22852 24.8962 7.22852 39.6719 7.22852 54.4477C7.22852 56.7201 7.76081 57.2435 10.0603 57.2435H106.471C108.792 57.2435 109.279 56.7628 109.279 54.445C109.279 39.7191 109.279 24.9915 109.279 10.262C109.279 7.808 108.869 7.40479 106.405 7.40479ZM11.0424 53.457V11.2287H44.7469C29.5767 21.01 29.7018 43.3632 44.9945 53.457H11.0424ZM37.1485 32.2414C37.1991 20.4172 46.6605 11.0791 58.5306 11.1459C70.1026 11.2046 79.4682 20.783 79.4176 32.5084C79.3697 44.0388 69.7992 53.5424 58.2698 53.5104C55.4893 53.5115 52.736 52.9615 50.1679 51.8921C47.5998 50.8226 45.2676 49.2548 43.3051 47.2785C41.3426 45.3023 39.7884 42.9566 38.7319 40.3761C37.6754 37.7956 37.1373 35.0311 37.1485 32.2414ZM105.465 53.4597H71.5344C79.0131 48.2339 83.0931 41.283 83.0958 32.3188C83.0958 23.4026 79.0823 16.4598 71.6249 11.2233H105.465V53.4597Z" fill="#05C8E8"/>
<path d="M69.0601 37.5259C69.116 40.0948 67.7294 42.3619 65.3341 43.2484C64.4238 43.5849 64.2216 44.0495 64.2855 44.8906C64.34 45.6427 64.34 46.3977 64.2855 47.1497C64.2083 48.2179 63.5802 48.8561 62.5129 48.9495C61.5229 49.035 60.6978 48.2419 60.602 47.1471C60.5541 46.5756 60.586 45.9962 60.586 45.4194C60.586 44.8853 60.586 44.3779 60.586 43.7798H55.9871C55.9871 44.8159 56.011 45.7825 55.9871 46.7438C55.9445 48.1431 55.1886 49.0003 54.0522 48.9602C52.9716 48.9228 52.3143 48.1084 52.2797 46.7519C52.2584 45.8653 52.253 44.9788 52.2344 44.0815C52.2344 44.0041 52.1626 43.9267 52.0481 43.689H50.4512C48.3514 43.689 47.5237 43.1763 47.5237 41.8625C47.5237 40.5487 48.3886 39.9639 50.4087 39.9639C54.0353 39.9639 57.6629 39.9639 61.2913 39.9639H62.2228C64.2375 39.9639 65.1504 39.3898 65.3527 38.0386C65.5789 36.4605 64.4105 34.7328 62.7711 34.3322C62.1666 34.2042 61.5498 34.1442 60.932 34.1533C58.6325 34.1186 56.3251 34.2201 54.0336 34.0652C49.5517 33.7635 46.3659 28.9435 47.8484 24.8366C48.5989 22.7511 50.1745 21.5601 52.2983 20.9246C52.2983 19.7897 52.2823 18.6842 52.2983 17.5787C52.3143 16.4732 52.8971 15.7095 54.0682 15.6774C55.2392 15.6454 55.8779 16.3584 55.9684 17.4665C56.0536 18.516 55.9871 19.5814 55.9871 20.751H60.586C60.586 19.7817 60.5648 18.7803 60.586 17.7763C60.618 16.4411 61.3126 15.6641 62.4491 15.6668C63.5855 15.6694 64.2535 16.4331 64.2934 17.803C64.3201 18.7323 64.3254 19.6722 64.344 20.5908C64.344 20.6282 64.3892 20.6629 64.5356 20.8845C65.2782 20.8845 66.1485 20.8472 67.0161 20.8845C68.3468 20.954 69.116 21.7097 69.0681 22.8232C69.0202 23.9367 68.2909 24.5696 66.9868 24.5776C62.827 24.607 58.6698 24.5776 54.51 24.5936C52.2451 24.5936 51.2896 25.2398 51.2284 26.7913C51.2077 27.2474 51.278 27.7031 51.4351 28.1317C51.5922 28.5602 51.8329 28.953 52.1433 29.287C52.4536 29.621 52.8273 29.8895 53.2423 30.0767C53.6574 30.264 54.1056 30.3663 54.5605 30.3775C56.86 30.4523 59.1622 30.3775 61.4617 30.4202C65.7732 30.5083 68.9723 33.5178 69.0601 37.5259Z" fill="#05C8E8"/>
<path d="M29.0102 30.7914C27.22 28.956 25.4057 27.1375 23.5676 25.3359C22.5589 24.3479 21.5821 24.3613 20.5575 25.3653C18.7246 27.1633 16.9113 28.9809 15.1175 30.8181C14.1061 31.8595 14.1168 32.7647 15.1521 33.8275C16.9388 35.6647 18.7521 37.4814 20.5921 39.2776C21.6087 40.2683 22.5802 40.2603 23.6102 39.2536C25.4359 37.4592 27.2466 35.6389 29.0422 33.7928C29.4148 33.4056 29.6197 32.8502 29.9577 32.2761C29.6064 31.718 29.3802 31.1812 29.0102 30.7914ZM22.0585 35.395L19.1629 32.2066L22.165 29.3734L25.0181 32.455L22.0585 35.395Z" fill="#05C8E8"/>
<path d="M101.426 30.8369C99.6161 28.957 97.7744 27.1083 95.9007 25.2907C94.9293 24.3481 93.9605 24.3748 92.9944 25.3254C91.1634 27.1216 89.3509 28.9375 87.5571 30.7728C86.4925 31.841 86.5085 32.7809 87.5811 33.8758C89.3447 35.6755 91.1252 37.4558 92.9226 39.2164C93.9872 40.2845 94.9267 40.2658 96.0232 39.1897C97.8241 37.4237 99.5984 35.6373 101.346 33.8304C101.724 33.4405 101.945 32.8957 102.286 32.343C101.985 31.7929 101.799 31.2241 101.426 30.8369ZM94.3491 35.2483L91.5785 32.2682L94.602 29.3068L97.5615 32.2842L94.3491 35.2483Z" fill="#05C8E8"/>
</g>
<defs>
<clipPath id="clip0_289_351">
<rect width="136" height="84" fill="white"/>
</clipPath>
</defs>
</svg>
