<svg width="56" height="56" viewBox="0 0 56 56" fill="none" xmlns="http://www.w3.org/2000/svg">
<path fill-rule="evenodd" clip-rule="evenodd" d="M29.2022 0.232706L53.4725 10.1559C54.7044 10.6515 55.5 11.8288 55.5 13.157V17.3459C55.5 19.1297 54.0486 20.581 52.2647 20.581H3.73529C1.95135 20.581 0.5 19.1297 0.5 17.3459V13.157C0.5 11.8288 1.29556 10.6515 2.52745 10.1559L26.787 0.23705C27.5779 -0.0813883 28.4328 -0.0751339 29.2017 0.232521L29.2022 0.232706ZM28.0002 13.6793C28.8936 13.6793 29.6179 12.9551 29.6179 12.0618V8.61107C29.6179 7.71777 28.8936 6.99354 28.0002 6.99354C27.1068 6.99354 26.3826 7.71777 26.3826 8.61107V12.0618C26.3826 12.9551 27.1068 13.6793 28.0002 13.6793ZM22.9316 23.8159H33.0688V41.7165H22.9316V23.8159ZM40.1862 23.8159H50.3235V41.7165H40.1862V23.8159ZM3.73529 44.9516H52.2647C54.0486 44.9516 55.5 46.4029 55.5 48.1867V51.9609C55.5 53.7447 54.0486 55.196 52.2647 55.196H3.73529C1.95135 55.196 0.5 53.7447 0.5 51.9609V48.1867C0.5 46.4029 1.95135 44.9516 3.73529 44.9516ZM15.8138 23.8159H5.67651V41.7165H15.8138V23.8159Z" fill="#05C8E8"/>
</svg>
