<svg width="106" height="100" viewBox="0 0 106 100" fill="none" xmlns="http://www.w3.org/2000/svg">
<g clip-path="url(#clip0_537_207)">
<path d="M104.756 45.7101C98.8929 39.8318 93.0383 33.9465 87.192 28.0542C79.3638 20.1794 71.5646 12.2753 63.6908 4.44212C60.8727 1.61419 57.0598 0.0181128 53.0793 0.000153212C49.0988 -0.0178064 45.2719 1.5438 42.4286 4.34619C28.6077 18.1522 14.824 32.007 1.07765 45.9103C-0.348677 47.3493 -0.348677 49.3973 1.01545 50.7362C2.37958 52.0751 4.33249 52.0125 5.74223 50.6236C6.53002 49.8478 7.26392 49.0219 8.02269 48.2211L8.2922 48.3545V89.8561C8.2922 95.9041 12.339 99.9958 18.3221 99.9958H87.644C93.652 99.9958 97.7112 95.9208 97.7112 89.8936C97.7112 76.399 97.7112 62.9044 97.7112 49.4098V48C98.7685 49.0928 99.5687 49.9937 100.452 50.8029C100.88 51.1928 101.403 51.4633 101.967 51.5876C102.532 51.712 103.119 51.6858 103.67 51.5118C104.221 51.3377 104.718 51.0218 105.11 50.5953C105.503 50.1688 105.778 49.6466 105.908 49.0803C106.215 47.7372 105.705 46.6611 104.756 45.7101ZM62.9362 93.2847H43.0672V67.6872C43.0672 64.8008 44.5073 63.3563 47.3876 63.3535C51.2132 63.3535 55.0389 63.3535 58.8645 63.3535C61.3896 63.3535 62.9321 64.8926 62.9321 67.4202C62.9321 75.7428 62.9321 84.064 62.9321 92.3837L62.9362 93.2847ZM91.0854 89.8686C91.0854 92.196 89.9742 93.3264 87.6771 93.3306C81.9884 93.3306 76.2969 93.3306 70.6027 93.3306H69.562V92.0501C69.562 83.8638 69.562 75.6747 69.562 67.4828C69.562 61.1762 65.0881 56.6924 58.8106 56.684C54.8426 56.684 50.8746 56.684 46.9108 56.684C45.5278 56.6654 44.1552 56.9264 42.8744 57.4515C41.5936 57.9765 40.4307 58.7551 39.4547 59.7408C38.4786 60.7266 37.7093 61.8995 37.1924 63.19C36.6755 64.4805 36.4215 65.8623 36.4455 67.2534C36.4455 75.4731 36.4455 83.6955 36.4455 91.9208V93.3306H35.4255C29.7341 93.3306 24.0426 93.3306 18.3511 93.3306C16.0375 93.3306 14.9221 92.2086 14.918 89.8936C14.918 74.0438 14.918 58.194 14.918 42.3441C14.9095 42.0395 14.9675 41.7368 15.0878 41.4572C15.2082 41.1776 15.388 40.9279 15.6146 40.7258C25.8946 30.4067 36.165 20.0806 46.4257 9.74765C50.4393 5.71428 55.5931 5.70177 59.5984 9.74765C69.8951 20.0973 80.1806 30.4567 90.4552 40.8259C90.8346 41.2386 91.0551 41.774 91.0771 42.3358C91.0992 58.1689 91.102 74.0132 91.0854 89.8686Z" fill="#05C8E8"/>
</g>
<defs>
<clipPath id="clip0_537_207">
<rect width="106" height="100" fill="white"/>
</clipPath>
</defs>
</svg>
