<svg width="116" height="94" viewBox="0 0 116 94" fill="none" xmlns="http://www.w3.org/2000/svg">
<g clip-path="url(#clip0_541_214)">
<path d="M115.907 22.5134C115.777 15.7511 110.14 9.53441 103.474 9.07697C97.6088 8.67465 91.7054 8.86755 85.8128 8.80141H84.2443C83.2695 2.69494 80.1326 -0.0166016 74.1311 -0.0166016H41.76C35.9001 -6.7791e-05 32.6761 2.81618 31.7775 8.81794C26.1681 8.81794 20.6404 8.81794 15.1181 8.81794C6.26291 8.8455 0.0326761 15.0787 0 24.0125C0 42.2621 0.0145227 60.5117 0.0435681 78.7613C0.0334249 80.5423 0.296137 82.314 0.822347 84.0135C2.82648 90.2357 8.33784 93.9889 15.2325 93.9889C37.8915 93.9889 60.5505 93.9889 83.2096 93.9889C89.1021 93.9889 94.9947 93.9889 100.887 93.9889C109.726 93.9503 115.946 87.7061 115.978 78.7723C116.011 67.9041 115.978 57.0414 115.978 46.1732C116 38.2866 116.06 30.3945 115.907 22.5134ZM37.6864 9.18169C37.7463 7.06536 38.83 5.96311 40.905 5.96311C52.3125 5.96311 63.7219 5.96311 75.1331 5.96311C77.1318 5.96311 78.2374 7.06536 78.3027 9.088C78.3608 10.8736 78.3608 12.6593 78.3027 14.4449C78.2374 16.5337 77.1209 17.5919 75.0351 17.5974C69.3331 17.5974 63.5985 17.5974 57.9238 17.5974C52.4015 17.5974 46.8774 17.5974 41.3515 17.5974C38.6667 17.5974 37.7027 16.6054 37.6918 13.8497C37.67 12.2955 37.6428 10.7359 37.6864 9.18169ZM110.2 78.6897C110.2 84.3222 106.595 88.0312 101.062 88.0312C72.3357 88.0312 43.6062 88.0312 14.8731 88.0312C9.42704 88.0312 5.79455 84.3056 5.79455 78.7723C5.79455 60.5227 5.79455 42.2749 5.79455 24.029C5.79455 18.4902 9.4107 14.7866 14.8676 14.7646C20.4824 14.737 26.0918 14.7646 31.7938 14.7646C32.5726 20.6396 35.9001 23.5826 41.6402 23.5826H73.8588C80.1053 23.5826 83.117 21.0474 84.2062 14.8417C84.5874 14.8417 84.985 14.7811 85.3825 14.7811C90.5944 14.7811 95.8062 14.7811 101.018 14.7811C106.568 14.7811 110.173 18.4737 110.173 24.1007C110.198 42.2952 110.207 60.4915 110.2 78.6897Z" fill="#05C8E8"/>
<path d="M32.8931 32.3511C30.3469 32.3478 27.857 33.109 25.7385 34.5382C23.6199 35.9675 21.9679 38.0006 20.9916 40.3803C20.0152 42.76 19.7584 45.3793 20.2535 47.9067C20.7486 50.4342 21.9735 52.7562 23.7732 54.579C25.5728 56.4017 27.8663 57.6433 30.3635 58.1465C32.8606 58.6497 35.4491 58.392 37.8015 57.406C40.1538 56.4199 42.1642 54.7499 43.5784 52.6071C44.9925 50.4644 45.7467 47.9453 45.7457 45.3687C45.7399 41.9199 44.3843 38.6139 41.9755 36.1742C39.5668 33.7345 36.301 32.3598 32.8931 32.3511ZM32.8168 52.5057C30.9391 52.4941 29.143 51.728 27.8234 50.3761C26.5039 49.0242 25.769 47.1972 25.7806 45.297C25.7921 43.3968 26.5491 41.5791 27.885 40.2438C29.2209 38.9084 31.0263 38.1648 32.904 38.1765C33.8337 38.1823 34.7532 38.3733 35.61 38.7387C36.4668 39.1041 37.244 39.6367 37.8974 40.3061C38.5508 40.9755 39.0675 41.7686 39.418 42.6401C39.7685 43.5115 39.9459 44.4443 39.9402 45.3852C39.9345 46.3261 39.7457 47.2566 39.3846 48.1236C39.0235 48.9907 38.4972 49.7773 37.8358 50.4385C37.1743 51.0997 36.3906 51.6225 35.5295 51.9772C34.6683 52.332 33.7466 52.5115 32.8168 52.5057Z" fill="#05C8E8"/>
<path d="M51.2476 79.1803H45.5946C43.6395 70.6819 39.5278 66.565 32.9381 66.565C31.2817 66.5452 29.6383 66.8628 28.1058 67.4991C26.5733 68.1354 25.1829 69.0772 24.0176 70.2686C21.5777 72.6935 20.4504 75.7192 20.2544 79.1858H14.4707C14.6994 72.6494 17.2917 67.4193 22.6397 63.8755C29.0878 59.6043 35.879 59.4665 42.4795 63.4842C48.1869 66.9729 50.9753 72.3408 51.2476 79.1803Z" fill="#05C8E8"/>
<path d="M95.3645 41.1581C93.4638 41.2077 91.5523 41.1581 89.6625 41.1581H64.5455C62.2963 41.1581 61.0056 40.122 60.9403 38.3198C60.8695 36.4019 62.1602 35.2169 64.4094 35.2114C69.5177 35.2114 74.6315 35.2114 79.7453 35.2114C84.8591 35.2114 89.9729 35.2114 95.0868 35.2114C97.1072 35.2114 98.3544 36.1649 98.5395 37.7686C98.7574 39.7362 97.483 41.1085 95.3645 41.1581Z" fill="#05C8E8"/>
<path d="M96.2858 58.6451C95.8434 58.7372 95.3923 58.7797 94.9407 58.7718C84.8038 58.7718 74.6688 58.7718 64.5356 58.7718C62.4117 58.7718 61.1373 57.8349 60.963 56.1926C60.7452 54.1865 62.0522 52.8417 64.2851 52.8252C68.7236 52.8252 73.1566 52.8252 77.5897 52.8252H79.7681C84.8819 52.8252 89.9957 52.8252 95.1095 52.8252C97.1191 52.8252 98.3771 53.7952 98.5459 55.399C98.6664 56.132 98.4968 56.8836 98.0738 57.4911C97.6508 58.0986 97.0085 58.5132 96.2858 58.6451Z" fill="#05C8E8"/>
<path d="M98.5719 73.14C98.6612 73.8526 98.4763 74.5726 98.0556 75.1512C97.635 75.7297 97.0107 76.1225 96.3118 76.2483C95.87 76.3449 95.4186 76.3893 94.9667 76.3806C84.8298 76.3806 74.6948 76.3806 64.5616 76.3806C62.4322 76.3806 61.1633 75.4492 60.9836 73.8123C60.7603 71.8062 62.0728 70.456 64.3002 70.4395C68.657 70.4395 73.0138 70.4395 77.3325 70.4395H95.1192C97.1723 70.4395 98.4303 71.4535 98.5719 73.14Z" fill="#05C8E8"/>
</g>
<defs>
<clipPath id="clip0_541_214">
<rect width="116" height="94" fill="white"/>
</clipPath>
</defs>
</svg>
