<svg width="33" height="32" viewBox="0 0 33 32" fill="none" xmlns="http://www.w3.org/2000/svg">
<path d="M16.58 3.16956C20.8025 3.16956 21.3033 3.18516 22.9718 3.2606C27.2576 3.45308 29.2595 5.45984 29.4546 9.65805C29.531 11.3033 29.5455 11.7975 29.5455 15.9645C29.5455 20.1328 29.5297 20.6257 29.4546 22.2709C29.2582 26.4652 27.2616 28.4759 22.9718 28.6683C21.3033 28.7438 20.8052 28.7594 16.58 28.7594C12.3574 28.7594 11.8566 28.7438 10.1895 28.6683C5.8931 28.4746 3.90175 26.4587 3.7067 22.2696C3.63026 20.6244 3.61444 20.1315 3.61444 15.9632C3.61444 11.7962 3.63158 11.3033 3.7067 9.65675C3.90306 5.45984 5.89969 3.45178 10.1895 3.2593C11.8579 3.18516 12.3574 3.16956 16.58 3.16956ZM16.58 0.356445C12.2849 0.356445 11.7472 0.374653 10.0603 0.450086C4.31689 0.710198 1.12492 3.85495 0.861344 9.528C0.783587 11.194 0.765137 11.7246 0.765137 15.9632C0.765137 20.2017 0.783587 20.7336 0.860026 22.3983C1.12361 28.0662 4.3103 31.2161 10.059 31.4763C11.7472 31.5517 12.2849 31.5699 16.58 31.5699C20.875 31.5699 21.414 31.5517 23.101 31.4763C28.8391 31.2161 32.039 28.0714 32.2986 22.3983C32.3764 20.7336 32.3948 20.2017 32.3948 15.9632C32.3948 11.7246 32.3764 11.194 32.2999 9.5293C32.0416 3.86666 28.851 0.711498 23.1023 0.451386C21.414 0.374653 20.875 0.356445 16.58 0.356445ZM16.58 7.94912C12.0952 7.94912 8.45906 11.5374 8.45906 15.9632C8.45906 20.389 12.0952 23.9785 16.58 23.9785C21.0648 23.9785 24.7009 20.3903 24.7009 15.9632C24.7009 11.5374 21.0648 7.94912 16.58 7.94912ZM16.58 21.1654C13.6687 21.1654 11.3084 18.8374 11.3084 15.9632C11.3084 13.0902 13.6687 10.7609 16.58 10.7609C19.4912 10.7609 21.8516 13.0902 21.8516 15.9632C21.8516 18.8374 19.4912 21.1654 16.58 21.1654ZM25.0225 5.76027C23.9734 5.76027 23.1234 6.59914 23.1234 7.63308C23.1234 8.66703 23.9734 9.50589 25.0225 9.50589C26.0702 9.50589 26.9189 8.66703 26.9189 7.63308C26.9189 6.59914 26.0702 5.76027 25.0225 5.76027Z" fill="white"/>
</svg>
