<svg width="560" height="280" viewBox="0 0 1024 157" fill="none" xmlns="http://www.w3.org/2000/svg">
<path d="M66.0043 97.4799H85.2466C85.8235 97.4799 86.288 97.9443 86.288 98.5213V117.763C86.288 118.34 85.8235 118.805 85.2466 118.805H66.0043C65.4274 118.805 64.9629 118.34 64.9629 117.763V98.5213C64.9629 97.9443 65.4274 97.4799 66.0043 97.4799ZM35.7478 97.4799H54.99C55.5669 97.4799 56.0314 97.9443 56.0314 98.5213V117.763C56.0314 118.34 55.5669 118.805 54.99 118.805H35.7478C35.1708 118.805 34.7064 118.34 34.7064 117.763V98.5213C34.7064 97.9443 35.1708 97.4799 35.7478 97.4799ZM5.48182 97.4799H24.7241C25.301 97.4799 25.7654 97.9443 25.7654 98.5213V117.763C25.7654 118.34 25.301 118.805 24.7241 118.805H5.48182C4.90489 118.805 4.44043 118.34 4.44043 117.763V98.5213C4.44043 97.9443 4.90489 97.4799 5.48182 97.4799ZM96.2703 97.4799H115.513C116.089 97.4799 116.554 97.9443 116.554 98.5213V117.763C116.554 118.34 116.089 118.805 115.513 118.805H96.2703C95.6933 118.805 95.2289 118.34 95.2289 117.763V98.5213C95.2289 97.9443 95.6933 97.4799 96.2703 97.4799ZM5.48182 67.2139H24.7241C25.301 67.2139 25.7654 67.6784 25.7654 68.2553V87.4976C25.7654 88.0745 25.301 88.5389 24.7241 88.5389H5.48182C4.90489 88.5389 4.44043 88.0745 4.44043 87.4976V68.2553C4.44043 67.6784 4.90489 67.2139 5.48182 67.2139ZM5.48182 36.9574H24.7241C25.301 36.9574 25.7654 37.4218 25.7654 37.9987V57.241C25.7654 57.8179 25.301 58.2824 24.7241 58.2824H5.48182C4.90489 58.2824 4.44043 57.8179 4.44043 57.241V37.9987C4.44043 37.4218 4.90489 36.9574 5.48182 36.9574ZM5.48182 6.69141H24.7241C25.301 6.69141 25.7654 7.15587 25.7654 7.7328V26.975C25.7654 27.552 25.301 28.0164 24.7241 28.0164H5.48182C4.90489 28.0164 4.44043 27.552 4.44043 26.975V7.7328C4.44043 7.15587 4.90489 6.69141 5.48182 6.69141ZM35.7478 67.2139H54.99C55.5669 67.2139 56.0314 67.6784 56.0314 68.2553V87.4976C56.0314 88.0745 55.5669 88.5389 54.99 88.5389H35.7478C35.1708 88.5389 34.7064 88.0745 34.7064 87.4976V68.2553C34.7064 67.6784 35.1708 67.2139 35.7478 67.2139ZM35.7478 6.69141H54.99C55.5669 6.69141 56.0314 7.15587 56.0314 7.7328V26.975C56.0314 27.552 55.5669 28.0164 54.99 28.0164H35.7478C35.1708 28.0164 34.7064 27.552 34.7064 26.975V7.7328C34.7064 7.15587 35.1708 6.69141 35.7478 6.69141ZM66.0043 67.2139H85.2466C85.8235 67.2139 86.288 67.6784 86.288 68.2553V87.4976C86.288 88.0745 85.8235 88.5389 85.2466 88.5389H66.0043C65.4274 88.5389 64.9629 88.0745 64.9629 87.4976V68.2553C64.9629 67.6784 65.4274 67.2139 66.0043 67.2139ZM66.0043 36.9574H85.2466C85.8235 36.9574 86.288 37.4218 86.288 37.9987V57.241C86.288 57.8179 85.8235 58.2824 85.2466 58.2824H66.0043C65.4274 58.2824 64.9629 57.8179 64.9629 57.241V37.9987C64.9629 37.4218 65.4274 36.9574 66.0043 36.9574ZM66.0043 6.69141H85.2466C85.8235 6.69141 86.288 7.15587 86.288 7.7328V26.975C86.288 27.552 85.8235 28.0164 85.2466 28.0164H66.0043C65.4274 28.0164 64.9629 27.552 64.9629 26.975V7.7328C64.9629 7.15587 65.4274 6.69141 66.0043 6.69141ZM96.2703 67.2139H115.513C116.089 67.2139 116.554 67.6784 116.554 68.2553V87.4976C116.554 88.0745 116.089 88.5389 115.513 88.5389H96.2703C95.6933 88.5389 95.2289 88.0745 95.2289 87.4976V68.2553C95.2289 67.6784 95.6933 67.2139 96.2703 67.2139ZM96.2703 36.9574H115.513C116.089 36.9574 116.554 37.4218 116.554 37.9987V57.241C116.554 57.8179 116.089 58.2824 115.513 58.2824H96.2703C95.6933 58.2824 95.2289 57.8179 95.2289 57.241V37.9987C95.2289 37.4218 95.6933 36.9574 96.2703 36.9574ZM96.2703 6.69141H115.513C116.089 6.69141 116.554 7.15587 116.554 7.7328V26.975C116.554 27.552 116.089 28.0164 115.513 28.0164H96.2703C95.6933 28.0164 95.2289 27.552 95.2289 26.975V7.7328C95.2289 7.15587 95.6933 6.69141 96.2703 6.69141Z" fill="#EA4224"/>
<path d="M520.312 6.69141H501.07C500.495 6.69141 500.028 7.15765 500.028 7.73279V26.975C500.028 27.5502 500.495 28.0164 501.07 28.0164H520.312C520.887 28.0164 521.353 27.5502 521.353 26.975V7.73279C521.353 7.15765 520.887 6.69141 520.312 6.69141Z" fill="#EA4224"/>
<path d="M695.763 36.9574H677.318C677.041 36.9574 676.775 37.0668 676.578 37.2618C676.381 37.4569 676.27 37.7217 676.267 37.9988V47.1461C671.576 39.6406 663.254 34.762 651.968 34.762C631.741 34.762 618.775 53.1787 618.775 77.9187C618.775 102.143 632.369 118.767 652.597 118.767C663.724 118.767 671.107 113.673 675.798 106.346V119.574C675.798 130.551 670 136.349 657.926 136.349C648.487 136.349 643.918 131.94 642.023 127.249C641.949 127.058 641.82 126.894 641.653 126.776C641.487 126.657 641.289 126.59 641.085 126.583H621.843C621.69 126.582 621.539 126.615 621.4 126.678C621.262 126.742 621.139 126.835 621.039 126.951C620.94 127.067 620.868 127.203 620.827 127.35C620.785 127.497 620.777 127.651 620.801 127.802C623.513 142.747 636.863 152.505 658.235 152.505C670.15 152.505 680.498 149.69 687.244 143.414C693.201 137.925 696.813 130.279 696.813 118.946V37.9988C696.811 37.7217 696.699 37.4569 696.502 37.2618C696.306 37.0668 696.04 36.9574 695.763 36.9574ZM657.419 100.923C646.076 100.923 640.41 90.922 640.41 76.7553C640.41 61.9883 646.226 52.0059 656.668 52.0059C668.002 52.0059 675.01 62.326 675.01 76.305C675.01 90.4716 670.244 100.923 657.419 100.923ZM961.232 108.766V117.754C961.232 118.033 961.122 118.3 960.925 118.497C960.728 118.694 960.46 118.805 960.182 118.805H941.737C941.155 118.805 940.686 118.336 940.686 116.347V6.37247C940.686 7.20746 941.155 6.73836 941.737 6.73836H960.97C961.246 6.73836 961.511 6.84808 961.706 7.04338C961.901 7.23868 962.011 7.50356 962.011 7.77975V46.7146C966.402 39.969 973.776 34.7996 984.903 34.7996C1005.13 34.7996 1019.56 52.9066 1019.56 77.9562C1019.56 103.982 1005.76 121.113 985.531 121.113C974.245 121.15 965.933 116.291 961.232 108.766ZM997.925 77.9562C997.925 63.0578 991.967 52.0059 980.043 52.0059C966.561 52.0059 961.542 63.5269 961.542 78.4253C961.542 93.1643 968.916 103.278 980.831 103.278C991.808 103.278 997.925 93.4832 997.925 77.9562ZM907.315 118.805C907.038 118.802 906.773 118.691 906.578 118.494C906.383 118.297 906.273 118.031 906.273 117.754V109.395C900.785 116.769 894.077 121 882.753 121C864.927 121 854.842 109.554 854.842 91.9915V37.9988C854.842 37.7226 854.952 37.4577 855.147 37.2624C855.342 37.0671 855.607 36.9574 855.883 36.9574H874.966C875.104 36.9562 875.24 36.9822 875.367 37.034C875.495 37.0857 875.611 37.1623 875.708 37.2591C875.806 37.3559 875.884 37.4711 875.937 37.5981C875.99 37.7251 876.017 37.8612 876.017 37.9988V88.3795C876.017 97.7614 880.248 102.968 889.348 102.968C899.378 102.968 905.495 95.4628 905.495 84.7768V37.9988C905.495 37.8612 905.522 37.7251 905.575 37.5981C905.628 37.4711 905.705 37.3559 905.803 37.2591C905.901 37.1623 906.017 37.0857 906.144 37.034C906.271 36.9822 906.408 36.9562 906.545 36.9574H925.741C926.017 36.9574 926.282 37.0671 926.477 37.2624C926.672 37.4577 926.782 37.7226 926.782 37.9988V117.745C926.782 118.022 926.673 118.288 926.478 118.484C926.283 118.681 926.018 118.793 925.741 118.796L907.315 118.805ZM820.664 6.69145H839.897C840.174 6.69144 840.439 6.80086 840.636 6.99589C840.833 7.19093 840.945 7.45579 840.947 7.73284V117.754C840.947 118.033 840.837 118.3 840.639 118.497C840.442 118.694 840.175 118.805 839.897 118.805H820.664C820.387 118.802 820.122 118.691 819.927 118.494C819.732 118.297 819.622 118.031 819.622 117.754V7.73284C819.622 7.45665 819.732 7.19177 819.927 6.99647C820.123 6.80117 820.387 6.69145 820.664 6.69145ZM707.528 63.1422C707.528 29.9022 728.224 4.49609 761.305 4.49609C788.39 4.49609 804.602 20.3515 807.416 41.0854C807.435 41.234 807.422 41.3849 807.378 41.528C807.333 41.671 807.259 41.803 807.159 41.9149C807.06 42.0268 806.937 42.1162 806.801 42.177C806.664 42.2379 806.515 42.2687 806.366 42.2675H785.829C785.59 42.2641 785.36 42.1796 785.176 42.0278C784.992 41.876 784.864 41.6661 784.815 41.4326C782.517 30.6152 774.148 23.607 761.305 23.607C740.608 23.607 730.729 40.8509 730.729 63.1235C730.729 86.0153 742.644 102.48 761.464 102.48C774.449 102.48 783.718 94.8811 785.482 83.6135C785.52 83.3665 785.644 83.1411 785.833 82.9777C786.023 82.8144 786.264 82.7238 786.514 82.7222H806.732C806.877 82.7217 807.021 82.7515 807.154 82.8095C807.287 82.8675 807.407 82.9525 807.506 83.0592C807.605 83.1659 807.68 83.2919 807.728 83.4293C807.776 83.5667 807.794 83.7125 807.782 83.8574C806.925 93.5211 802.552 102.534 795.492 109.188C787.808 116.403 776.982 121.103 761.464 121.103C729.941 121.15 707.528 96.8513 707.528 63.1422ZM556.001 47.9342C561.489 39.3029 569.332 34.7996 580.309 34.7996C596.925 34.7996 608.061 47.3431 608.061 64.8966V117.792C608.061 118.07 607.95 118.338 607.753 118.535C607.556 118.732 607.289 118.842 607.01 118.842H587.777C587.5 118.84 587.235 118.728 587.04 118.531C586.845 118.335 586.736 118.069 586.736 117.792V68.0677C586.736 59.4458 581.717 53.3288 572.776 53.3288C563.394 53.3288 556.47 60.8343 556.47 71.8298V117.801C556.47 118.078 556.36 118.344 556.165 118.541C555.97 118.738 555.706 118.849 555.428 118.852H536.196C535.917 118.852 535.65 118.741 535.453 118.544C535.256 118.347 535.145 118.08 535.145 117.801V38.0551C535.145 37.9175 535.172 37.7813 535.225 37.6544C535.278 37.5274 535.355 37.4122 535.453 37.3154C535.551 37.2185 535.667 37.142 535.794 37.0903C535.922 37.0385 536.058 37.0125 536.196 37.0137H554.959C555.236 37.0137 555.5 37.1234 555.696 37.3187C555.891 37.514 556.001 37.7789 556.001 38.0551V47.9342ZM501.07 36.9574H520.303C520.443 36.9524 520.582 36.9756 520.713 37.0256C520.843 37.0757 520.963 37.1516 521.063 37.2488C521.164 37.346 521.244 37.4625 521.299 37.5914C521.354 37.7203 521.382 37.8588 521.382 37.9988V117.745C521.382 117.883 521.354 118.019 521.302 118.147C521.249 118.274 521.171 118.39 521.074 118.488C520.976 118.585 520.86 118.663 520.733 118.716C520.605 118.768 520.469 118.796 520.331 118.796H501.098C500.821 118.793 500.556 118.681 500.361 118.484C500.166 118.288 500.057 118.022 500.057 117.745V37.9988C500.057 37.7274 500.162 37.4667 500.352 37.2722C500.541 37.0777 500.799 36.9647 501.07 36.9574ZM407.279 77.9562C407.279 52.8691 421.549 34.7996 441.617 34.7996C452.875 34.7996 460.437 39.969 464.828 46.7146V7.73284C464.828 7.45665 464.937 7.19177 465.133 6.99647C465.328 6.80117 465.593 6.69145 465.869 6.69145H485.102C485.684 6.69145 486.153 7.16055 486.153 6.32556V116.347C486.153 118.336 485.684 118.805 485.102 118.805H466.657C466.378 118.805 466.111 118.694 465.914 118.497C465.717 118.3 465.606 118.033 465.606 117.754V108.297C460.915 115.981 452.594 121.15 441.307 121.15C421.08 121.15 407.279 103.944 407.279 77.9562ZM465.297 78.4253C465.297 63.0578 460.277 52.0059 446.636 52.0059C434.881 52.0059 428.914 63.0578 428.914 77.9562C428.914 93.4832 435.031 103.287 446.008 103.287C458.711 103.278 465.297 93.1643 465.297 78.4253ZM344.505 47.9342C349.993 39.3029 357.837 34.7996 368.813 34.7996C385.429 34.7996 396.565 47.3431 396.565 64.8966V117.792C396.565 118.069 396.456 118.335 396.261 118.531C396.066 118.728 395.801 118.84 395.524 118.842H376.291C376.012 118.842 375.745 118.732 375.548 118.535C375.351 118.338 375.24 118.07 375.24 117.792V68.0677C375.24 59.4458 370.221 53.3288 361.289 53.3288C351.879 53.2819 345.002 60.7874 345.002 71.7642V117.735C345.002 118.014 344.892 118.281 344.695 118.478C344.497 118.675 344.23 118.786 343.952 118.786H324.719C324.581 118.786 324.445 118.759 324.318 118.706C324.191 118.653 324.076 118.576 323.979 118.478C323.882 118.38 323.806 118.264 323.754 118.137C323.702 118.009 323.676 117.873 323.677 117.735V37.9894C323.676 37.8523 323.702 37.7163 323.754 37.5894C323.806 37.4625 323.883 37.3472 323.979 37.2502C324.076 37.1533 324.192 37.0766 324.319 37.0247C324.446 36.9729 324.582 36.9468 324.719 36.948H343.482C343.62 36.9468 343.756 36.9729 343.882 37.0247C344.009 37.0766 344.125 37.1533 344.222 37.2502C344.319 37.3472 344.395 37.4625 344.447 37.5894C344.499 37.7163 344.525 37.8523 344.524 37.9894L344.505 47.9342ZM233.602 77.7967C233.602 53.9667 249.748 34.762 273.268 34.762C298.825 34.762 312.597 54.7361 312.935 82.8442C312.938 82.9837 312.912 83.1224 312.86 83.2521C312.809 83.3817 312.732 83.4998 312.634 83.5993C312.536 83.6989 312.419 83.778 312.291 83.832C312.162 83.8859 312.024 83.9137 311.884 83.9137H254.655C256.222 96.2978 263.098 104.695 275.192 104.695C283.204 104.695 288.007 101.195 290.456 95.4628C290.53 95.274 290.659 95.1116 290.827 94.9963C290.994 94.881 291.191 94.8181 291.394 94.8155H310.393C310.551 94.8139 310.708 94.8485 310.85 94.9166C310.993 94.9847 311.119 95.0845 311.218 95.2084C311.316 95.3324 311.385 95.4771 311.42 95.6318C311.454 95.7864 311.452 95.9468 311.415 96.1008C307.963 109.798 295.41 121.15 275.342 121.15C248.65 121.15 233.602 101.786 233.602 77.7967ZM254.936 69.1748H290.681C290.062 58.9861 283.316 51.2179 273.597 51.2179C262.292 51.2179 256.813 58.6671 254.936 69.1748ZM156.792 6.69145H177.433C177.709 6.69145 177.974 6.80117 178.169 6.99647C178.364 7.19177 178.474 7.45665 178.474 7.73284V99.8254H227.663C227.801 99.8254 227.937 99.8526 228.064 99.9055C228.191 99.9585 228.306 100.036 228.403 100.134C228.5 100.231 228.576 100.347 228.628 100.475C228.68 100.602 228.706 100.739 228.704 100.876V117.764C228.706 117.901 228.68 118.038 228.628 118.165C228.576 118.292 228.5 118.408 228.403 118.506C228.306 118.604 228.191 118.681 228.064 118.734C227.937 118.787 227.801 118.814 227.663 118.814H156.792C156.515 118.812 156.25 118.7 156.055 118.503C155.86 118.306 155.751 118.041 155.751 117.764V7.73284C155.751 7.45665 155.861 7.19177 156.056 6.99647C156.251 6.80117 156.516 6.69145 156.792 6.69145Z" fill="#113B5E"/>
</svg>
