<svg id="Layer_1" data-name="Layer 1" xmlns="http://www.w3.org/2000/svg" viewBox="0 0 1000 1000"><defs><style>.cls-1{fill:#064149;}.cls-2{fill:#00caeb;}</style></defs><path class="cls-1" d="M77.29,657.25a28.21,28.21,0,0,1,10.2-6.71,35.93,35.93,0,0,1,13.09-2.32,32.27,32.27,0,0,1,14.92,3.48,40.81,40.81,0,0,1,12.43,10.11l20.89-18.89a54,54,0,0,0-21.14-16.33A71,71,0,0,0,98.92,621a71.06,71.06,0,0,0-25.36,4.4,60.91,60.91,0,0,0-20.22,12.43A56.66,56.66,0,0,0,39.91,657a64.26,64.26,0,0,0,0,48.74,56.56,56.56,0,0,0,13.43,19.14,60.75,60.75,0,0,0,20.22,12.43,71.06,71.06,0,0,0,25.36,4.4,70.06,70.06,0,0,0,28.76-5.64,54.62,54.62,0,0,0,21.14-16.41l-20.89-18.89A39.85,39.85,0,0,1,115.5,711a32.27,32.27,0,0,1-14.92,3.48,35.72,35.72,0,0,1-13.09-2.32,28,28,0,0,1-10.2-6.71A31.57,31.57,0,0,1,70.66,695a39.68,39.68,0,0,1,0-27.18A31.57,31.57,0,0,1,77.29,657.25Z"/><rect class="cls-1" x="157.44" y="616.39" width="31.49" height="122.99"/><path class="cls-1" d="M450.85,660.36v-11H420.68v90h31.49V698.11q0-11.76,6-17t15.58-5.22c1.1,0,2.21,0,3.32.08s2.37.2,3.81.42V647.89q-12.77,0-21.63,5.14A29.18,29.18,0,0,0,450.85,660.36Z"/><path class="cls-1" d="M400.37,658c-15.69-13.16-37.5-13.07-56.59-6.88a70,70,0,0,0-12.34,4.78,71.41,71.41,0,0,1,7.64-3.1,92.67,92.67,0,0,0-12.46,5.88c-22.79,13-31.8,41.44-55.89,53a53.14,53.14,0,0,1-9.74,3.6,31.16,31.16,0,0,1-10.09,1.54,27.86,27.86,0,0,1-12.3-2.55,18.25,18.25,0,0,1-7.83-7.4,17.56,17.56,0,0,1-1.82-4.46H271c9.81-1.64,18-12.21,22.44-19.17a40.58,40.58,0,0,0-5.38-13.89,43.65,43.65,0,0,0-17.39-15.9,52.3,52.3,0,0,0-24.12-5.58,53.8,53.8,0,0,0-25.46,6,44.42,44.42,0,0,0-17.54,16.53,45.31,45.31,0,0,0-6.39,24.12,44,44,0,0,0,6.53,23.78,45.65,45.65,0,0,0,18.4,16.58c7.93,4,17.2,6,27.92,6a66.32,66.32,0,0,0,12.68-1.1H263c8.94-.82,29.91-6.39,48.72-33.16,7.94-11.29,15.58-21.78,27.3-27.69,8.16-4.11,26.56-12.32,37.37-2.82,2.76,2.43,4.18,5.91,4.47,10.19H363c-9.17,0-16.67,1.11-22.63,3.27s-10.23,5.28-13.06,9.37a24.56,24.56,0,0,0-4.23,14.41A26.09,26.09,0,0,0,327,727.3a26.79,26.79,0,0,0,11.43,10,42,42,0,0,0,18.17,3.65c7.83,0,14.17-1.59,19-4.76a21.65,21.65,0,0,0,7.55-8.55v11.77h29.35V689.49Q412.43,668.09,400.37,658ZM230.24,680a16.08,16.08,0,0,1,6.59-7.06,19.78,19.78,0,0,1,10.09-2.5,18.7,18.7,0,0,1,9.75,2.5,17.55,17.55,0,0,1,6.58,7.06,19.73,19.73,0,0,1,1.88,5.86H228.42A22.66,22.66,0,0,1,230.24,680Zm150.68,30.56a14.09,14.09,0,0,1-6.06,7.87,17.87,17.87,0,0,1-9.51,2.6c-3.65,0-6.54-.87-8.65-2.6a8.13,8.13,0,0,1-3.12-6.53,7.76,7.76,0,0,1,3.07-6.63q3-2.31,10.67-2.31h13.6Z"/><path class="cls-2" d="M819,656.2a28,28,0,0,0-5.36-4.36q-8.22-5.12-19.79-5.11a44.82,44.82,0,0,0-22.47,5.78,42.34,42.34,0,0,0-16.18,16.26A43.3,43.3,0,0,0,751,679.22a40.41,40.41,0,0,0-4.72-10.78,44.43,44.43,0,0,0-17.6-16.1,52.89,52.89,0,0,0-24.4-5.61,53.89,53.89,0,0,0-25.74,6,45.35,45.35,0,0,0-17.36,16V646.73q-12.9,0-21.88,5.19a29.73,29.73,0,0,0-8.46,7.34v-11H600.34v66.48l-16-14.5a40.41,40.41,0,0,1-12.58,10.4,32.62,32.62,0,0,1-15.09,3.52,36.17,36.17,0,0,1-13.25-2.35A28.23,28.23,0,0,1,533.09,705a32,32,0,0,1-6.71-10.64,40.12,40.12,0,0,1,0-27.5,31.93,31.93,0,0,1,6.71-10.65,28.36,28.36,0,0,1,10.31-6.79,36.17,36.17,0,0,1,13.25-2.35,32.62,32.62,0,0,1,15.09,3.52,41.48,41.48,0,0,1,12.58,10.23l21.12-19.11a54.52,54.52,0,0,0-21.38-16.52A77.18,77.18,0,0,0,529.32,624a61.53,61.53,0,0,0-20.46,12.57A57.27,57.27,0,0,0,495.28,656a64.94,64.94,0,0,0,0,49.3,57.23,57.23,0,0,0,13.58,19.36,61.39,61.39,0,0,0,20.46,12.58A71.9,71.9,0,0,0,555,741.63q16.26,0,29.09-5.7A55.55,55.55,0,0,0,600.34,725v14.3H632.2V697.53q0-11.89,6-17.18T654,675.06q1.68,0,3.36.09l.53,0a47.93,47.93,0,0,0-3.55,18.65A44.62,44.62,0,0,0,661,717.9a46,46,0,0,0,18.62,16.77q12,6.12,28.25,6.12,12.91,0,22.47-3.77a41.92,41.92,0,0,0,15.93-10.81l-16.6-17.61a35,35,0,0,1-9.39,5.95,30.46,30.46,0,0,1-11.57,1.93,27.35,27.35,0,0,1-12.41-2.6,18.31,18.31,0,0,1-8-7.46,19.89,19.89,0,0,1-1.83-4.53h63.3a45.78,45.78,0,0,0,5.43,16.85A42.3,42.3,0,0,0,771.37,735a44.93,44.93,0,0,0,22.47,5.78q12.24,0,20.37-5a26.51,26.51,0,0,0,6.29-5.44v9h30.35V614.87H819ZM694.41,672a20.13,20.13,0,0,1,10.22-2.51,19,19,0,0,1,9.9,2.51,17.83,17.83,0,0,1,6.62,7.13,19.79,19.79,0,0,1,1.93,6H685.94a22,22,0,0,1,1.84-6A16.39,16.39,0,0,1,694.41,672ZM817,705.5a17.69,17.69,0,0,1-6.79,7.46,18.63,18.63,0,0,1-9.64,2.51,19,19,0,0,1-9.81-2.51A17.63,17.63,0,0,1,784,705.5a25.37,25.37,0,0,1-2.52-11.66,25,25,0,0,1,2.52-11.9,17.92,17.92,0,0,1,6.79-7.21,19,19,0,0,1,9.81-2.52,18.64,18.64,0,0,1,9.64,2.52,18,18,0,0,1,6.79,7.21,25,25,0,0,1,2.51,11.9A25.37,25.37,0,0,1,817,705.5Z"/><path class="cls-2" d="M956.84,713.29a16.78,16.78,0,0,1-9.72,2.85,9.23,9.23,0,0,1-7-2.68c-1.73-1.79-2.6-4.41-2.6-7.88v-30h20.79V651.76H937.56V628H905.7v23.81H894.81v-.21H862.94v87.74h31.87V675.57H905.7v30.51q0,17.45,9.73,26.08t27.16,8.63a57.69,57.69,0,0,0,12.16-1.25,29.93,29.93,0,0,0,10.14-4.11Z"/><circle class="cls-2" cx="878.93" cy="627.54" r="16.09"/><path class="cls-1" d="M503.4,218.66c-.55,0-1.2,0-1.79,0v57.66a15.65,15.65,0,0,1,1.79-.07,91.8,91.8,0,1,1,0,183.6c-.55,0-1.2,0-1.79-.06v57.62c.59.06,1.24.06,1.79.06,82.37,0,149.42-67.08,149.42-149.42S585.77,218.66,503.4,218.66Z"/><path class="cls-1" d="M499.83,272.52c-82.34,0-149.42,67.09-149.42,149.43s67.08,149.42,149.42,149.42a14.88,14.88,0,0,0,1.78-.07V513.68a17.35,17.35,0,0,1-1.78.06,91.8,91.8,0,1,1,0-183.59,13.48,13.48,0,0,1,1.57.06l0,0,0,0h.15V272.59A14.88,14.88,0,0,0,499.83,272.52Z"/><path class="cls-2" d="M501.46,330.21l0,0,0,0c-89.8,69.36-18.74,118.36-2.78,127.91l.62-21.66-18.33-20.34,18.42,16.61.37-13.31-26-28.1,26.13,24.18.52-18.33-19-21.08,19.07,17.2.47-16.43-13.53-15.65L501,373l.58-20.71L502.2,373l13.65-11.8-13.53,15.65.46,16.49,19.14-17.26-19,21.17.52,18.24,26.13-24.18-26,28.1.37,13.31,18.43-16.61L504,436.46,504.6,458C591.41,402.32,503.4,331.75,501.46,330.21Z"/></svg>