<?xml version="1.0" encoding="utf-8"?>
<!-- Generator: Adobe Illustrator 26.1.0, SVG Export Plug-In . SVG Version: 6.00 Build 0)  -->
<svg version="1.1" id="Layer_1" xmlns="http://www.w3.org/2000/svg" xmlns:xlink="http://www.w3.org/1999/xlink" x="0px" y="0px"
	 viewBox="0 0 129.6 51.9" style="enable-background:new 0 0 129.6 51.9;" xml:space="preserve">
<style type="text/css">
	.st0{fill:#0057C2;}
</style>
<g>
	<path class="st0" d="M11.7,5.9c-2.7,0-4.6,2.4-4.6,7c0,5,1.7,7.1,4.7,7.1c2.8,0,4.5-2.2,4.5-7.1C16.3,8,14.7,5.9,11.7,5.9
		 M11.6,24.3c-6.3,0-9.8-4.5-9.8-11.2c0-6.7,3.8-11.4,10-11.4c6.5,0,9.8,4.9,9.8,11.2C21.6,20,17.5,24.3,11.6,24.3"/>
	<path class="st0" d="M37.9,23.9H35c-0.7,0-0.9-0.3-0.9-0.9v-8.3c0-1.3-0.3-2.2-1.8-2.2c-1,0-2.3,0.5-3.2,1.2V23
		c0,0.6-0.3,0.9-0.9,0.9h-2.9c-0.5,0-0.9-0.3-0.9-0.8V9.6c0-0.6,0.2-0.9,0.9-0.9h2.6c0.5,0,0.8,0.1,0.9,0.7l0.1,0.7
		c1.4-1.1,3.2-1.8,5-1.8c3.4,0,4.9,2.2,4.9,5.6V23C38.8,23.6,38.6,23.9,37.9,23.9"/>
	<path class="st0" d="M49.4,11.8c-1.6,0-2.6,1.3-2.8,2.7h5.2C51.8,13.2,51,11.8,49.4,11.8 M55.3,17.5h-8.8c0.4,2,2.1,3.1,4,3.1
		c1.4,0,2.7-0.3,3.9-0.8c0.1-0.1,0.2-0.1,0.4-0.1c0.3,0,0.4,0.2,0.5,0.4c0.1,0.5,0.6,2,0.6,2.4c0,0.4-0.3,0.5-0.6,0.7
		c-1.7,0.8-3.8,1.1-5.7,1.1c-5,0-8.1-3.1-8.1-8.1c0-4.9,3.3-8,8.1-8c2,0,3.7,0.8,4.9,2c1.6,1.7,1.9,3.8,1.9,6v0.4
		C56.4,17.4,56.1,17.5,55.3,17.5"/>
	<path class="st0" d="M82.4,23.9h-3.1c-0.8,0-1-0.4-1-1.3l-0.3-10.7h-0.1l-4.7,11.3c-0.3,0.6-0.7,0.7-1.1,0.7h-1.2
		c-0.6,0-0.9-0.1-1.3-0.7l-5.4-11.3h-0.1l-0.2,11c0,0.9-0.4,1-1.1,1h-2.6c-0.7,0-1.1-0.3-1.1-0.9v-0.1l0.8-19.7c0-0.8,0.4-1,1-1h2.3
		c0.7,0,1,0.3,1.3,0.8l6.9,14.1h0.1L77.9,3c0.3-0.5,0.6-0.8,1.3-0.8h2.2c0.6,0,0.8,0.2,0.9,0.8l1,20V23C83.3,23.6,83,23.9,82.4,23.9
		"/>
	<path class="st0" d="M96.1,13.2c-0.6-0.5-1.6-1.1-2.5-1.1c-1.5,0-3,1.3-3,4.2c0,1.9,0.5,4.3,2.9,4.3c1.1,0,2.3-0.8,2.6-1.3V13.2z
		 M101.4,23.9h-1.7c-1.8,0-2.6-0.5-3-1.4h-0.1c-0.8,1-2.9,1.8-4.4,1.8c-4.5,0-6.6-3.6-6.6-7.7c0-5.5,3.4-8.4,6.9-8.4
		c1.8,0,3.2,0.8,3.8,1.8l0.1-0.7c0-0.3,0.3-0.6,0.7-0.6h2.8c0.4,0,0.8,0.2,0.8,0.7v10.8c0,0.3,0.1,0.5,0.5,0.5h0.3
		c0.4,0,0.7,0.2,0.7,0.6v1.8C102.1,23.6,101.8,23.9,101.4,23.9"/>
	<path class="st0" d="M108.6,23.9h-2.8c-0.7,0-1-0.2-1-0.9V9.5c0-0.6,0.4-0.8,1-0.8h2.8c0.6,0,0.9,0.2,0.9,0.8V23
		C109.6,23.6,109.3,23.9,108.6,23.9 M107.2,6.8c-1.2,0-2.5-0.8-2.5-2.3c0-1.5,1.3-2.4,2.5-2.4c1.3,0,2.5,0.9,2.5,2.4
		C109.7,6,108.4,6.8,107.2,6.8"/>
	<path class="st0" d="M126.9,23.9H124c-0.7,0-0.9-0.3-0.9-0.9v-8.3c0-1.3-0.3-2.2-1.8-2.2c-1,0-2.3,0.5-3.2,1.2V23
		c0,0.6-0.2,0.9-0.9,0.9h-2.9c-0.5,0-0.9-0.3-0.9-0.8V9.6c0-0.6,0.2-0.9,0.9-0.9h2.6c0.5,0,0.8,0.1,0.9,0.7l0.1,0.7
		c1.4-1.1,3.2-1.8,5-1.8c3.4,0,4.9,2.2,4.9,5.6V23C127.8,23.6,127.6,23.9,126.9,23.9"/>
	<path class="st0" d="M21.2,31.7c0,0.4-0.3,0.5-0.8,0.5h-7.6v6.3h6.8c0.4,0,0.6,0.2,0.6,0.5v1c0,0.4-0.1,0.5-0.5,0.5h-6.8v8.7
		c0,0.5-0.1,0.6-0.6,0.6h-1.5c-0.5,0-0.6-0.1-0.6-0.6V30.7c0-0.4,0.1-0.6,0.5-0.6h10.1c0.3,0,0.5,0.1,0.5,0.4v0.1L21.2,31.7z"/>
	<path class="st0" d="M25.3,49.9h-1.3c-0.4,0-0.6-0.2-0.6-0.6V36.6c0-0.4,0.2-0.6,0.6-0.6h1.3c0.4,0,0.5,0.2,0.5,0.6v12.7
		C25.8,49.7,25.6,49.9,25.3,49.9 M24.6,34c-0.8,0-1.5-0.5-1.5-1.4c0-0.8,0.7-1.4,1.5-1.4c0.8,0,1.5,0.5,1.5,1.4
		C26.1,33.5,25.3,34,24.6,34"/>
	<path class="st0" d="M41,49.9h-1.4c-0.4,0-0.5-0.2-0.5-0.6v-8c0-2-0.5-3.5-2.8-3.5c-1.3,0-3,0.8-4,1.7v9.9c0,0.4-0.2,0.6-0.5,0.6
		h-1.4c-0.3,0-0.5-0.2-0.5-0.6V36.6c0-0.4,0.1-0.6,0.5-0.6h1.3c0.3,0,0.5,0.1,0.5,0.5l0,0.9c1.3-1.1,3-1.7,4.7-1.7
		c3.3,0,4.6,2,4.6,5.1v8.4C41.6,49.7,41.4,49.9,41,49.9"/>
	<path class="st0" d="M54.4,39.7c-0.7-1.3-2.1-2.1-3.5-2.1c-2.2,0-3.9,2-3.9,5.4c0,3.2,1.5,5.1,3.5,5.1c1.8,0,3.3-1.5,3.8-2.9V39.7z
		 M57.7,49.9h-1.2c-1.3,0-1.9-1-1.9-2.1h-0.1c-0.7,1.3-2.6,2.4-4.3,2.4c-4,0-5.7-3.4-5.7-7c0-4.8,2.8-7.5,6.1-7.5
		c1.4,0,3,0.6,3.8,1.8l0-0.9c0-0.3,0.2-0.5,0.5-0.5h1.3c0.3,0,0.5,0.2,0.5,0.5v10.1c0,0.7,0,1.1,0.1,1.3c0.1,0.2,0.3,0.3,0.5,0.3
		h0.2c0.3,0,0.4,0.1,0.4,0.4v1C58.1,49.8,58,49.9,57.7,49.9"/>
	<path class="st0" d="M72,49.9h-1.3c-0.4,0-0.5-0.2-0.5-0.6v-8c0-2-0.5-3.5-2.8-3.5c-1.3,0-3,0.8-4,1.7v9.9c0,0.4-0.2,0.6-0.5,0.6
		h-1.4c-0.3,0-0.5-0.2-0.5-0.6V36.6c0-0.4,0.1-0.6,0.5-0.6h1.3c0.3,0,0.5,0.1,0.5,0.5l0,0.9c1.3-1.1,3-1.7,4.7-1.7
		c3.3,0,4.6,2,4.6,5.1v8.4C72.5,49.7,72.4,49.9,72,49.9"/>
	<path class="st0" d="M86.1,49.4c-1.2,0.6-2.6,0.8-3.9,0.8c-4.5,0-6.7-2.9-6.7-7.2c0-4.2,2.6-7.3,6.9-7.3c1.2,0,2.7,0.3,3.7,0.8
		c0.2,0.1,0.3,0.2,0.3,0.4c0,0.1,0,0.1-0.1,0.2l-0.2,0.9c-0.1,0.2-0.1,0.3-0.3,0.3c-0.1,0-0.2,0-0.3-0.1c-0.9-0.4-1.9-0.7-3-0.7
		c-2.7,0-4.5,2-4.5,5.3c0,2.9,1.3,5.5,4.3,5.5c1.2,0,2.3-0.3,3.2-0.7c0.1,0,0.2-0.1,0.2-0.1c0.1,0,0.2,0.1,0.3,0.3l0.3,0.8
		c0,0.1,0.1,0.2,0.1,0.3C86.4,49.2,86.4,49.2,86.1,49.4"/>
	<path class="st0" d="M91,49.9h-1.3c-0.4,0-0.6-0.2-0.6-0.6V36.6c0-0.4,0.2-0.6,0.6-0.6H91c0.4,0,0.5,0.2,0.5,0.6v12.7
		C91.5,49.7,91.3,49.9,91,49.9 M90.3,34c-0.8,0-1.5-0.5-1.5-1.4c0-0.8,0.7-1.4,1.5-1.4s1.5,0.5,1.5,1.4C91.8,33.5,91,34,90.3,34"/>
	<path class="st0" d="M104.6,39.7c-0.7-1.3-2.1-2.1-3.5-2.1c-2.2,0-3.9,2-3.9,5.4c0,3.2,1.5,5.1,3.5,5.1c1.8,0,3.3-1.5,3.8-2.9V39.7
		z M107.9,49.9h-1.2c-1.3,0-1.9-1-1.9-2.1h-0.1c-0.7,1.3-2.6,2.4-4.3,2.4c-4,0-5.7-3.4-5.7-7c0-4.8,2.8-7.5,6.1-7.5
		c1.4,0,3,0.6,3.8,1.8l0-0.9c0-0.3,0.2-0.5,0.5-0.5h1.3c0.3,0,0.5,0.2,0.5,0.5v10.1c0,0.7,0,1.1,0.1,1.3c0.1,0.2,0.3,0.3,0.5,0.3
		h0.2c0.3,0,0.4,0.1,0.4,0.4v1C108.3,49.8,108.2,49.9,107.9,49.9"/>
	<path class="st0" d="M113,49.9h-1.4c-0.3,0-0.5-0.2-0.5-0.6V30.3c0-0.4,0.1-0.5,0.4-0.6l1.4-0.2h0.1c0.3,0,0.4,0.1,0.4,0.5v19.3
		C113.5,49.7,113.3,49.9,113,49.9"/>
	<path class="st0" d="M117.4,47.2h-0.2v0.7h0.2c0.2,0,0.4-0.1,0.4-0.4C117.9,47.3,117.7,47.2,117.4,47.2 M118.3,48.9H118
		c-0.1,0-0.1,0-0.1-0.1l-0.4-0.7h-0.2v0.7c0,0,0,0.1-0.1,0.1H117c-0.1,0-0.1,0-0.1-0.1V47c0-0.1,0-0.1,0.1-0.1h0.4
		c0.4,0,0.8,0.1,0.8,0.6c0,0.3-0.2,0.5-0.4,0.6L118.3,48.9C118.3,48.9,118.3,48.9,118.3,48.9C118.3,48.9,118.3,48.9,118.3,48.9
		 M117.6,46.2c-1,0-1.7,0.8-1.7,1.7c0,0.9,0.7,1.7,1.7,1.7c1,0,1.7-0.8,1.7-1.7C119.3,47,118.5,46.2,117.6,46.2 M117.6,50
		c-1.2,0-2.1-0.9-2.1-2.1c0-1.2,0.9-2.1,2.1-2.1c1.2,0,2.1,0.9,2.1,2.1C119.6,49.1,118.7,50,117.6,50"/>
</g>
</svg>
