<svg width="560" height="280" viewBox="0 0 438 114" fill="none" xmlns="http://www.w3.org/2000/svg">
<path fill-rule="evenodd" clip-rule="evenodd" d="M363.174 105.937C363.174 109.589 363.174 109.539 366.9 109.586C368.211 109.603 368.679 109.263 368.662 107.868C368.588 101.702 368.632 95.5369 368.632 89.3714C368.632 85.3621 368.632 85.3992 364.596 85.4295C363.514 85.4396 363.137 85.7496 363.154 86.8546C363.211 90.4259 363.177 93.9972 363.174 97.5684V105.937ZM249.955 105.732C249.955 109.603 249.955 109.546 253.819 109.589C255.21 109.606 255.551 109.111 255.541 107.807C255.483 101.696 255.514 95.584 255.517 89.4724C255.517 85.3756 255.517 85.4228 251.427 85.4261C250.238 85.4261 249.921 85.8405 249.938 86.9591C249.988 90.4293 249.958 93.8995 249.955 97.373V105.732ZM282.322 86.7569C282.389 85.7091 281.971 85.4261 280.971 85.4362C276.473 85.4767 271.975 85.4531 267.481 85.4531H262.545V90.6179H269.59V105.594C269.59 109.623 269.59 109.579 273.589 109.586C274.751 109.586 275.082 109.226 275.071 108.077C275.021 102.75 275.055 97.4202 275.065 92.0936C275.068 91.6186 275.122 91.1469 275.159 90.5236H282.305C282.305 89.0951 282.248 87.9227 282.322 86.7569ZM143.106 86.073C138.393 88.0372 135.263 93.2358 135.728 98.3299C136.25 104.041 139.912 108.437 145.087 109.576C150.178 110.698 155.798 108.872 157.995 105.109C157.567 104.792 157.001 104.468 156.549 104.03C154.662 102.201 154.673 102.188 152.435 103.603C152.27 103.707 152.102 103.805 151.93 103.899C148.945 105.543 145.31 104.967 143.244 102.524C140.96 99.8224 140.91 95.3516 143.13 92.599C145.172 90.0654 148.672 89.4286 151.755 91.0728C152.648 91.5512 153.466 92.1644 154.41 92.7742C155.522 91.4973 156.603 90.2507 157.728 88.957C154.524 85.16 148.167 83.9639 143.106 86.073ZM318.23 87.3027C318.169 91.6994 318.223 96.1029 318.024 100.496C317.903 103.192 315.919 104.799 313.217 104.815C310.09 104.829 308.21 102.73 308.16 99.0711C308.116 95.8435 308.149 92.6158 308.149 89.3882C308.149 85.3722 308.149 85.4093 304.164 85.4295C303.089 85.4362 302.722 85.7293 302.735 86.8378C302.793 91.1435 302.749 95.4459 302.762 99.7516C302.779 105.496 305.68 109.03 311.347 109.758C317.034 110.486 322.933 108.43 323.546 100.742C323.927 95.9782 323.678 91.1637 323.651 86.3729C323.647 86.0663 323.132 85.5238 322.832 85.5036C321.377 85.4127 319.914 85.4632 318.324 85.4632C318.287 86.1572 318.237 86.73 318.23 87.3027ZM198.717 91.5748C198.656 90.5775 199.115 90.3248 200.021 90.3349C202.76 90.3619 205.499 90.3552 208.238 90.3147C211.941 90.2642 211.371 90.9144 211.483 87.0332C211.516 85.8405 211.163 85.4127 209.916 85.4261C204.883 85.4901 199.842 85.4834 194.806 85.4295C193.626 85.416 193.195 85.7226 193.205 86.9759C193.259 93.9702 193.262 100.961 193.202 107.955C193.188 109.296 193.663 109.6 194.9 109.583C199.253 109.522 203.606 109.559 207.959 109.559C211.604 109.559 211.56 109.559 211.553 105.914C211.55 104.785 211.156 104.499 210.101 104.522C207.413 104.583 204.724 104.543 202.032 104.543H198.704C198.704 103.245 198.724 102.181 198.697 101.116C198.67 100.176 199.081 99.8359 200.021 99.8527C202.221 99.8999 204.421 99.8662 206.621 99.8662C209.849 99.8662 209.781 99.8628 209.879 96.5779C209.923 95.2033 209.488 94.826 208.154 94.863C205.085 94.954 202.009 94.8934 198.731 94.8934C198.731 93.6906 198.781 92.6293 198.717 91.5748ZM225.306 98.5185C225.31 96.2747 225.353 94.0275 225.289 91.7837C225.259 90.7493 225.63 90.3888 226.637 90.4596C228.092 90.5607 229.598 90.3922 231.007 90.6887C234.538 91.4299 236.438 94.3476 236.151 98.2557C235.899 101.763 233.517 104.209 229.959 104.495C228.507 104.61 227.038 104.512 225.306 104.512V98.5185ZM225.626 85.4565C224.11 85.4565 222.591 85.4868 221.075 85.443C220.215 85.4194 219.841 85.699 219.845 86.6087C219.862 93.8995 219.855 101.19 219.841 108.481C219.838 109.199 220.047 109.583 220.839 109.559C224.454 109.461 228.092 109.613 231.681 109.253C237.401 108.676 241.559 104.155 241.956 98.1816C242.33 92.6158 239.147 87.7879 233.881 86.2987C231.246 85.5542 228.413 85.5003 225.667 85.1364C225.653 85.2408 225.64 85.3486 225.626 85.4565ZM170.494 93.475C170.507 89.843 170.342 90.5371 173.449 90.4731C174.476 90.4529 175.511 90.4428 176.528 90.5405C178.469 90.7258 179.641 92.0296 179.584 93.8186C179.523 95.611 178.287 96.8205 176.346 96.9283C175.564 96.9687 174.779 96.9351 173.998 96.9351C170.491 96.9485 170.48 96.9485 170.494 93.475ZM180.234 101.049C180.659 100.786 180.905 100.634 181.154 100.483C184.331 98.5927 185.702 95.483 185.008 91.7264C184.408 88.4718 182.165 86.1303 178.472 85.7664C174.547 85.3857 170.568 85.5845 166.619 85.4261C165.262 85.3689 164.999 85.8843 165.009 87.1174C165.063 93.2762 165.036 99.4349 165.036 105.597C165.036 109.623 165.036 109.579 169.038 109.586C170.214 109.589 170.561 109.215 170.514 108.073C170.433 106.082 170.491 104.091 170.491 102.147C173.786 101.49 174.288 101.682 175.915 104.105C176.926 105.607 177.906 107.127 178.944 108.606C179.206 108.976 179.634 109.465 180.005 109.485C181.838 109.576 183.681 109.525 185.978 109.525C183.9 106.456 182.077 103.771 180.234 101.049ZM389.315 90.18C393.291 90.1766 396.484 93.4952 396.437 97.5819C396.39 101.615 393.331 104.795 389.47 104.832C385.43 104.866 382.408 101.719 382.391 97.4674C382.378 93.2189 385.259 90.1833 389.315 90.18ZM402.111 97.4404C402.108 90.4225 396.71 85.288 389.544 85.096C383.399 84.9275 376.674 89.2804 376.563 97.5381C376.472 104.553 382.075 109.896 389.301 109.896C396.589 109.896 402.114 104.522 402.111 97.4404ZM424.701 98.2153C422.15 94.8698 419.455 91.6186 417.11 88.1349C415.648 85.9585 413.984 85.0993 411.416 85.3992C410.247 85.5339 409.951 85.8574 409.958 86.9624C409.998 93.2256 409.978 99.4888 409.978 105.752C409.978 109.627 409.978 109.576 413.852 109.589C415.136 109.593 415.389 109.104 415.372 107.952C415.314 103.987 415.345 100.025 415.355 96.0591C415.355 95.7188 415.422 95.3751 415.486 94.7822C418.734 99.0542 421.928 103.023 424.842 107.181C426.193 109.108 427.703 109.95 429.96 109.559C430.007 109.552 430.058 109.552 430.108 109.559C430.981 109.657 431.311 109.296 431.308 108.39C431.294 101.15 431.308 93.9062 431.345 86.666C431.348 85.6822 430.94 85.3823 430.021 85.4396C429.094 85.4969 428.158 85.5036 427.231 85.4396C426.214 85.3689 425.843 85.763 425.863 86.7839C425.914 89.0816 425.88 91.3827 425.88 93.6838V99.5967C425.304 98.9262 424.984 98.5859 424.701 98.2153ZM348.08 99.2934C345.243 95.5672 342.272 91.9285 339.617 88.0709C338.205 86.0191 336.669 85.1398 334.189 85.3924C332.875 85.5238 332.441 85.8102 332.454 87.1545C332.518 93.3166 332.485 99.4787 332.481 105.641C332.481 109.62 332.481 109.583 336.42 109.579C337.545 109.579 337.956 109.283 337.929 108.094C337.855 104.623 337.902 101.15 337.899 97.6796V95.2707C338.606 95.5975 338.943 95.9883 339.257 96.3994C342.373 100.479 345.483 104.566 348.599 108.646C349.199 109.434 352.898 110.011 353.622 109.391C353.835 109.209 353.929 108.791 353.929 108.481C353.946 101.143 353.953 93.8085 353.902 86.4739C353.899 86.1337 353.356 85.5306 353.033 85.507C351.588 85.4025 350.129 85.4598 348.491 85.4598V99.1789C348.353 99.2193 348.218 99.2564 348.08 99.2934ZM148.76 32.4029C148.985 32.3322 149.211 32.1974 149.437 32.1974C152.557 32.2378 155.69 32.1469 158.796 32.3861C162.913 32.7028 165.326 35.3408 165.37 39.2119C165.417 43.3593 163.035 46.3005 158.891 46.6374C155.562 46.907 152.196 46.6913 148.76 46.6913V32.4029ZM147.19 71.3971C148.322 71.4207 148.719 71.0905 148.699 69.908C148.632 66.0941 148.74 62.2735 148.642 58.4597C148.605 57.0379 149.019 56.6741 150.431 56.6505C154.336 56.5932 158.301 56.7313 162.122 56.0845C174.436 53.9956 180.51 41.3782 174.476 30.688C171.164 24.819 165.666 22.5314 159.268 22.336C152.57 22.1305 145.862 22.2888 139.158 22.2922C138.733 22.2922 138.305 22.3528 137.793 22.3899V71.3769C141.041 71.3769 144.117 71.3365 147.19 71.3971ZM220.66 43.2986C220.711 41.9847 220.283 41.6511 219.006 41.6646C212.399 41.7253 205.796 41.6613 199.192 41.7185C197.949 41.7286 197.588 41.3277 197.636 40.1283C197.72 38.0293 197.747 35.9169 197.629 33.8213C197.548 32.3793 198.04 32.0222 199.441 32.0323C207.072 32.0997 214.704 32.0458 222.335 32.0862C223.457 32.0896 223.911 31.8032 223.864 30.6072C223.777 28.4071 223.77 26.2004 223.864 24.0037C223.921 22.6931 223.564 22.2484 222.173 22.2551C210.92 22.3124 199.667 22.2854 188.414 22.2922C187.899 22.2922 187.38 22.3461 186.747 22.3798V23.9801C186.747 39.1951 186.767 54.4134 186.716 69.6283C186.71 71.0737 187.148 71.414 188.536 71.4072C199.788 71.3567 211.041 71.3769 222.294 71.3769C222.537 71.3769 222.783 71.3601 223.025 71.3769C223.841 71.4274 224.164 71.0568 224.14 70.2415C224.103 68.8736 224.13 67.5024 224.134 66.1345V61.5593H222.264C214.973 61.5593 207.686 61.5593 200.395 61.5559C199.762 61.5559 199.111 61.5862 198.495 61.4683C198.195 61.411 197.727 61.0505 197.723 60.8214C197.669 57.7589 197.689 54.693 197.689 51.4721H220.63C220.63 48.5713 220.559 45.9333 220.66 43.2986ZM269.118 51.5294C268.623 50.8893 268.124 50.2525 267.636 49.609C260.935 40.8156 254.25 32.0155 247.512 23.2524C247.138 22.7639 246.353 22.3562 245.74 22.3326C243.152 22.2315 240.558 22.3191 237.964 22.272C237.027 22.2551 236.68 22.5449 236.68 23.5185C236.704 39.0266 236.704 54.538 236.68 70.0461C236.68 71.0804 237.044 71.4106 238.048 71.3937C240.639 71.3466 243.237 71.2994 245.824 71.4072C247.283 71.4679 247.623 70.9288 247.613 69.5542C247.559 60.6025 247.586 51.6507 247.59 42.6956C247.59 42.1868 247.633 41.6781 247.674 40.8426C248.196 41.4793 248.506 41.8364 248.792 42.2104C255.878 51.5058 262.973 60.7979 270.031 70.1135C270.715 71.0164 271.433 71.4578 272.599 71.4039C274.549 71.3095 276.513 71.2927 278.464 71.4072C279.896 71.4881 280.378 71.131 280.371 69.5744C280.31 54.3595 280.341 39.1445 280.341 23.9296C280.341 23.4107 280.29 22.8953 280.267 22.3764H269.421V51.4317C269.32 51.462 269.219 51.4957 269.118 51.5294ZM49.9906 45.6166C46.3048 48.2816 42.6257 50.9634 38.9129 53.5947C38.1212 54.154 37.855 54.6357 38.1886 55.6397C40.7963 63.5235 43.3635 71.4207 45.8803 79.3348C46.2745 80.5712 46.8641 80.9823 48.1679 80.9722C55.361 80.9081 62.5541 80.9418 69.7471 80.9418H71.5294C70.6534 83.7113 69.8549 86.2617 69.0396 88.802C67.1596 94.6609 65.3403 100.543 63.3458 106.365C62.6383 108.427 61.5568 110.371 60.5326 112.308C59.9026 113.498 58.875 114.006 57.3959 114C46.4362 113.932 35.4731 113.942 24.5099 113.993C23.2499 114 22.7277 113.558 22.3503 112.399C14.9955 89.6207 7.61044 66.8522 0.191633 44.0938C-0.165494 42.9988 -0.0778965 42.3991 0.922732 41.6815C10.0699 35.1285 19.1766 28.5217 28.2699 21.8946C29.2335 21.1938 30.1903 20.8906 31.2718 21.3488C32.6565 21.9384 34.1389 22.4303 35.3417 23.2962C42.6931 28.5756 49.9738 33.9527 57.278 39.2928C57.4734 39.4343 57.6958 39.5421 58.0698 39.7611C55.206 41.8364 52.6017 43.7299 49.9906 45.6166Z" fill="#0C284D"/>
<path fill-rule="evenodd" clip-rule="evenodd" d="M110.308 44.7683C104.206 64.0262 98.0069 83.2538 91.8515 102.495C90.5712 106.497 89.4224 110.554 86.0061 113.468C86.2621 113.606 86.38 113.717 86.5114 113.738C92.0873 114.593 97.3162 113.283 99.395 106.757C105.446 87.792 111.547 68.8407 117.807 49.9433C119.66 44.3505 117.598 39.1924 112.006 36.9183C111.443 39.5698 111.106 42.2415 110.308 44.7683ZM100.47 38.0705C93.7281 59.2185 86.9191 80.3462 80.0966 101.467C78.7086 105.76 77.7517 110.288 74.0221 113.471C80.7536 115.183 85.5546 112.195 87.1853 107.03C91.3866 93.7452 95.7833 80.5214 100.106 67.274C102.805 58.9995 105.527 50.735 108.212 42.4571C109.994 36.9587 107.407 31.8141 102.279 30.0486C101.693 32.7035 101.302 35.4594 100.47 38.0705ZM294.939 69.1843C294.942 71.0946 294.945 71.098 296.913 71.1014C299.211 71.1081 301.515 71.034 303.813 71.1283C305.201 71.1856 305.693 70.7577 305.673 69.3191C305.595 64.2284 305.713 59.1343 305.599 54.0469C305.565 52.4802 306.087 52.1939 307.509 52.2107C314.116 52.2781 320.726 52.2141 327.333 52.2612C328.536 52.268 328.987 51.9109 328.94 50.6778C328.859 48.6765 328.92 46.6651 328.916 44.6605C328.913 42.602 328.91 42.5952 326.78 42.5952C320.318 42.5952 313.856 42.5683 307.398 42.6155C306.077 42.6256 305.562 42.2213 305.619 40.85C305.713 38.6534 305.642 36.4466 305.642 34.2432C305.646 32.0499 305.649 32.0432 307.819 32.0432C315.308 32.0398 322.798 32.0095 330.288 32.0701C331.723 32.0836 332.168 31.6119 332.1 30.2171C332.002 28.1687 332.009 26.1068 332.097 24.0516C332.151 22.7747 331.736 22.367 330.432 22.3738C319.176 22.4176 307.917 22.4209 296.66 22.3738C295.326 22.367 294.898 22.741 294.908 24.1055C294.969 31.5917 294.939 39.0812 294.939 46.5708V69.1843ZM343.026 69.336C343.026 70.3602 343.067 71.125 344.461 71.1216C355.866 71.0845 367.267 71.0913 378.671 71.1148C379.8 71.1182 380.097 70.6128 380.073 69.5954C380.029 67.6379 380.066 65.6805 380.063 63.723C380.056 61.7352 380.056 61.7318 378.001 61.7285C370.464 61.7285 362.928 61.6982 355.391 61.7554C353.966 61.7689 353.508 61.3006 353.565 59.9024C353.656 57.6552 353.663 55.3979 353.561 53.1507C353.497 51.7188 354.013 51.3179 355.408 51.3314C361.917 51.392 368.426 51.3347 374.935 51.3785C376.128 51.3886 376.603 51.0349 376.556 49.8018C376.482 47.75 376.461 45.6881 376.562 43.6363C376.633 42.2213 376.141 41.7866 374.73 41.8001C368.22 41.8641 361.711 41.8069 355.202 41.8473C354.013 41.854 353.531 41.4801 353.572 40.2503C353.639 38.148 353.585 36.0423 353.588 33.94C353.592 31.9353 353.598 31.9286 355.654 31.9286C363.093 31.9252 370.532 31.905 377.971 31.9522C379.271 31.9623 379.83 31.6389 379.753 30.2339C379.645 28.2327 379.652 26.2179 379.753 24.2167C379.824 22.8286 379.403 22.3637 377.957 22.3704C366.944 22.4243 355.933 22.4277 344.92 22.367C343.444 22.3603 342.989 22.768 343.003 24.2605C343.073 31.75 343.036 39.2362 343.036 46.7258C343.036 54.2625 343.043 61.7992 343.026 69.336ZM403.536 33.7344C403.515 32.3868 403.977 31.9219 405.321 31.9791C408.347 32.1139 411.402 31.905 414.401 32.2487C422.945 33.2223 427.645 40.6075 426.628 48.8012C425.637 56.7321 420.3 61.3343 412.305 61.4893C410.004 61.5364 407.703 61.4387 405.409 61.5331C404.017 61.5903 403.509 61.1389 403.532 59.7104C403.603 55.3575 403.559 51.0012 403.559 46.6483C403.559 42.3426 403.6 38.0368 403.536 33.7344ZM393.007 69.0361C393.007 71.098 393.014 71.1014 395.136 71.1014C398.954 71.1047 402.767 71.1485 406.585 71.0913C410.051 71.034 413.559 71.1654 416.975 70.6937C433.629 68.396 442.907 50.7317 435.32 35.729C430.687 26.5683 422.612 22.805 412.764 22.4412C406.756 22.2188 400.732 22.4378 394.715 22.3704C393.344 22.3536 392.973 22.7983 392.98 24.1257C393.034 31.6591 393.007 39.1924 393.007 46.7291V69.0361ZM74.7903 107.714C77.5631 99.1998 80.3426 90.6894 83.1221 82.179C88.2533 66.4587 93.4114 50.7485 98.5089 35.0181C99.9778 30.4934 98.4988 26.5582 94.5232 23.9202C93.7079 23.3778 92.8488 22.9027 92.057 22.33C82.9941 15.7467 73.9817 9.08596 64.8615 2.58019C60.0807 -0.832729 53.8141 1.33698 50.3439 6.1683C53.9624 6.17167 56.8564 7.89329 59.6056 9.86423C69.43 16.9023 79.2274 23.9808 89.0315 31.0459C90.4803 32.0903 90.5039 32.2857 89.4493 33.9366C88.9743 33.6031 88.4959 33.2796 88.0309 32.9393C77.5395 25.3184 66.9975 17.7716 56.5869 10.0394C51.4962 6.25927 45.516 7.56312 41.4495 12.2192C41.3147 12.3742 41.2978 12.6303 41.1968 12.9167C44.5625 12.9268 47.2275 14.4732 49.7442 16.2858C61.58 24.7995 73.3955 33.347 85.2143 41.8843C86.9865 43.1646 87.0134 43.3634 85.7972 45.3916C84.4091 44.391 83.0244 43.3971 81.6498 42.3931C69.8613 33.8119 58.0491 25.2577 46.2976 16.6328C41.5202 13.1289 35.7017 14.7158 32.3057 19.0417C34.7348 20.3456 37.3897 21.4203 39.6537 23.0375C53.7838 33.1415 67.8196 43.3735 81.9092 53.5314C82.7953 54.1715 83.048 54.7039 82.6875 55.8123C77.5765 71.5394 72.5195 87.2833 67.449 103.02C66.2664 106.693 65.2489 110.443 62.4862 113.559C68.4024 114.9 73.1293 112.808 74.7903 107.714Z" fill="#019CDB"/>
</svg>
