<svg width="560" height="280" viewBox="0 0 613 162" fill="none" xmlns="http://www.w3.org/2000/svg">
<g clip-path="url(#clip0_3042_485)">
<path d="M178.73 44.8929C146.234 44.8929 119.646 71.2418 119.646 103.446C119.646 135.65 146.234 161.999 178.73 161.999C211.227 161.999 237.814 135.65 237.814 103.446C237.814 71.2418 211.227 44.8929 178.73 44.8929ZM207.534 102.714C207.534 118.816 194.978 131.991 179.469 131.991C163.959 131.991 151.404 118.816 151.404 102.714C151.404 86.612 163.959 73.4375 179.469 73.4375C194.978 73.4375 207.534 86.612 207.534 102.714ZM385.525 47.0886C384.787 46.3567 384.048 46.3567 383.31 46.3567H359.676C358.199 46.3567 356.722 47.8205 356.722 49.2843V155.412C356.722 156.144 356.722 156.876 357.46 157.608C358.199 158.34 358.937 158.34 359.676 158.34H383.31C384.787 158.34 386.264 156.876 386.264 155.412V49.2843C386.264 48.5524 386.264 47.8205 385.525 47.0886ZM371.493 32.4503C380.355 32.4503 387.741 25.1312 387.741 16.3482C388.48 7.56524 380.355 0.246094 371.493 0.246094C362.63 0.246094 355.245 7.56524 355.245 16.3482C355.245 25.8631 362.63 32.4503 371.493 32.4503ZM339.735 2.44184H253.324C251.847 2.44184 250.37 3.90566 250.37 5.36949V155.412C250.37 156.144 250.37 156.876 251.108 157.608C251.847 158.34 252.586 158.34 253.324 158.34H276.958C278.435 158.34 279.912 156.876 279.912 155.412V94.663H333.088C333.827 94.663 334.565 94.663 335.304 93.9311C336.042 93.1992 336.042 92.4673 336.042 91.7354V69.7779C336.042 68.3141 334.565 66.8503 333.088 66.8503H279.912V30.2546H339.735C340.474 30.2546 341.212 30.2546 341.951 29.5227C342.689 28.7907 342.689 28.0588 342.689 27.3269V5.36949C342.689 3.90566 341.212 2.44184 339.735 2.44184ZM64.2542 67.5822C40.6205 57.3354 33.2349 52.9439 33.2349 44.1609C33.2349 32.4503 44.3133 28.7907 54.653 28.7907C65.7313 28.7907 77.5482 34.6461 77.5482 50.7482C77.5482 52.212 78.2868 52.9439 79.7639 52.9439H105.613C106.352 52.212 107.09 51.4801 107.09 50.7482C107.09 21.4716 85.6723 0.246094 54.653 0.246094C23.6337 0.246094 3.69277 17.812 3.69277 44.1609C3.69277 75.6333 27.3265 85.1481 50.2217 93.9311L51.6988 94.663C73.1169 102.714 80.5024 106.374 80.5024 116.62C80.5024 130.527 65.7313 132.723 57.6072 132.723C42.0976 132.723 30.2807 121.744 30.2807 107.106V105.642C30.2807 104.178 29.5422 103.446 28.0651 103.446H2.21566C1.47711 103.446 0 104.178 0 105.642V107.837C0 140.042 23.6337 161.999 56.8687 161.999C88.6265 161.999 110.045 143.701 110.045 117.352C110.783 90.2715 96.7506 80.7567 64.2542 67.5822ZM613 153.948C613 158.34 610.046 161.267 605.615 161.267C601.183 161.267 598.229 158.34 598.229 153.948C598.229 149.557 601.183 146.629 605.615 146.629C610.046 146.629 613 149.557 613 153.948ZM599.706 153.948C599.706 157.608 601.922 159.803 605.615 159.803C609.307 159.803 611.523 157.608 611.523 153.948C611.523 150.288 609.307 148.093 605.615 148.093C601.922 148.093 599.706 150.288 599.706 153.948ZM608.569 152.484C608.569 153.216 607.83 153.948 607.092 154.68L608.569 157.608H606.353L604.876 154.68H604.137V157.608H602.66V150.288H605.615C607.092 150.288 608.569 151.02 608.569 152.484ZM604.876 151.752V153.948H605.615C606.353 153.948 607.092 153.216 607.092 153.216C607.092 152.484 606.353 152.484 605.615 152.484H604.876V151.752ZM574.595 6.83332C584.935 6.83332 593.059 14.8844 593.059 25.1312C593.059 35.378 584.935 43.429 574.595 43.429C564.255 43.429 556.131 35.378 556.131 25.1312C556.131 14.8844 564.255 6.83332 574.595 6.83332ZM574.595 0.246094C560.563 0.246094 548.746 11.9567 548.746 25.8631C548.746 39.7695 560.563 51.4801 574.595 51.4801C588.628 51.4801 600.445 39.7695 600.445 25.8631C600.445 11.9567 588.628 0.246094 574.595 0.246094Z" fill="#00A2C7"/>
<path d="M586.902 103.199C599.443 96.4395 604.081 80.8846 597.261 68.4557C590.441 56.0268 574.745 51.4304 562.203 58.1894C549.661 64.9485 545.023 80.5034 551.843 92.9323C558.664 105.361 574.36 109.958 586.902 103.199Z" fill="#00A2C7"/>
<path d="M586.864 158.093C599.406 151.334 604.044 135.779 597.224 123.35C590.403 110.921 574.707 106.325 562.166 113.084C549.624 119.843 544.986 135.398 551.806 147.827C558.627 160.256 574.323 164.852 586.864 158.093Z" fill="#00A2C7"/>
<path d="M519.204 62.4598C524.374 62.4598 528.805 64.6555 532.498 67.5832C536.191 71.2427 537.668 75.6342 537.668 80.7576C537.668 91.0044 529.544 99.0555 519.204 99.0555C514.034 99.0555 509.603 96.8597 505.91 93.9321C502.217 90.2725 500.74 85.881 500.74 80.7576C500.001 70.5108 508.864 62.4598 519.204 62.4598ZM519.204 55.1406C505.171 55.1406 493.354 66.8513 493.354 80.7576C493.354 94.664 505.171 106.375 519.204 106.375C533.236 106.375 545.053 94.664 545.053 80.7576C545.053 66.8513 533.236 55.1406 519.204 55.1406Z" fill="#00A2C7"/>
<path d="M487.275 90.9282C493.057 77.9924 487.162 62.8611 474.109 57.1315C461.056 51.4019 445.787 57.2436 440.006 70.1793C434.224 83.1151 440.119 98.2463 453.172 103.976C466.225 109.706 481.494 103.864 487.275 90.9282Z" fill="#00A2C7"/>
<path d="M542.778 36.059C548.56 23.1233 542.665 7.99198 529.612 2.26234C516.559 -3.46729 501.29 2.37442 495.509 15.3102C489.727 28.2459 495.622 43.3772 508.675 49.1068C521.728 54.8365 536.996 48.9948 542.778 36.059Z" fill="#00A2C7"/>
<path d="M487.343 35.9907C493.124 23.0549 487.229 7.92364 474.176 2.19401C461.123 -3.53563 445.855 2.30606 440.073 15.2418C434.291 28.1776 440.186 43.3088 453.239 49.0385C466.292 54.7681 481.561 48.9264 487.343 35.9907Z" fill="#00A2C7"/>
<path d="M542.642 145.932C548.424 132.996 542.529 117.865 529.476 112.135C516.423 106.406 501.154 112.247 495.373 125.183C489.591 138.119 495.486 153.25 508.539 158.98C521.592 164.71 536.861 158.868 542.642 145.932Z" fill="#00A2C7"/>
<path d="M463.812 117.352C468.982 117.352 473.413 119.548 477.106 122.476C480.799 126.135 482.276 130.527 482.276 135.65C482.276 145.897 474.152 153.948 463.812 153.948C453.473 153.948 445.348 145.897 445.348 135.65C444.61 125.403 453.473 117.352 463.812 117.352ZM463.812 110.033C449.78 110.033 437.963 121.744 437.963 135.65C437.963 149.557 449.78 161.267 463.812 161.267C477.845 161.267 489.662 149.557 489.662 135.65C489.662 121.744 477.845 110.033 463.812 110.033Z" fill="#00A2C7"/>
</g>
<defs>
<clipPath id="clip0_3042_485">
<rect width="613" height="162" fill="white"/>
</clipPath>
</defs>
</svg>
