<svg width="36" height="28" viewBox="0 0 36 28" fill="none" xmlns="http://www.w3.org/2000/svg">
<path d="M35.0022 3.33703C34.453 3.57217 33.8884 3.77062 33.3114 3.93173C33.9945 3.18605 34.5153 2.30864 34.8332 1.3485C34.9044 1.13329 34.8306 0.897716 34.6473 0.756961C34.4643 0.616097 34.21 0.599224 34.0085 0.714506C32.7832 1.41599 31.4613 1.92012 30.0753 2.21491C28.679 0.897934 26.7827 0.148438 24.8223 0.148438C20.6842 0.148438 17.3175 3.39821 17.3175 7.39269C17.3175 7.7073 17.3381 8.02016 17.379 8.32867C12.2439 7.89345 7.47001 5.45707 4.19176 1.57526C4.07493 1.4369 3.89495 1.36233 3.71068 1.37659C3.5263 1.39052 3.36064 1.49089 3.26749 1.64514C2.60259 2.74647 2.25109 4.00608 2.25109 5.28768C2.25109 7.03324 2.8967 8.68943 4.03715 9.98354C3.69038 9.86761 3.35387 9.72272 3.0327 9.55061C2.86027 9.45797 2.64984 9.45939 2.47854 9.5542C2.30713 9.64902 2.19966 9.82341 2.19515 10.014C2.19436 10.0461 2.19436 10.0783 2.19436 10.1108C2.19436 12.7163 3.64708 15.0622 5.8681 16.3407C5.67729 16.3223 5.48659 16.2956 5.29714 16.2607C5.10182 16.2247 4.90097 16.2907 4.76926 16.4345C4.63732 16.5782 4.59367 16.7785 4.65446 16.9614C5.47656 19.4391 7.59315 21.2615 10.1519 21.8171C8.02969 23.1002 5.60275 23.7723 3.05503 23.7723C2.52343 23.7723 1.98878 23.7422 1.46552 23.6824C1.20559 23.6526 0.95704 23.8007 0.868515 24.0393C0.77999 24.2781 0.873815 24.5442 1.09496 24.6811C4.36791 26.7068 8.15238 27.7776 12.039 27.7776C19.6797 27.7776 24.4595 24.2995 27.1237 21.3818C30.4459 17.7436 32.3513 12.928 32.3513 8.16984C32.3513 7.97106 32.3481 7.77033 32.3418 7.57024C33.6526 6.61696 34.7811 5.46327 35.6994 4.13726C35.8389 3.93587 35.8237 3.66971 35.6621 3.48432C35.5008 3.29882 35.2318 3.23884 35.0022 3.33703Z" fill="white"/>
</svg>
