<svg width="560" height="280" viewBox="0 0 545 99" fill="none" xmlns="http://www.w3.org/2000/svg">
<g clip-path="url(#clip0_2796_1291)">
<path d="M214.702 45.3542C214.702 69.2383 201.141 81.2393 180.088 81.2393C159.034 81.2393 145.829 69.2383 145.829 46.0416V0.0214844H159.963V45.472C159.963 60.321 167.673 68.3152 180.325 68.3152C192.977 68.3152 200.568 60.7728 200.568 46.0416V0.0214844H214.702V45.3542Z" fill="#333333"/>
<path d="M261.884 81.2298C257.841 81.265 253.851 80.3147 250.264 78.4622C246.676 76.6097 243.6 73.9114 241.306 70.6037V98.2197H227.468V19.6535H241.306V29.71C245.793 23.4247 252.119 18.3965 261.884 18.3965C276.256 18.3965 290.173 29.71 290.173 49.823C290.173 69.9359 276.434 81.2298 261.884 81.2298ZM258.642 30.3778C249.213 30.3778 240.851 38.038 240.851 49.8033C240.851 61.5686 249.134 69.2288 258.642 69.2288C268.151 69.2288 275.999 61.8043 275.999 49.8033C275.999 37.8023 268.092 30.3778 258.642 30.3778Z" fill="#333333"/>
<path d="M322.748 81.132C313.42 80.9952 304.395 77.8289 297.049 72.1165L303.256 62.7475C308.92 67.2632 315.887 69.8643 323.143 70.172C329.074 70.172 332.572 67.6579 332.572 63.651V63.4153C332.572 58.7406 326.128 57.13 319.011 54.9695C310.037 52.4553 300.034 48.802 300.034 37.2921V37.0564C300.034 25.625 309.582 18.6719 321.641 18.6719C329.559 18.8429 337.268 21.2327 343.88 25.5661L338.365 35.3868C333.248 32.0351 327.341 30.0652 321.225 29.6711C315.829 29.6711 312.725 32.1853 312.725 35.7207V35.9564C312.725 40.2972 319.288 42.1239 326.405 44.4023C335.261 47.1521 345.264 51.1394 345.264 62.0797V62.3154C345.284 74.8467 335.399 81.132 322.748 81.132Z" fill="#333333"/>
<path d="M373.288 61.1326C373.288 66.4947 376.055 68.6749 380.76 68.6749C383.758 68.6877 386.715 67.9801 389.379 66.6126V77.9261C385.557 80.0556 381.227 81.121 376.846 81.0098C366.606 81.0098 359.371 76.5512 359.371 63.3324V31.4542H351.661V19.6693H359.45V3.0918H373.288V19.6693H389.616V31.4542H373.288V61.1326Z" fill="#333333"/>
<path d="M439.454 79.9746V72.5501C437.055 75.3875 434.037 77.6442 430.629 79.1485C427.22 80.6529 423.512 81.3653 419.785 81.2317C408.279 81.2317 398.178 74.7107 398.178 62.6115V62.3758C398.178 49.3535 408.635 42.9503 422.789 42.9503C428.486 42.8481 434.159 43.698 439.573 45.4644V43.9717C439.573 35.624 434.275 31.0672 424.628 31.0672C418.639 31.0906 412.723 32.3759 407.271 34.8384L403.476 23.7605C410.713 20.3345 418.648 18.6138 426.664 18.7323C444.614 18.7323 453.351 28.1013 453.351 44.2663V79.9746H439.454ZM439.81 54.4406C435.378 52.8276 430.692 52.0161 425.972 52.0444C417.234 52.0444 412.134 55.5798 412.134 61.7473V61.983C412.134 67.6987 417.313 70.9002 423.857 70.9002C433.049 70.9002 439.948 65.7542 439.948 58.2118V54.3817L439.81 54.4406Z" fill="#333333"/>
<path d="M477.429 79.9837H463.591V19.6645H477.429V33.2564C481.224 24.2213 488.242 18.0539 498.937 18.5253V33.1582H498.126C485.929 33.1582 477.429 41.0149 477.429 57.0424V79.9837Z" fill="#333333"/>
<path d="M528.61 61.1326C528.61 66.4947 531.377 68.6749 536.082 68.6749C539.081 68.6877 542.038 67.9801 544.701 66.6126V77.9261C540.879 80.0556 536.549 81.121 532.168 81.0098C521.928 81.0098 514.693 76.5512 514.693 63.3324V31.4542H506.983V19.6693H514.693V3.0918H528.531V19.6693H544.859V31.4542H528.531L528.61 61.1326Z" fill="#333333"/>
<path d="M15.6011 35.5021L6.19136 44.8318C2.21498 48.7872 -0.0185547 54.1492 -0.0185547 59.7398C-0.0185547 65.3304 2.21498 70.6923 6.19136 74.6477C10.1749 78.5711 15.5569 80.7724 21.1659 80.7724C26.7749 80.7724 32.1568 78.5711 36.1404 74.6477L57.0948 53.8277C57.9519 53.1422 59.0191 52.7684 60.1193 52.7684C61.2196 52.7684 62.2868 53.1422 63.1439 53.8277L45.1349 35.8949C41.2339 32.0193 35.9645 29.8096 30.4483 29.7363C24.9322 29.6629 19.6051 31.7316 15.6011 35.5021Z" fill="#00918C"/>
<path d="M114.045 44.8428L75.1213 6.16857C74.6073 5.65789 74.0736 5.18649 73.52 4.73473C69.4481 1.44797 64.2974 -0.227702 59.0576 0.02971C53.8177 0.287121 48.8585 2.45946 45.1327 6.12928L44.7374 6.54176L43.571 7.70061L15.5791 35.513C19.5867 31.7393 24.9194 29.6703 30.4403 29.7474C35.9613 29.8244 41.2334 32.0414 45.1327 35.9255L63.1812 53.8582L84.0763 74.6586C88.0557 78.6073 93.4507 80.8235 99.0747 80.8198C104.699 80.8161 110.091 78.5928 114.065 74.639C118.039 70.6852 120.27 65.3247 120.266 59.7368C120.262 54.1489 118.024 48.7914 114.045 44.8428Z" fill="#00ADA8"/>
</g>
<defs>
<clipPath id="clip0_2796_1291">
<rect width="544.933" height="98.2667" fill="white"/>
</clipPath>
</defs>
</svg>
