<?xml version="1.0" encoding="utf-8"?>
<!-- Generator: Adobe Illustrator 26.0.3, SVG Export Plug-In . SVG Version: 6.00 Build 0)  -->
<svg version="1.1" id="Layer_1" xmlns="http://www.w3.org/2000/svg" xmlns:xlink="http://www.w3.org/1999/xlink" x="0px" y="0px"
	 viewBox="0 0 694.2 218.6" style="enable-background:new 0 0 694.2 218.6;" xml:space="preserve">
<style type="text/css">
	.st0{fill:#293861;}
</style>
<g>
	<g>
		<path class="st0" d="M94.4,163.2v18.4c0,2.2-1.8,4-4,4H4c-2.2,0-4-1.8-4-4v-16.3c0-1.1,0.3-2.3,0.9-3.2L58.3,72H5.5
			c-2.2,0-4-1.8-4-4V49.6c0-2.2,1.8-4,4-4h83.8c2.2,0,4,1.8,4,4v15.9c0,1.1-0.3,2.3-0.9,3.2L35,159.2h55.4
			C92.6,159.2,94.4,161,94.4,163.2z"/>
		<path class="st0" d="M197.1,86.1l-21.4,11.4c-7.7-9.7-18.6-14.6-32.6-14.6c-13.3,0-24.8,5.1-34.3,15.3
			c-9.5,10.2-14.3,22.7-14.3,37.5s4.8,27.3,14.3,37.5c9.5,10.2,21,15.3,34.3,15.3c14,0,24.9-4.9,32.6-14.6v7.8c0,2.2,1.8,4,4,4h17.8
			c2.2,0,4-1.8,4-4V88.7C201.5,86.5,199.1,85,197.1,86.1z M167.8,155.9c-5.3,5.3-11.9,7.9-19.9,7.9s-14.6-2.6-19.8-7.9
			c-5.2-5.3-7.8-12-7.8-20.3c0-8.3,2.6-15,7.8-20.3c5.2-5.3,11.8-7.9,19.8-7.9s14.6,2.6,19.9,7.9c5.3,5.3,7.9,12,7.9,20.3
			C175.7,143.9,173,150.7,167.8,155.9z"/>
		<path class="st0" d="M309.6,98.1c-9.5-10.2-21-15.3-34.5-15.3c-14,0-24.8,4.9-32.4,14.6V49.7c0-3-3.2-4.9-5.9-3.5L219,55.6
			c-1.3,0.7-2.1,2.1-2.1,3.5v122.5c0,2.2,1.8,4,4,4h17.8c2.2,0,4-1.8,4-4v-7.8c7.6,9.7,18.4,14.6,32.4,14.6c13.5,0,25-5.1,34.5-15.3
			c9.5-10.2,14.3-22.7,14.3-37.5S319.1,108.3,309.6,98.1z M290.2,155.9c-5.3,5.3-11.9,7.9-19.9,7.9s-14.6-2.6-19.8-7.9
			c-5.2-5.3-7.8-12-7.8-20.3c0-8.3,2.6-15,7.8-20.3c5.2-5.3,11.8-7.9,19.8-7.9s14.6,2.6,19.9,7.9c5.3,5.3,7.9,12,7.9,20.3
			C298.1,143.9,295.4,150.7,290.2,155.9z"/>
		<path class="st0" d="M359.9,36.2v145.5c0,2.2-1.8,4-4,4h-17.8c-2.2,0-4-1.8-4-4v-136c0-1.5,0.8-2.8,2.1-3.5l17.8-9.5
			C356.7,31.2,359.9,33.2,359.9,36.2z"/>
		<path class="st0" d="M459.4,98c-9.5-10.1-21.6-15.2-36.3-15.2c-15.5,0-28.1,5-38,15.1c-9.9,10.1-14.8,22.6-14.8,37.7
			c0,15.2,5,27.8,15,37.8s23.3,15,39.8,15c17.4,0,31-5.9,40.8-17.7c1.6-1.9,1-4.8-1.1-6l-14-8.1c-1.6-0.9-3.6-0.7-4.8,0.6
			c-5,5.1-11.8,7.7-20.4,7.7c-15.3,0-24.7-6.3-28.2-18.8h72c2,0,3.7-1.5,4-3.5c0.3-2.5,0.5-4.8,0.5-7.1
			C473.7,120.7,468.9,108.2,459.4,98z M396.9,126.2c1.5-6.4,4.5-11.4,9-14.9c4.5-3.5,10.3-5.3,17.2-5.3c5.9,0,11.1,1.7,15.7,5
			c4.6,3.3,7.6,8.4,9.1,15.2H396.9z"/>
	</g>
	<g>
		<path class="st0" d="M690,145.2c-5.9-8.8-14.6-14.3-25.8-17.4c10.3-11.9,14.1-25.2,11.5-39.5c-6.5-35.5-51.8-66.3-74.9-77.6
			C590,5.4,578.6,1.8,568.7,0.5c-12.5-1.6-22.5,0.5-29.1,6.1c-10.9,9.3-9,24.7-5.5,36c4.8,15.5,15.3,28.7,27.3,38.9
			c-19.4,17.2-31.8,39.9-37.2,55.1c-4.5,12.7-5.6,25.2-3.3,37c3,15.2,11.7,27.8,24.4,35.6c10.3,6.2,22.9,9.4,37.6,9.4
			c7.4,0,15.3-0.8,23.8-2.4c44.6-8.3,76.5-25.6,85.3-46.4C695.6,161.3,694.9,152.5,690,145.2z M678,164c-5,11.8-27.4,28.7-74.1,37.4
			c-21.6,4-38.7,2.3-50.8-5.1c-5.8-3.5-9.8-8-12.5-12.5c-2.7-4.5-4.2-9.1-4.9-13c-1.8-9.3-0.9-18.8,2.7-29
			c3.4-9.6,11-24.5,22.1-37.6c4.2-5,8.7-9.5,13.3-13.3c4.7,3.1,9.5,5.7,14,7.9c16.8,7.9,32.3,10.1,42.6,5.9
			c12.3-5,18.1-15.4,14.7-26.4c-3.7-12.4-19-23.2-40-19c-11.7,2.3-22.2,7-31.5,13.1c-14-11.3-22.1-24.4-25.1-34
			c-2.1-6.9-3.7-16,0.9-20c6.7-5.7,25.9-3.1,44.7,6.2c5.1,2.5,22.9,11.8,40.2,27.4c15.1,13.6,24.2,27.2,26.4,39.3
			c1.9,10.3-1.2,19.6-9.4,28.4c-1.8,1.9-3.6,3.7-5.3,5.5c-14-0.9-30.4,0.3-48.9,2.6c-35.4,4.4-41.2,22.1-42.1,27.5
			c-1.6,9.2,3.2,18.1,12.3,22.6c25.9,13,62.4-15.8,84.3-37c12.8,1.7,21,5.9,25.7,12.9C679.4,156.7,679.6,160.1,678,164z M587.4,81.4
			c6.6-3.6,13.5-6.1,20.7-7.6c12.8-2.6,21,3.6,22.5,8.6c1.2,4.1-2.6,6.7-6,8.1c-6.1,2.5-18,0.3-30.4-5.5
			C591.9,83.8,589.6,82.7,587.4,81.4z M630.2,139.8c-23.9,20.6-44.7,30-56,24.3c-1.5-0.7-4.8-2.9-4.2-6.5c0.8-4.3,7.7-12.4,29-15
			C611.3,141,621.5,140.1,630.2,139.8z"/>
	</g>
</g>
</svg>
