<svg width="1192" height="214" viewBox="0 0 1192 214" fill="none" xmlns="http://www.w3.org/2000/svg">
<path d="M260.685 86.6893C263.689 83.5916 267.337 81.1927 271.372 79.6628C275.758 78.0138 280.412 77.1938 285.098 77.2444C290.52 77.1877 295.877 78.4316 300.72 80.872C305.742 83.5045 310.187 87.1159 313.792 91.4934L335.689 71.6559C329.844 64.1997 322.226 58.324 313.531 54.5636C295.401 47.2477 275.221 46.8176 256.796 53.3544C248.933 56.2701 241.724 60.7129 235.586 66.4269C229.555 72.0637 224.768 78.8985 221.533 86.4931C214.73 102.881 214.707 121.299 221.468 137.705C224.703 145.299 229.49 152.134 235.521 157.771C241.669 163.472 248.875 167.913 256.731 170.843C265.247 173.972 274.26 175.534 283.333 175.451C293.681 175.615 303.948 173.6 313.465 169.536C322.162 165.716 329.775 159.798 335.623 152.313L313.727 132.508C310.161 136.967 305.71 140.639 300.654 143.293C295.814 145.744 290.458 146.999 285.033 146.953C280.344 147.01 275.686 146.178 271.307 144.502C267.264 142.988 263.612 140.587 260.62 137.476C257.58 134.299 255.212 130.542 253.659 126.43C250.304 117.226 250.304 107.135 253.659 97.9316C255.208 93.7434 257.599 89.9174 260.685 86.6893Z" fill="#1A4048"/>
<path d="M377.553 43.875H344.545V172.802H377.553V43.875Z" fill="#1A4048"/>
<path d="M652.139 89.9586V78.4548H620.503V172.805H653.511V129.536C653.511 121.3 655.603 115.385 659.786 111.724C664.358 107.925 670.189 105.977 676.126 106.267C677.303 106.267 678.447 106.267 679.623 106.267C680.8 106.267 682.107 106.463 683.61 106.691V76.8207C675.705 76.5728 667.877 78.434 660.93 82.2131C657.525 84.201 654.539 86.8316 652.139 89.9586Z" fill="#1A4048"/>
<path d="M599.228 87.5085C582.888 73.717 560.011 73.815 539.879 80.2859C535.373 81.5477 530.996 83.2328 526.807 85.3188C529.413 84.0814 532.086 82.9903 534.814 82.0507C530.307 83.7771 525.937 85.8419 521.741 88.2274C497.851 101.855 488.406 131.661 463.144 143.785C459.865 145.369 456.439 146.628 452.914 147.544C449.509 148.659 445.942 149.2 442.358 149.145C437.91 149.26 433.494 148.354 429.449 146.498C425.998 144.785 423.141 142.075 421.246 138.72C420.393 137.258 419.744 135.685 419.318 134.047H463.634C473.896 132.347 482.524 121.268 487.132 113.948C486.163 108.797 484.258 103.868 481.51 99.4044C477.075 92.2815 470.766 86.5155 463.274 82.737C455.434 78.7856 446.758 76.7791 437.979 76.8871C428.702 76.7507 419.534 78.8941 411.279 83.1291C403.674 87.096 397.317 93.0913 392.912 100.45C388.362 108.092 386.041 116.854 386.212 125.745C386.053 134.571 388.423 143.258 393.042 150.779C397.76 158.231 404.444 164.237 412.357 168.133C421.492 172.649 431.582 174.891 441.77 174.669C446.232 174.714 450.687 174.32 455.071 173.493H455.333C464.68 172.643 486.674 166.793 506.381 138.753C514.715 126.889 522.721 115.876 535.01 109.732C543.572 105.385 562.854 96.6592 574.227 106.758C575.68 108.137 576.842 109.793 577.645 111.628C578.448 113.464 578.875 115.441 578.9 117.444H560.207C552.179 117.156 544.163 118.262 536.513 120.713C531.021 122.457 526.218 125.888 522.787 130.517C519.773 134.977 518.23 140.268 518.375 145.648C518.317 150.797 519.734 155.855 522.46 160.224C525.357 164.789 529.51 168.421 534.421 170.682C540.408 173.36 546.918 174.667 553.475 174.506C560.456 174.831 567.379 173.092 573.377 169.506C576.636 167.24 579.249 164.165 580.959 160.584V172.904H611.712V120.615C611.799 105.581 607.638 94.5459 599.228 87.5085ZM420.854 110.385C422.358 107.286 424.761 104.712 427.75 102.999C430.982 101.196 434.639 100.293 438.339 100.385C441.923 100.305 445.461 101.209 448.568 102.999C451.497 104.787 453.881 107.341 455.463 110.385C456.427 112.321 457.089 114.393 457.424 116.529H418.926C419.297 114.452 419.934 112.431 420.821 110.516L420.854 110.385ZM578.803 142.446C577.794 145.913 575.535 148.883 572.462 150.779C569.512 152.585 566.117 153.536 562.658 153.525C559.41 153.711 556.202 152.738 553.605 150.779C552.568 149.973 551.732 148.936 551.165 147.75C550.597 146.564 550.314 145.263 550.337 143.949C550.266 142.609 550.527 141.272 551.097 140.058C551.667 138.843 552.529 137.789 553.605 136.988C557 135.068 560.898 134.225 564.782 134.569H579.031L578.803 142.446Z" fill="#1A4048"/>
<path d="M1038.07 85.5819C1036.39 83.8469 1034.5 82.3217 1032.45 81.0393C1026.19 77.2913 1018.99 75.4091 1011.7 75.6142C1003.46 75.5353 995.348 77.6201 988.169 81.6602C982.898 84.6364 978.287 88.6544 974.618 93.4695C970.949 98.2845 968.299 103.796 966.828 109.668C965.718 105.682 964.045 101.874 961.861 98.3603C957.371 91.1621 950.996 85.3301 943.428 81.4967C935.491 77.5195 926.716 75.5023 917.839 75.6142C908.456 75.4398 899.178 77.6076 890.844 81.9216C883.398 85.8153 877.125 91.6254 872.674 98.7524V75.6142C864.702 75.3618 856.806 77.2342 849.797 81.0393C846.369 83.0199 843.352 85.6378 840.907 88.752V77.2482H808.913V146.957L792.114 131.76C788.544 136.241 784.095 139.944 779.042 142.643C774.14 145.12 768.716 146.386 763.224 146.336C758.482 146.392 753.771 145.561 749.335 143.885C745.247 142.338 741.553 139.905 738.517 136.761C735.45 133.543 733.06 129.743 731.491 125.584C728.093 116.276 728.093 106.067 731.491 96.7589C733.069 92.6141 735.458 88.8255 738.517 85.6146C741.553 82.4705 745.247 80.0375 749.335 78.4901C753.769 76.8033 758.48 75.9609 763.224 76.0063C768.716 75.9563 774.14 77.2226 779.042 79.6993C784.062 82.3914 788.504 86.0448 792.114 90.4515L814.272 70.3852C808.364 62.8366 800.656 56.892 791.853 53.0968C773.523 45.6626 753.1 45.2207 734.465 51.855C726.529 54.7616 719.244 59.2037 713.026 64.9275C706.827 70.6618 701.915 77.6458 698.614 85.4185C691.816 101.971 691.816 120.535 698.614 137.088C701.896 144.772 706.749 151.685 712.862 157.383C719.082 163.104 726.367 167.546 734.301 170.455C742.91 173.626 752.025 175.199 761.198 175.096C771.67 175.276 782.062 173.238 791.69 169.115C798.014 166.338 803.791 162.453 808.749 157.644V172.645H842.411V128.852C842.411 120.551 844.524 114.548 848.751 110.845C853.373 107.014 859.258 105.044 865.255 105.321H868.785H869.34C866.791 111.54 865.524 118.21 865.614 124.93C865.483 133.832 867.898 142.585 872.576 150.16C877.341 157.738 884.134 163.829 892.184 167.743C908.942 175.332 927.972 176.209 945.357 170.194C951.732 167.769 957.451 163.885 962.057 158.853L944.638 140.388C941.73 142.987 938.418 145.095 934.833 146.63C930.964 148.094 926.844 148.782 922.709 148.657C918.198 148.795 913.719 147.866 909.636 145.944C906.125 144.242 903.209 141.52 901.27 138.133C900.446 136.626 899.809 135.024 899.374 133.362H965.717C966.456 139.567 968.387 145.57 971.403 151.042C975.397 158.179 981.276 164.081 988.398 168.102C995.577 172.142 1003.69 174.227 1011.93 174.148C1019.4 174.419 1026.81 172.596 1033.3 168.886C1035.76 167.329 1037.97 165.4 1039.84 163.167V172.579H1071.64V42.2793H1038.07V85.5819ZM907.348 102.217C910.621 100.392 914.322 99.4774 918.068 99.5695C921.7 99.4751 925.286 100.392 928.428 102.217C931.386 104.017 933.794 106.594 935.389 109.668C936.374 111.633 937.046 113.738 937.382 115.91H898.59C898.94 113.75 899.589 111.649 900.518 109.668C902.035 106.54 904.461 103.943 907.479 102.217H907.348ZM1035.85 137.284C1034.29 140.527 1031.81 143.242 1028.73 145.094C1025.61 146.832 1022.1 147.743 1018.53 147.743C1014.96 147.743 1011.45 146.832 1008.33 145.094C1005.24 143.251 1002.76 140.534 1001.21 137.284C999.365 133.478 998.458 129.288 998.562 125.061C998.399 120.745 999.309 116.455 1001.21 112.577C1002.83 109.445 1005.3 106.83 1008.33 105.027C1011.45 103.29 1014.96 102.378 1018.53 102.378C1022.1 102.378 1025.61 103.29 1028.73 105.027C1031.75 106.84 1034.22 109.452 1035.85 112.577C1037.72 116.465 1038.62 120.749 1038.47 125.061C1038.6 129.273 1037.75 133.459 1035.98 137.284H1035.85Z" fill="#05C8E8"/>
<path d="M1182.59 145.452C1179.58 147.481 1176.02 148.531 1172.39 148.459C1171.05 148.511 1169.71 148.285 1168.45 147.796C1167.2 147.307 1166.06 146.565 1165.1 145.616C1164.13 144.49 1163.39 143.183 1162.92 141.769C1162.46 140.356 1162.28 138.864 1162.39 137.38V105.908H1184.19V80.9397H1162.39V56.0039H1128.99V80.9724H1117.55V80.7436H1084.25V172.741H1117.65V105.908H1129.09V137.903C1129.09 150.104 1132.49 159.211 1139.29 165.225C1146.08 171.238 1155.57 174.255 1167.75 174.277C1172.03 174.299 1176.31 173.861 1180.5 172.97C1184.27 172.199 1187.87 170.736 1191.12 168.656L1182.59 145.452Z" fill="#05C8E8"/>
<path d="M1100.92 72.4066C1110.23 72.4066 1117.78 64.8566 1117.78 55.5431C1117.78 46.2296 1110.23 38.6797 1100.92 38.6797C1091.61 38.6797 1084.06 46.2296 1084.06 55.5431C1084.06 64.8566 1091.61 72.4066 1100.92 72.4066Z" fill="#05C8E8"/>
<path d="M92.243 0.964737H91.1973V35.6068H92.243C106.874 35.6068 120.905 41.4189 131.251 51.7645C141.597 62.1101 147.409 76.1418 147.409 90.7727C147.409 105.404 141.597 119.435 131.251 129.781C120.905 140.126 106.874 145.939 92.243 145.939H91.1973V180.581H92.243C116.079 180.581 138.939 171.112 155.793 154.257C172.648 137.403 182.116 114.543 182.116 90.7073C182.116 66.8714 172.648 44.0118 155.793 27.1573C138.939 10.3028 116.079 0.833984 92.243 0.833984V0.964737Z" fill="#1A4048"/>
<path d="M90.1194 33.3555C66.2835 33.3555 43.4239 42.8242 26.5694 59.6788C9.71487 76.5333 0.246094 99.3929 0.246094 123.229C0.246094 147.065 9.71487 169.924 26.5694 186.779C43.4239 203.633 66.2835 213.102 90.1194 213.102C90.4782 213.134 90.8392 213.134 91.198 213.102V178.297H90.1194C75.7167 177.946 62.0218 171.978 51.9592 161.668C41.8966 151.357 36.2638 137.521 36.2638 123.114C36.2638 108.707 41.8966 94.8714 51.9592 84.5609C62.0218 74.2504 75.7167 68.2827 90.1194 67.9321H91.198V33.3881L90.1194 33.3555Z" fill="#1A4048"/>
<path d="M92.9969 144.799L92.6373 131.726L103.651 119.536L92.572 129.34L92.3432 121.334L107.965 104.437L92.2779 118.98L91.9511 108L103.389 95.2866L91.8857 105.647L91.6242 95.8422L99.7619 86.43L91.5589 93.5219L91.1995 81.0704L90.8399 93.5219L82.6369 86.43L90.7746 95.8422L90.5131 105.647L79.042 95.3193L90.415 108.294L90.1209 119.307L74.434 104.764L90.0556 121.66L89.8268 129.667L78.7478 119.863L89.7615 132.053L89.4019 145.125C79.7936 139.374 37.112 109.96 91.036 68.2266C92.2452 69.0763 145.123 111.366 92.9969 144.799Z" fill="#05C8E8"/>
<path d="M91.1994 145.906H89.3691V144.893C90.513 145.579 91.1994 145.906 91.1994 145.906Z" fill="white"/>
<path d="M93.0274 145.908H91.1973L92.9947 144.797L93.0274 145.908Z" fill="white"/>
</svg>
